<svg class="main-svg" xmlns="http://www.w3.org/2000/svg" xmlns:xlink="http://www.w3.org/1999/xlink" width="1200" height="800" style="" viewBox="0 0 1200 800"><rect x="0" y="0" width="1200" height="800" style="fill: rgb(255, 255, 255); fill-opacity: 1;"/><defs id="defs-1effc0"><g class="clips"><clipPath id="clip1effc0xyplot" class="plotclip"><rect width="1019" height="601"/></clipPath><clipPath class="axesclip" id="clip1effc0x"><rect x="80" y="0" width="1019" height="800"/></clipPath><clipPath class="axesclip" id="clip1effc0y"><rect x="0" y="100" width="1200" height="601"/></clipPath><clipPath class="axesclip" id="clip1effc0xy"><rect x="80" y="100" width="1019" height="601"/></clipPath></g><g class="gradients"/></defs><g class="bglayer"><rect class="bg" x="80" y="100" width="1019" height="601" style="fill: rgb(229, 236, 246); fill-opacity: 1; stroke-width: 0;"/></g><g class="layer-below"><g class="imagelayer"/><g class="shapelayer"/></g><g class="cartesianlayer"><g class="subplot xy"><g class="layer-subplot"><g class="shapelayer"/><g class="imagelayer"/></g><g class="gridlayer"><g class="x"><path class="xgrid crisp" transform="translate(106.82,0)" d="M0,100v601" style="stroke: rgb(255, 255, 255); stroke-opacity: 1; stroke-width: 1px;"/><path class="xgrid crisp" transform="translate(214.08,0)" d="M0,100v601" style="stroke: rgb(255, 255, 255); stroke-opacity: 1; stroke-width: 1px;"/><path class="xgrid crisp" transform="translate(321.34000000000003,0)" d="M0,100v601" style="stroke: rgb(255, 255, 255); stroke-opacity: 1; stroke-width: 1px;"/><path class="xgrid crisp" transform="translate(428.61,0)" d="M0,100v601" style="stroke: rgb(255, 255, 255); stroke-opacity: 1; stroke-width: 1px;"/><path class="xgrid crisp" transform="translate(535.87,0)" d="M0,100v601" style="stroke: rgb(255, 255, 255); stroke-opacity: 1; stroke-width: 1px;"/><path class="xgrid crisp" transform="translate(643.13,0)" d="M0,100v601" style="stroke: rgb(255, 255, 255); stroke-opacity: 1; stroke-width: 1px;"/><path class="xgrid crisp" transform="translate(750.39,0)" d="M0,100v601" style="stroke: rgb(255, 255, 255); stroke-opacity: 1; stroke-width: 1px;"/><path class="xgrid crisp" transform="translate(857.66,0)" d="M0,100v601" style="stroke: rgb(255, 255, 255); stroke-opacity: 1; stroke-width: 1px;"/><path class="xgrid crisp" transform="translate(964.92,0)" d="M0,100v601" style="stroke: rgb(255, 255, 255); stroke-opacity: 1; stroke-width: 1px;"/><path class="xgrid crisp" transform="translate(1072.1799999999998,0)" d="M0,100v601" style="stroke: rgb(255, 255, 255); stroke-opacity: 1; stroke-width: 1px;"/></g><g class="y"><path class="ygrid crisp" transform="translate(0,690.92)" d="M80,0h1019" style="stroke: rgb(255, 255, 255); stroke-opacity: 1; stroke-width: 1px;"/><path class="ygrid crisp" transform="translate(0,613.85)" d="M80,0h1019" style="stroke: rgb(255, 255, 255); stroke-opacity: 1; stroke-width: 1px;"/><path class="ygrid crisp" transform="translate(0,536.79)" d="M80,0h1019" style="stroke: rgb(255, 255, 255); stroke-opacity: 1; stroke-width: 1px;"/><path class="ygrid crisp" transform="translate(0,459.73)" d="M80,0h1019" style="stroke: rgb(255, 255, 255); stroke-opacity: 1; stroke-width: 1px;"/><path class="ygrid crisp" transform="translate(0,305.6)" d="M80,0h1019" style="stroke: rgb(255, 255, 255); stroke-opacity: 1; stroke-width: 1px;"/><path class="ygrid crisp" transform="translate(0,228.54)" d="M80,0h1019" style="stroke: rgb(255, 255, 255); stroke-opacity: 1; stroke-width: 1px;"/><path class="ygrid crisp" transform="translate(0,151.48)" d="M80,0h1019" style="stroke: rgb(255, 255, 255); stroke-opacity: 1; stroke-width: 1px;"/></g></g><g class="zerolinelayer"><path class="yzl zl crisp" transform="translate(0,382.67)" d="M80,0h1019" style="stroke: rgb(255, 255, 255); stroke-opacity: 1; stroke-width: 2px;"/></g><path class="xlines-below"/><path class="ylines-below"/><g class="overlines-below"/><g class="xaxislayer-below"/><g class="yaxislayer-below"/><g class="overaxes-below"/><g class="plot" transform="translate(80, 100)" clip-path="url('#clip1effc0xyplot')"><g class="violinlayer mlayer"><g class="trace violins" style="opacity: 1;"><path class="violin" d="M26.82,339.95L26.96,339.95Q27.04,335.64 27.1,333.49C27.16,331.34 27.24,329.19 27.33,327.04C27.43,324.89 27.54,322.74 27.67,320.59C27.8,318.44 27.95,316.28 28.11,314.13C28.27,311.98 28.44,309.83 28.61,307.68C28.78,305.53 28.95,303.37 29.11,301.22C29.27,299.07 29.42,296.92 29.56,294.77C29.69,292.62 29.82,290.47 29.92,288.32C30.03,286.17 30.11,284.01 30.19,281.86C30.27,279.71 30.33,277.56 30.4,275.41C30.46,273.26 30.53,271.11 30.58,268.96C30.64,266.81 30.68,264.65 30.73,262.5C30.77,260.35 30.82,258.2 30.85,256.05C30.88,253.9 30.91,251.75 30.93,249.6C30.95,247.45 30.97,245.29 30.99,243.14C31.01,240.99 31.03,238.84 31.06,236.69C31.09,234.54 31.13,232.39 31.18,230.24C31.24,228.09 31.31,225.93 31.39,223.78C31.47,221.63 31.59,219.48 31.68,217.33C31.78,215.18 31.88,213.02 31.96,210.87C32.04,208.72 32.13,206.57 32.16,204.42C32.19,202.27 32.21,200.12 32.17,197.97C32.13,195.82 32.05,193.66 31.92,191.51C31.79,189.36 31.61,187.21 31.41,185.06C31.21,182.91 30.95,180.76 30.7,178.61C30.44,176.46 30.15,174.3 29.88,172.15C29.61,170 29.32,167.85 29.06,165.7C28.8,163.55 28.55,161.4 28.34,159.25C28.13,157.1 27.94,154.94 27.78,152.79C27.62,150.64 27.48,148.49 27.37,146.34C27.26,144.19 27.18,142.04 27.11,139.89Q27.04,137.74 26.96,133.43L26.82,133.43" style="vector-effect: non-scaling-stroke; stroke-width: 2px; stroke: rgb(255, 165, 0); stroke-opacity: 1; fill: rgb(255, 165, 0); fill-opacity: 0.5;"/><path class="violin" d="M134.08,209.54L134.15,209.54Q134.18,206.82 134.2,205.46C134.22,204.1 134.25,202.74 134.28,201.38C134.31,200.02 134.35,198.67 134.38,197.31C134.41,195.95 134.44,194.59 134.47,193.23C134.5,191.87 134.53,190.51 134.55,189.15C134.57,187.79 134.59,186.43 134.59,185.07C134.59,183.71 134.59,182.35 134.58,180.99C134.57,179.63 134.55,178.27 134.54,176.91C134.52,175.55 134.5,174.19 134.49,172.83C134.48,171.47 134.46,170.11 134.46,168.75C134.46,167.39 134.46,166.03 134.47,164.67C134.48,163.31 134.5,161.95 134.52,160.59C134.54,159.23 134.57,157.87 134.6,156.51C134.63,155.15 134.66,153.79 134.69,152.43C134.72,151.07 134.74,149.71 134.77,148.35C134.79,146.99 134.82,145.63 134.84,144.27C134.86,142.91 134.88,141.55 134.91,140.19C134.94,138.83 134.98,137.47 135.02,136.11C135.07,134.75 135.11,133.39 135.18,132.03C135.25,130.67 135.33,129.32 135.44,127.96C135.55,126.6 135.68,125.24 135.85,123.88C136.02,122.52 136.21,121.16 136.44,119.8C136.67,118.44 136.93,117.08 137.22,115.72C137.51,114.36 137.84,113 138.17,111.64C138.5,110.28 138.86,108.92 139.21,107.56C139.55,106.2 139.91,104.84 140.24,103.48C140.57,102.12 140.89,100.76 141.18,99.4C141.47,98.04 141.73,96.68 141.96,95.32C142.19,93.96 142.39,92.6 142.57,91.24C142.75,89.88 142.91,88.52 143.06,87.16C143.21,85.8 143.33,84.44 143.46,83.08C143.58,81.72 143.71,80.36 143.81,79C143.91,77.64 144.02,76.28 144.07,74.92C144.12,73.56 144.17,72.2 144.14,70.84C144.11,69.48 144.05,68.12 143.9,66.76C143.75,65.4 143.52,64.04 143.23,62.69C142.93,61.32 142.54,59.96 142.12,58.61C141.69,57.24 141.18,55.89 140.67,54.53C140.16,53.17 139.6,51.81 139.08,50.45C138.56,49.09 138.04,47.74 137.57,46.37C137.11,45.02 136.67,43.66 136.3,42.29C135.94,40.94 135.63,39.57 135.37,38.21C135.11,36.85 134.92,35.49 134.76,34.13Q134.6,32.77 134.41,30.05L134.08,30.05" style="vector-effect: non-scaling-stroke; stroke-width: 2px; stroke: rgb(255, 165, 0); stroke-opacity: 1; fill: rgb(255, 165, 0); fill-opacity: 0.5;"/><path class="violin" d="M241.34,324.03L241.5,324.03Q241.59,322.88 241.64,322.31C241.7,321.74 241.76,321.16 241.83,320.59C241.9,320.02 241.98,319.44 242.06,318.87C242.14,318.3 242.22,317.72 242.29,317.15C242.36,316.58 242.43,316 242.47,315.43C242.51,314.86 242.54,314.28 242.54,313.71C242.54,313.14 242.52,312.56 242.49,311.99C242.46,311.42 242.4,310.84 242.35,310.27C242.29,309.7 242.22,309.12 242.16,308.55C242.1,307.98 242.05,307.4 242.01,306.83C241.97,306.26 241.94,305.68 241.94,305.11C241.94,304.54 241.96,303.96 241.99,303.39C242.02,302.82 242.08,302.24 242.13,301.67C242.19,301.1 242.26,300.52 242.32,299.95C242.38,299.38 242.44,298.8 242.48,298.23C242.52,297.66 242.55,297.08 242.56,296.51C242.57,295.94 242.56,295.36 242.54,294.79C242.52,294.22 242.48,293.64 242.45,293.07C242.41,292.5 242.36,291.92 242.33,291.35C242.3,290.78 242.27,290.2 242.27,289.63C242.27,289.06 242.29,288.48 242.32,287.91C242.35,287.34 242.41,286.76 242.47,286.19C242.54,285.62 242.62,285.04 242.71,284.47C242.8,283.9 242.9,283.32 243.02,282.75C243.14,282.17 243.27,281.6 243.44,281.03C243.61,280.45 243.78,279.87 244.02,279.31C244.27,278.73 244.55,278.15 244.9,277.59C245.27,277 245.71,276.42 246.2,275.87C246.73,275.27 247.35,274.7 248,274.15C248.7,273.56 249.49,272.99 250.29,272.43C251.14,271.84 252.05,271.28 252.96,270.71C253.89,270.13 254.86,269.57 255.8,268.99C256.72,268.42 257.67,267.87 258.54,267.28C259.37,266.72 260.2,266.16 260.9,265.56C261.54,265.01 262.17,264.45 262.61,263.84C263.01,263.3 263.35,262.71 263.5,262.12C263.65,261.56 263.65,260.96 263.56,260.4C263.46,259.82 263.19,259.24 262.91,258.68C262.61,258.09 262.19,257.53 261.79,256.96C261.38,256.38 260.91,255.81 260.46,255.24C260.01,254.67 259.55,254.09 259.11,253.52C258.67,252.95 258.24,252.37 257.8,251.8C257.36,251.23 256.93,250.65 256.48,250.08C256.03,249.5 255.58,248.93 255.1,248.36C254.62,247.78 254.11,247.21 253.6,246.64C253.08,246.06 252.54,245.49 252,244.92C251.45,244.34 250.89,243.77 250.34,243.2C249.79,242.63 249.23,242.06 248.69,241.48C248.15,240.91 247.62,240.34 247.11,239.76C246.61,239.19 246.13,238.62 245.67,238.04C245.23,237.47 244.8,236.9 244.41,236.32C244.04,235.76 243.69,235.18 243.38,234.6C243.08,234.03 242.82,233.46 242.6,232.88C242.38,232.31 242.2,231.74 242.05,231.16Q241.9,230.59 241.71,229.44L241.34,229.44" style="vector-effect: non-scaling-stroke; stroke-width: 2px; stroke: rgb(255, 165, 0); stroke-opacity: 1; fill: rgb(255, 165, 0); fill-opacity: 0.5;"/><path class="violin" d="M348.61,433.88L348.81,433.88Q348.91,432.95 348.98,432.49C349.05,432.03 349.14,431.56 349.24,431.1C349.34,430.64 349.44,430.17 349.56,429.71C349.68,429.25 349.82,428.78 349.95,428.32C350.08,427.86 350.21,427.39 350.35,426.93C350.49,426.46 350.63,425.99 350.78,425.53C350.93,425.06 351.09,424.6 351.27,424.14C351.45,423.67 351.65,423.21 351.88,422.75C352.12,422.28 352.39,421.81 352.69,421.36C353,420.89 353.36,420.43 353.73,419.97C354.11,419.5 354.53,419.04 354.95,418.58C355.38,418.11 355.82,417.65 356.26,417.18C356.7,416.72 357.14,416.25 357.58,415.79C358.01,415.33 358.44,414.86 358.87,414.4C359.31,413.94 359.74,413.47 360.19,413.01C360.65,412.54 361.13,412.08 361.63,411.62C362.15,411.15 362.7,410.69 363.27,410.23C363.87,409.76 364.5,409.29 365.14,408.83C365.8,408.36 366.48,407.9 367.16,407.44C367.84,406.98 368.54,406.52 369.22,406.05C369.88,405.59 370.56,405.13 371.18,404.66C371.78,404.21 372.38,403.75 372.89,403.27C373.37,402.82 373.85,402.36 374.17,401.87C374.46,401.43 374.74,400.95 374.78,400.48C374.82,400.02 374.69,399.52 374.44,399.09C374.14,398.58 373.56,398.13 372.96,397.7C372.24,397.18 371.29,396.75 370.34,396.31C369.28,395.82 368.06,395.37 366.87,394.92C365.62,394.44 364.28,393.99 363,393.52C361.74,393.06 360.45,392.61 359.27,392.13C358.17,391.68 357.08,391.23 356.12,390.74C355.27,390.3 354.45,389.85 353.77,389.35C353.17,388.91 352.64,388.45 352.21,387.96C351.82,387.52 351.52,387.05 351.27,386.57C351.03,386.12 350.88,385.64 350.73,385.17C350.59,384.71 350.49,384.24 350.39,383.78C350.29,383.32 350.21,382.85 350.13,382.39C350.05,381.93 349.98,381.46 349.93,381C349.88,380.54 349.84,380.07 349.83,379.61C349.82,379.15 349.82,378.68 349.84,378.22C349.86,377.75 349.91,377.29 349.95,376.82C349.99,376.36 350.04,375.89 350.07,375.43C350.1,374.97 350.13,374.5 350.13,374.04C350.13,373.58 350.11,373.11 350.07,372.65C350.03,372.19 349.96,371.72 349.89,371.26C349.82,370.8 349.72,370.33 349.63,369.87C349.54,369.4 349.45,368.94 349.37,368.47C349.29,368.01 349.22,367.54 349.17,367.08C349.13,366.62 349.1,366.15 349.1,365.69C349.1,365.23 349.12,364.76 349.16,364.3C349.2,363.84 349.28,363.37 349.35,362.91C349.43,362.45 349.52,361.98 349.61,361.52C349.7,361.05 349.81,360.59 349.89,360.12C349.97,359.66 350.04,359.19 350.1,358.73C350.15,358.27 350.2,357.8 350.22,357.34C350.24,356.88 350.24,356.41 350.24,355.95C350.24,355.49 350.22,355.02 350.21,354.56C350.2,354.1 350.19,353.63 350.19,353.17C350.19,352.7 350.19,352.24 350.2,351.77C350.21,351.31 350.22,350.84 350.23,350.38C350.24,349.92 350.25,349.45 350.24,348.99C350.23,348.53 350.2,348.06 350.15,347.6C350.1,347.14 350.03,346.67 349.95,346.21C349.87,345.75 349.77,345.28 349.68,344.82C349.58,344.35 349.47,343.89 349.38,343.42C349.29,342.96 349.19,342.49 349.12,342.03C349.05,341.57 348.99,341.1 348.95,340.64C348.91,340.18 348.88,339.71 348.87,339.25C348.86,338.79 348.88,338.32 348.91,337.86C348.94,337.4 348.99,336.93 349.05,336.47C349.11,336 349.19,335.54 349.28,335.07C349.36,334.61 349.47,334.14 349.56,333.68C349.65,333.22 349.76,332.75 349.84,332.29C349.92,331.83 349.99,331.36 350.03,330.9C350.07,330.44 350.09,329.97 350.08,329.51C350.07,329.05 350.03,328.58 349.97,328.12C349.91,327.65 349.83,327.19 349.74,326.72C349.66,326.26 349.55,325.79 349.46,325.33C349.37,324.87 349.26,324.4 349.18,323.94C349.1,323.48 349.02,323.01 348.96,322.55C348.9,322.09 348.86,321.62 348.83,321.16C348.8,320.69 348.79,320.23 348.8,319.76C348.81,319.3 348.83,318.83 348.86,318.37C348.9,317.91 348.95,317.44 349.01,316.98C349.07,316.52 349.16,316.05 349.24,315.59C349.33,315.13 349.43,314.66 349.52,314.2C349.61,313.74 349.72,313.28 349.8,312.81C349.88,312.35 349.96,311.88 350.01,311.41C350.06,310.95 350.08,310.48 350.08,310.02C350.08,309.56 350.05,309.09 350,308.63C349.95,308.17 349.86,307.7 349.78,307.24C349.69,306.78 349.59,306.31 349.49,305.85C349.4,305.39 349.3,304.92 349.21,304.46C349.12,303.99 349.04,303.53 348.97,303.06Q348.9,302.6 348.8,301.67L348.61,301.67" style="vector-effect: non-scaling-stroke; stroke-width: 2px; stroke: rgb(255, 165, 0); stroke-opacity: 1; fill: rgb(255, 165, 0); fill-opacity: 0.5;"/><path class="violin" d="M455.87,294.14L456.19,294.14Q456.38,292.9 456.53,292.28C456.69,291.65 456.87,291.02 457.13,290.41C457.39,289.78 457.72,289.15 458.1,288.54C458.51,287.9 458.99,287.28 459.52,286.68C460.09,286.04 460.74,285.41 461.43,284.81C462.16,284.17 462.98,283.56 463.8,282.95C464.66,282.32 465.58,281.7 466.48,281.08C467.38,280.46 468.32,279.84 469.19,279.21C470.03,278.6 470.89,278 471.61,277.35C472.27,276.75 472.92,276.14 473.38,275.48C473.79,274.89 474.13,274.26 474.28,273.62C474.42,273.01 474.4,272.36 474.29,271.75C474.18,271.12 473.88,270.49 473.59,269.88C473.29,269.25 472.87,268.64 472.52,268.02C472.17,267.4 471.78,266.78 471.49,266.15C471.21,265.54 470.95,264.92 470.79,264.29C470.63,263.68 470.56,263.04 470.53,262.42C470.5,261.8 470.57,261.18 470.63,260.56C470.69,259.94 470.81,259.31 470.88,258.69C470.95,258.07 471.03,257.44 471.03,256.82C471.03,256.2 471.02,255.58 470.91,254.96C470.8,254.33 470.62,253.7 470.38,253.09C470.13,252.46 469.79,251.84 469.4,251.23C468.99,250.59 468.5,249.97 467.98,249.36C467.44,248.72 466.83,248.1 466.22,247.49C465.6,246.86 464.93,246.25 464.28,245.63C463.63,245.01 462.96,244.39 462.34,243.76C461.73,243.15 461.13,242.53 460.59,241.9C460.06,241.29 459.56,240.67 459.12,240.03C458.7,239.42 458.32,238.8 457.99,238.17C457.67,237.56 457.4,236.93 457.17,236.3C456.95,235.68 456.77,235.06 456.62,234.43C456.47,233.81 456.36,233.19 456.27,232.57Q456.18,231.95 456.07,230.7L455.87,230.7" style="vector-effect: non-scaling-stroke; stroke-width: 2px; stroke: rgb(255, 165, 0); stroke-opacity: 1; fill: rgb(255, 165, 0); fill-opacity: 0.5;"/><path class="violin" d="M563.13,325.82L563.37,325.82Q563.5,324.5 563.6,323.84C563.7,323.18 563.82,322.52 563.97,321.87C564.12,321.21 564.3,320.55 564.5,319.89C564.71,319.23 564.95,318.57 565.21,317.91C565.47,317.25 565.76,316.59 566.06,315.94C566.36,315.28 566.69,314.62 567.01,313.96C567.33,313.3 567.67,312.64 567.99,311.98C568.31,311.32 568.64,310.67 568.95,310.01C569.26,309.35 569.56,308.69 569.84,308.03C570.11,307.38 570.38,306.72 570.61,306.06C570.83,305.41 571.03,304.74 571.19,304.08C571.35,303.42 571.47,302.76 571.58,302.1C571.69,301.44 571.75,300.79 571.83,300.13C571.92,299.47 571.96,298.81 572.09,298.15C572.22,297.49 572.37,296.81 572.63,296.17C572.9,295.5 573.26,294.83 573.7,294.2C574.18,293.51 574.79,292.86 575.44,292.22C576.13,291.54 576.95,290.9 577.74,290.25C578.55,289.58 579.45,288.94 580.25,288.27C581.03,287.62 581.84,286.98 582.49,286.29C583.08,285.66 583.66,285.01 584.01,284.32C584.33,283.69 584.56,283 584.59,282.34C584.62,281.68 584.45,281 584.2,280.36C583.93,279.68 583.47,279.02 582.98,278.39C582.45,277.7 581.79,277.05 581.12,276.41C580.4,275.73 579.6,275.09 578.79,274.44C577.95,273.77 577.04,273.12 576.15,272.46C575.24,271.8 574.3,271.14 573.39,270.48C572.49,269.83 571.58,269.18 570.73,268.51C569.92,267.86 569.12,267.21 568.4,266.53C567.72,265.89 567.07,265.23 566.52,264.55C566,263.91 565.53,263.26 565.15,262.58C564.78,261.94 564.49,261.27 564.25,260.6C564.01,259.95 563.84,259.29 563.7,258.63Q563.56,257.98 563.4,256.65L563.13,256.65" style="vector-effect: non-scaling-stroke; stroke-width: 2px; stroke: rgb(255, 165, 0); stroke-opacity: 1; fill: rgb(255, 165, 0); fill-opacity: 0.5;"/><path class="violin" d="M670.39,309.51L670.84,309.51Q671.09,308.09 671.29,307.39C671.5,306.67 671.75,305.96 672.07,305.26C672.41,304.54 672.81,303.82 673.28,303.13C673.77,302.4 674.36,301.7 674.98,301.01C675.64,300.28 676.38,299.58 677.14,298.88C677.93,298.16 678.8,297.46 679.64,296.76C680.49,296.05 681.39,295.35 682.22,294.63C683.03,293.93 683.86,293.24 684.58,292.51C685.26,291.82 685.92,291.12 686.43,290.38C686.9,289.7 687.32,288.99 687.57,288.26C687.81,287.57 687.93,286.84 687.95,286.13C687.97,285.42 687.86,284.71 687.71,284.01C687.56,283.29 687.3,282.58 687.06,281.88C686.81,281.17 686.51,280.47 686.23,279.76C685.95,279.05 685.67,278.34 685.4,277.63C685.13,276.92 684.87,276.22 684.6,275.51C684.33,274.8 684.06,274.09 683.77,273.38C683.48,272.67 683.17,271.96 682.85,271.25C682.53,270.54 682.18,269.84 681.84,269.13C681.5,268.42 681.13,267.71 680.79,267C680.45,266.29 680.11,265.59 679.8,264.88C679.5,264.18 679.21,263.46 678.95,262.75C678.69,262.05 678.46,261.34 678.23,260.63C678,259.92 677.79,259.21 677.57,258.5C677.35,257.79 677.13,257.09 676.9,256.38C676.66,255.67 676.42,254.96 676.16,254.25C675.89,253.54 675.6,252.84 675.31,252.13C675.01,251.42 674.7,250.71 674.39,250C674.08,249.29 673.76,248.59 673.46,247.88C673.16,247.17 672.86,246.46 672.59,245.75C672.32,245.04 672.07,244.33 671.85,243.62C671.63,242.92 671.44,242.21 671.28,241.5C671.12,240.79 671,240.08 670.89,239.37Q670.79,238.66 670.65,237.25L670.39,237.25" style="vector-effect: non-scaling-stroke; stroke-width: 2px; stroke: rgb(255, 165, 0); stroke-opacity: 1; fill: rgb(255, 165, 0); fill-opacity: 0.5;"/><path class="violin" d="M777.66,334.57L777.85,334.57Q777.95,333.6 778.02,333.12C778.09,332.64 778.17,332.15 778.26,331.67C778.35,331.19 778.47,330.7 778.58,330.22C778.69,329.74 778.81,329.25 778.93,328.77C779.05,328.29 779.17,327.8 779.28,327.32C779.39,326.83 779.5,326.35 779.6,325.86C779.7,325.38 779.79,324.89 779.89,324.41C779.99,323.93 780.07,323.44 780.19,322.96C780.31,322.47 780.42,321.99 780.59,321.51C780.76,321.02 780.96,320.53 781.21,320.06C781.48,319.56 781.79,319.08 782.16,318.61C782.56,318.11 783.03,317.63 783.53,317.16C784.07,316.66 784.68,316.17 785.31,315.7C785.97,315.2 786.7,314.73 787.42,314.25C788.15,313.76 788.93,313.29 789.67,312.8C790.41,312.32 791.16,311.84 791.87,311.35C792.56,310.87 793.22,310.39 793.86,309.9C794.47,309.43 795.06,308.94 795.62,308.45C796.16,307.97 796.67,307.48 797.17,306.99C797.66,306.51 798.14,306.03 798.61,305.54C799.08,305.06 799.53,304.58 799.98,304.09C800.42,303.61 800.86,303.13 801.27,302.64C801.67,302.16 802.07,301.69 802.4,301.19C802.72,300.72 803.03,300.24 803.24,299.74C803.44,299.27 803.6,298.77 803.63,298.28C803.65,297.8 803.58,297.29 803.4,296.83C803.2,296.32 802.85,295.83 802.44,295.38C801.97,294.86 801.33,294.39 800.67,293.93C799.92,293.41 799.05,292.95 798.16,292.48C797.2,291.98 796.15,291.51 795.11,291.03C794.03,290.54 792.9,290.06 791.81,289.57C790.73,289.09 789.62,288.61 788.58,288.12C787.58,287.65 786.6,287.17 785.69,286.67C784.85,286.2 784.04,285.73 783.31,285.22C782.64,284.76 782.01,284.28 781.46,283.77C780.95,283.31 780.5,282.82 780.11,282.32C779.74,281.85 779.43,281.37 779.16,280.87C778.9,280.39 778.7,279.9 778.53,279.41C778.36,278.93 778.24,278.45 778.13,277.96Q778.02,277.48 777.89,276.51L777.66,276.51" style="vector-effect: non-scaling-stroke; stroke-width: 2px; stroke: rgb(255, 165, 0); stroke-opacity: 1; fill: rgb(255, 165, 0); fill-opacity: 0.5;"/><path class="violin" d="M884.92,310L885.37,310Q885.63,308.57 885.84,307.86C886.05,307.14 886.31,306.42 886.64,305.72C886.99,304.99 887.41,304.28 887.9,303.59C888.41,302.86 889.01,302.14 889.66,301.45C890.35,300.72 891.13,300.02 891.92,299.32C892.74,298.59 893.63,297.89 894.5,297.18C895.38,296.47 896.31,295.77 897.16,295.05C897.99,294.35 898.83,293.65 899.55,292.91C900.23,292.22 900.89,291.51 901.38,290.77C901.83,290.09 902.23,289.37 902.45,288.64C902.66,287.95 902.74,287.21 902.73,286.5C902.72,285.79 902.55,285.07 902.37,284.37C902.18,283.65 901.89,282.94 901.61,282.23C901.33,281.51 901,280.81 900.7,280.1C900.39,279.39 900.08,278.67 899.78,277.96C899.48,277.25 899.18,276.54 898.88,275.83C898.57,275.12 898.28,274.4 897.95,273.69C897.62,272.97 897.27,272.26 896.92,271.55C896.57,270.84 896.19,270.13 895.83,269.42C895.47,268.71 895.11,268 894.77,267.28C894.44,266.57 894.12,265.87 893.83,265.15C893.55,264.44 893.29,263.73 893.06,263.01C892.83,262.3 892.64,261.59 892.44,260.88C892.24,260.17 892.06,259.45 891.86,258.74C891.66,258.03 891.47,257.31 891.25,256.6C891.03,255.89 890.8,255.18 890.55,254.47C890.3,253.75 890.02,253.04 889.74,252.33C889.46,251.62 889.15,250.91 888.85,250.2C888.55,249.49 888.23,248.77 887.94,248.06C887.65,247.35 887.36,246.64 887.1,245.93C886.84,245.22 886.59,244.51 886.37,243.79C886.16,243.08 885.97,242.37 885.81,241.66C885.65,240.95 885.53,240.24 885.42,239.52Q885.32,238.81 885.18,237.38L884.92,237.38" style="vector-effect: non-scaling-stroke; stroke-width: 2px; stroke: rgb(255, 165, 0); stroke-opacity: 1; fill: rgb(255, 165, 0); fill-opacity: 0.5;"/><path class="violin" d="M992.18,334.4L992.38,334.4Q992.48,333.47 992.55,333C992.62,332.53 992.71,332.06 992.8,331.59C992.89,331.12 993,330.66 993.11,330.19C993.22,329.72 993.35,329.25 993.47,328.78C993.59,328.31 993.71,327.84 993.82,327.37C993.93,326.9 994.04,326.44 994.14,325.97C994.24,325.5 994.33,325.03 994.42,324.56C994.51,324.09 994.6,323.63 994.7,323.16C994.8,322.69 994.9,322.22 995.04,321.75C995.18,321.28 995.34,320.8 995.56,320.34C995.78,319.86 996.05,319.39 996.37,318.94C996.71,318.46 997.11,317.98 997.55,317.53C998.02,317.04 998.57,316.58 999.14,316.13C999.74,315.65 1000.41,315.18 1001.08,314.72C1001.77,314.24 1002.5,313.78 1003.21,313.31C1003.92,312.84 1004.66,312.38 1005.36,311.91C1006.04,311.45 1006.72,310.98 1007.36,310.5C1007.98,310.04 1008.58,309.58 1009.16,309.1C1009.72,308.64 1010.26,308.17 1010.78,307.69C1011.29,307.23 1011.77,306.75 1012.26,306.28C1012.74,305.81 1013.22,305.35 1013.69,304.88C1014.15,304.41 1014.61,303.94 1015.06,303.47C1015.5,303.01 1015.94,302.55 1016.34,302.07C1016.73,301.61 1017.12,301.14 1017.44,300.66C1017.74,300.2 1018.03,299.73 1018.2,299.25C1018.36,298.79 1018.48,298.32 1018.46,297.85C1018.44,297.38 1018.31,296.89 1018.08,296.44C1017.83,295.94 1017.4,295.48 1016.94,295.04C1016.41,294.53 1015.73,294.08 1015.02,293.63C1014.23,293.13 1013.32,292.67 1012.41,292.22C1011.43,291.74 1010.38,291.28 1009.33,290.82C1008.26,290.35 1007.13,289.88 1006.05,289.41C1004.98,288.94 1003.89,288.49 1002.87,288.01C1001.9,287.55 1000.93,287.09 1000.05,286.6C999.23,286.15 998.44,285.68 997.73,285.19C997.08,284.74 996.47,284.28 995.93,283.79C995.43,283.34 994.98,282.87 994.6,282.38C994.24,281.93 993.94,281.46 993.68,280.98C993.43,280.52 993.22,280.05 993.05,279.57C992.88,279.11 992.77,278.63 992.66,278.16Q992.56,277.7 992.42,276.76L992.18,276.76" style="vector-effect: non-scaling-stroke; stroke-width: 2px; stroke: rgb(255, 165, 0); stroke-opacity: 1; fill: rgb(255, 165, 0); fill-opacity: 0.5;"/><path class="meanline" d="M31.154155731201172,231.41H26.82" style="fill: none; vector-effect: non-scaling-stroke; stroke-width: 2px; stroke-dasharray: 4px, 2px; stroke: rgb(255, 165, 0); stroke-opacity: 1;"/><path class="meanline" d="M143.2665252685547,85.13H134.08" style="fill: none; vector-effect: non-scaling-stroke; stroke-width: 2px; stroke-dasharray: 4px, 2px; stroke: rgb(255, 165, 0); stroke-opacity: 1;"/><path class="meanline" d="M263.5989074707031,260.7H241.34" style="fill: none; vector-effect: non-scaling-stroke; stroke-width: 2px; stroke-dasharray: 4px, 2px; stroke: rgb(255, 165, 0); stroke-opacity: 1;"/><path class="meanline" d="M369.98675537109375,396.15H348.61" style="fill: none; vector-effect: non-scaling-stroke; stroke-width: 2px; stroke-dasharray: 4px, 2px; stroke: rgb(255, 165, 0); stroke-opacity: 1;"/><path class="meanline" d="M470.80303955078125,264.34H455.87" style="fill: none; vector-effect: non-scaling-stroke; stroke-width: 2px; stroke-dasharray: 4px, 2px; stroke: rgb(255, 165, 0); stroke-opacity: 1;"/><path class="meanline" d="M581.69873046875,287.05H563.13" style="fill: none; vector-effect: non-scaling-stroke; stroke-width: 2px; stroke-dasharray: 4px, 2px; stroke: rgb(255, 165, 0); stroke-opacity: 1;"/><path class="meanline" d="M685.5071411132812,277.91H670.39" style="fill: none; vector-effect: non-scaling-stroke; stroke-width: 2px; stroke-dasharray: 4px, 2px; stroke: rgb(255, 165, 0); stroke-opacity: 1;"/><path class="meanline" d="M802.2272338867188,301.44H777.66" style="fill: none; vector-effect: non-scaling-stroke; stroke-width: 2px; stroke-dasharray: 4px, 2px; stroke: rgb(255, 165, 0); stroke-opacity: 1;"/><path class="meanline" d="M900.0399169921875,278.57H884.92" style="fill: none; vector-effect: non-scaling-stroke; stroke-width: 2px; stroke-dasharray: 4px, 2px; stroke: rgb(255, 165, 0); stroke-opacity: 1;"/><path class="meanline" d="M1016.8944702148438,301.4H992.18" style="fill: none; vector-effect: non-scaling-stroke; stroke-width: 2px; stroke-dasharray: 4px, 2px; stroke: rgb(255, 165, 0); stroke-opacity: 1;"/><g class="points"/><g class="points"><path class="point" transform="translate(134.08,184.59)" d="M3,0A3,3 0 1,1 0,-3A3,3 0 0,1 3,0Z" style="opacity: 1; stroke-width: 0px; fill: rgb(255, 165, 0); fill-opacity: 1;"/><path class="point" transform="translate(134.08,149.71)" d="M3,0A3,3 0 1,1 0,-3A3,3 0 0,1 3,0Z" style="opacity: 1; stroke-width: 0px; fill: rgb(255, 165, 0); fill-opacity: 1;"/></g><g class="points"><path class="point" transform="translate(241.34,313.61)" d="M3,0A3,3 0 1,1 0,-3A3,3 0 0,1 3,0Z" style="opacity: 1; stroke-width: 0px; fill: rgb(255, 165, 0); fill-opacity: 1;"/><path class="point" transform="translate(241.34,296.3)" d="M3,0A3,3 0 1,1 0,-3A3,3 0 0,1 3,0Z" style="opacity: 1; stroke-width: 0px; fill: rgb(255, 165, 0); fill-opacity: 1;"/></g><g class="points"><path class="point" transform="translate(348.61,425.47)" d="M3,0A3,3 0 1,1 0,-3A3,3 0 0,1 3,0Z" style="opacity: 1; stroke-width: 0px; fill: rgb(255, 165, 0); fill-opacity: 1;"/><path class="point" transform="translate(348.61,373.58)" d="M3,0A3,3 0 1,1 0,-3A3,3 0 0,1 3,0Z" style="opacity: 1; stroke-width: 0px; fill: rgb(255, 165, 0); fill-opacity: 1;"/><path class="point" transform="translate(348.61,357.66)" d="M3,0A3,3 0 1,1 0,-3A3,3 0 0,1 3,0Z" style="opacity: 1; stroke-width: 0px; fill: rgb(255, 165, 0); fill-opacity: 1;"/><path class="point" transform="translate(348.61,348.25)" d="M3,0A3,3 0 1,1 0,-3A3,3 0 0,1 3,0Z" style="opacity: 1; stroke-width: 0px; fill: rgb(255, 165, 0); fill-opacity: 1;"/><path class="point" transform="translate(348.61,329.76)" d="M3,0A3,3 0 1,1 0,-3A3,3 0 0,1 3,0Z" style="opacity: 1; stroke-width: 0px; fill: rgb(255, 165, 0); fill-opacity: 1;"/><path class="point" transform="translate(348.61,310.09)" d="M3,0A3,3 0 1,1 0,-3A3,3 0 0,1 3,0Z" style="opacity: 1; stroke-width: 0px; fill: rgb(255, 165, 0); fill-opacity: 1;"/></g><g class="points"/><g class="points"/><g class="points"/><g class="points"><path class="point" transform="translate(777.66,325.8)" d="M3,0A3,3 0 1,1 0,-3A3,3 0 0,1 3,0Z" style="opacity: 1; stroke-width: 0px; fill: rgb(255, 165, 0); fill-opacity: 1;"/></g><g class="points"/><g class="points"><path class="point" transform="translate(992.18,325.8)" d="M3,0A3,3 0 1,1 0,-3A3,3 0 0,1 3,0Z" style="opacity: 1; stroke-width: 0px; fill: rgb(255, 165, 0); fill-opacity: 1;"/></g></g><g class="trace violins" style="opacity: 1;"><path class="violin" d="M26.82,223.94L26.69,223.94Q26.61,228.78 26.56,231.2C26.5,233.62 26.44,236.05 26.36,238.47C26.28,240.89 26.17,243.31 26.06,245.73C25.94,248.15 25.81,250.57 25.67,252.99C25.53,255.41 25.37,257.83 25.22,260.25C25.07,262.67 24.92,265.09 24.78,267.51C24.64,269.93 24.5,272.36 24.39,274.78C24.28,277.2 24.2,279.62 24.13,282.04C24.06,284.46 24.02,286.88 23.99,289.3C23.96,291.72 23.97,294.14 23.97,296.56C23.97,298.98 23.98,301.4 23.99,303.82C23.99,306.24 24.01,308.66 24,311.08C23.99,313.5 23.98,315.93 23.95,318.35C23.92,320.77 23.86,323.19 23.8,325.61C23.73,328.03 23.65,330.45 23.56,332.87C23.47,335.29 23.36,337.71 23.24,340.13C23.12,342.55 22.99,344.97 22.84,347.39C22.69,349.81 22.53,352.24 22.36,354.66C22.19,357.08 22,359.5 21.82,361.92C21.64,364.34 21.44,366.76 21.28,369.18C21.12,371.6 20.94,374.02 20.84,376.44C20.74,378.86 20.66,381.28 20.67,383.7C20.68,386.12 20.74,388.55 20.88,390.97C21.02,393.39 21.24,395.81 21.5,398.23C21.76,400.65 22.11,403.07 22.45,405.49C22.79,407.91 23.18,410.33 23.54,412.75C23.89,415.17 24.26,417.59 24.58,420.01C24.9,422.43 25.19,424.86 25.44,427.28C25.68,429.7 25.88,432.12 26.05,434.54Q26.21,436.96 26.43,441.8L26.82,441.8" style="vector-effect: non-scaling-stroke; stroke-width: 2px; stroke: rgb(0, 0, 255); stroke-opacity: 1; fill: rgb(0, 0, 255); fill-opacity: 0.5;"/><path class="violin" d="M134.08,305.01L134.03,305.01Q134.01,309.68 133.99,312.01C133.97,314.34 133.96,316.68 133.93,319.01C133.91,321.34 133.87,323.67 133.84,326C133.81,328.33 133.77,330.67 133.74,333C133.71,335.33 133.67,337.67 133.64,340C133.61,342.33 133.57,344.67 133.54,347C133.51,349.33 133.48,351.67 133.46,354C133.44,356.33 133.42,358.67 133.41,361C133.4,363.33 133.39,365.67 133.38,368C133.37,370.33 133.37,372.66 133.36,374.99C133.35,377.32 133.35,379.66 133.34,381.99C133.33,384.32 133.32,386.66 133.31,388.99C133.3,391.32 133.28,393.66 133.26,395.99C133.24,398.32 133.23,400.66 133.2,402.99C133.17,405.32 133.14,407.66 133.1,409.99C133.06,412.32 133.02,414.65 132.97,416.98C132.92,419.31 132.85,421.65 132.78,423.98C132.71,426.31 132.62,428.65 132.53,430.98C132.44,433.31 132.34,435.65 132.24,437.98C132.14,440.31 132.03,442.65 131.93,444.98C131.82,447.31 131.71,449.65 131.61,451.98C131.51,454.31 131.42,456.65 131.32,458.98C131.22,461.31 131.13,463.64 131.02,465.97C130.91,468.3 130.81,470.64 130.68,472.97C130.55,475.3 130.42,477.64 130.24,479.97C130.06,482.3 129.85,484.64 129.62,486.97C129.38,489.3 129.11,491.64 128.83,493.97C128.55,496.3 128.22,498.64 127.94,500.97C127.66,503.3 127.35,505.63 127.13,507.96C126.91,510.29 126.71,512.63 126.63,514.96C126.55,517.29 126.54,519.63 126.64,521.96C126.74,524.3 126.95,526.63 127.23,528.96C127.51,531.3 127.91,533.63 128.32,535.96C128.73,538.3 129.22,540.63 129.67,542.96C130.12,545.29 130.6,547.62 131.01,549.95C131.42,552.28 131.82,554.61 132.15,556.95C132.48,559.28 132.75,561.61 132.98,563.95Q133.21,566.28 133.51,570.95L134.08,570.95" style="vector-effect: non-scaling-stroke; stroke-width: 2px; stroke: rgb(0, 0, 255); stroke-opacity: 1; fill: rgb(0, 0, 255); fill-opacity: 0.5;"/><path class="violin" d="M241.34,215.07L241.25,215.07Q241.2,217.12 241.17,218.15C241.14,219.17 241.09,220.2 241.05,221.22C241.01,222.25 240.96,223.27 240.91,224.3C240.86,225.32 240.8,226.35 240.75,227.37C240.7,228.4 240.65,229.42 240.61,230.45C240.57,231.47 240.53,232.5 240.49,233.52C240.45,234.55 240.42,235.57 240.38,236.6C240.34,237.62 240.31,238.65 240.25,239.67C240.19,240.69 240.13,241.72 240.03,242.74C239.93,243.77 239.81,244.8 239.67,245.82C239.52,246.85 239.36,247.87 239.16,248.89C238.96,249.92 238.73,250.95 238.48,251.97C238.23,253 237.96,254.02 237.68,255.04C237.4,256.07 237.1,257.1 236.8,258.12C236.5,259.15 236.19,260.17 235.88,261.19C235.57,262.22 235.26,263.24 234.95,264.27C234.65,265.29 234.34,266.31 234.05,267.34C233.76,268.36 233.47,269.39 233.2,270.42C232.93,271.44 232.66,272.46 232.43,273.49C232.2,274.51 231.99,275.54 231.8,276.57C231.61,277.59 231.44,278.62 231.28,279.64C231.12,280.67 230.98,281.69 230.82,282.72C230.66,283.74 230.51,284.77 230.32,285.79C230.13,286.82 229.92,287.84 229.69,288.86C229.46,289.89 229.18,290.91 228.94,291.94C228.7,292.96 228.43,293.98 228.25,295.01C228.07,296.03 227.9,297.06 227.87,298.09C227.84,299.11 227.88,300.15 228.05,301.16C228.23,302.2 228.54,303.23 228.93,304.24C229.33,305.28 229.88,306.3 230.45,307.31C231.04,308.35 231.74,309.37 232.41,310.39C233.09,311.42 233.83,312.43 234.51,313.46C235.19,314.48 235.87,315.5 236.48,316.54C237.08,317.55 237.64,318.57 238.13,319.61C238.6,320.62 239.02,321.65 239.37,322.69C239.72,323.7 240,324.73 240.23,325.76C240.46,326.78 240.62,327.81 240.76,328.84Q240.9,329.86 241.07,331.91L241.34,331.91" style="vector-effect: non-scaling-stroke; stroke-width: 2px; stroke: rgb(0, 0, 255); stroke-opacity: 1; fill: rgb(0, 0, 255); fill-opacity: 0.5;"/><path class="violin" d="M348.61,149.96L348.34,149.96Q348.2,152.22 348.08,153.35C347.96,154.48 347.82,155.61 347.64,156.74C347.46,157.87 347.24,159.01 346.98,160.13C346.72,161.26 346.42,162.39 346.09,163.51C345.76,164.64 345.38,165.77 344.99,166.9C344.6,168.03 344.17,169.16 343.75,170.29C343.33,171.42 342.89,172.55 342.47,173.68C342.06,174.81 341.63,175.94 341.26,177.07C340.89,178.2 340.54,179.32 340.24,180.46C339.95,181.58 339.69,182.72 339.49,183.85C339.29,184.97 339.14,186.1 339.04,187.23C338.94,188.36 338.89,189.49 338.88,190.62C338.87,191.75 338.9,192.88 338.95,194.01C339,195.14 339.09,196.27 339.18,197.4C339.27,198.53 339.4,199.66 339.51,200.79C339.62,201.92 339.74,203.05 339.84,204.18C339.93,205.31 340.03,206.44 340.08,207.57C340.13,208.7 340.15,209.82 340.13,210.95C340.11,212.08 340.05,213.21 339.96,214.34C339.87,215.47 339.72,216.6 339.6,217.73C339.48,218.86 339.32,219.99 339.23,221.12C339.15,222.25 339.06,223.38 339.09,224.51C339.12,225.64 339.21,226.78 339.41,227.9C339.61,229.04 339.92,230.17 340.28,231.29C340.65,232.43 341.13,233.55 341.62,234.67C342.11,235.81 342.69,236.93 343.22,238.06C343.75,239.19 344.32,240.31 344.81,241.45C345.3,242.57 345.76,243.7 346.16,244.84C346.55,245.96 346.89,247.09 347.17,248.23C347.45,249.35 347.66,250.49 347.84,251.62Q348.02,252.75 348.24,255.01L348.61,255.01" style="vector-effect: non-scaling-stroke; stroke-width: 2px; stroke: rgb(0, 0, 255); stroke-opacity: 1; fill: rgb(0, 0, 255); fill-opacity: 0.5;"/><path class="violin" d="M455.87,276.23L455.67,276.23Q455.57,277.26 455.49,277.77C455.41,278.28 455.32,278.8 455.21,279.31C455.1,279.82 454.98,280.34 454.84,280.85C454.7,281.37 454.54,281.88 454.38,282.39C454.21,282.91 454.03,283.42 453.85,283.93C453.67,284.45 453.48,284.97 453.29,285.48C453.1,286 452.9,286.51 452.69,287.02C452.48,287.53 452.27,288.05 452.05,288.56C451.83,289.07 451.6,289.59 451.36,290.1C451.12,290.61 450.87,291.13 450.63,291.64C450.39,292.15 450.14,292.67 449.9,293.18C449.66,293.69 449.43,294.21 449.2,294.72C448.97,295.23 448.75,295.75 448.53,296.26C448.31,296.77 448.11,297.29 447.88,297.8C447.65,298.32 447.43,298.83 447.17,299.34C446.91,299.86 446.63,300.38 446.32,300.89C446,301.41 445.66,301.93 445.28,302.43C444.89,302.95 444.47,303.47 444.02,303.97C443.55,304.49 443.05,305 442.53,305.51C442,306.03 441.44,306.54 440.87,307.05C440.29,307.57 439.7,308.08 439.1,308.59C438.49,309.11 437.87,309.62 437.24,310.13C436.61,310.65 435.96,311.16 435.32,311.67C434.67,312.18 434.01,312.69 433.37,313.21C432.75,313.72 432.09,314.22 431.54,314.75C431.03,315.25 430.48,315.75 430.15,316.3C429.86,316.79 429.58,317.33 429.59,317.84C429.6,318.35 429.85,318.91 430.19,319.38C430.6,319.95 431.33,320.44 432.03,320.92C432.84,321.48 433.86,321.96 434.84,322.46C435.89,322.99 437.04,323.49 438.13,324C439.22,324.51 440.35,325.01 441.4,325.54C442.4,326.04 443.39,326.55 444.31,327.08C445.17,327.58 445.98,328.09 446.74,328.62C447.45,329.12 448.11,329.63 448.72,330.16C449.29,330.66 449.82,331.17 450.31,331.7C450.78,332.2 451.21,332.72 451.61,333.25C451.99,333.75 452.34,334.27 452.66,334.79C452.97,335.3 453.26,335.81 453.52,336.33C453.78,336.84 454.01,337.35 454.22,337.87C454.43,338.38 454.61,338.89 454.77,339.41C454.93,339.92 455.07,340.43 455.19,340.95C455.31,341.46 455.4,341.98 455.48,342.49Q455.56,343 455.66,344.03L455.87,344.03" style="vector-effect: non-scaling-stroke; stroke-width: 2px; stroke: rgb(0, 0, 255); stroke-opacity: 1; fill: rgb(0, 0, 255); fill-opacity: 0.5;"/><path class="violin" d="M563.13,215.94L563.01,215.94Q562.95,217.75 562.9,218.65C562.85,219.55 562.79,220.46 562.71,221.36C562.63,222.26 562.54,223.17 562.41,224.07C562.28,224.98 562.14,225.88 561.95,226.78C561.76,227.69 561.55,228.59 561.29,229.49C561.02,230.4 560.71,231.3 560.35,232.19C559.98,233.1 559.56,234.01 559.09,234.9C558.61,235.81 558.07,236.71 557.52,237.61C556.96,238.52 556.34,239.42 555.75,240.32C555.17,241.22 554.55,242.12 554.01,243.03C553.48,243.92 552.95,244.82 552.55,245.74C552.16,246.63 551.82,247.54 551.61,248.45C551.41,249.34 551.31,250.26 551.3,251.16C551.29,252.06 551.41,252.97 551.56,253.87C551.71,254.78 551.96,255.68 552.19,256.58C552.42,257.49 552.71,258.38 552.94,259.29C553.16,260.19 553.4,261.09 553.54,262C553.68,262.9 553.78,263.81 553.78,264.71C553.78,265.61 553.69,266.52 553.54,267.42C553.38,268.33 553.13,269.24 552.84,270.13C552.54,271.04 552.15,271.94 551.78,272.84C551.41,273.75 550.98,274.64 550.64,275.55C550.31,276.45 549.95,277.35 549.76,278.26C549.57,279.15 549.45,280.07 549.5,280.97C549.55,281.88 549.77,282.8 550.09,283.68C550.43,284.61 550.97,285.51 551.54,286.39C552.14,287.32 552.89,288.21 553.61,289.1C554.35,290.01 555.18,290.9 555.94,291.81C556.69,292.71 557.47,293.6 558.15,294.52C558.81,295.41 559.45,296.31 559.98,297.23C560.49,298.12 560.94,299.02 561.31,299.94C561.67,300.83 561.94,301.74 562.17,302.65Q562.39,303.55 562.67,305.36L563.13,305.36" style="vector-effect: non-scaling-stroke; stroke-width: 2px; stroke: rgb(0, 0, 255); stroke-opacity: 1; fill: rgb(0, 0, 255); fill-opacity: 0.5;"/><path class="violin" d="M670.39,278.28L670.26,278.28Q670.2,279.88 670.15,280.68C670.1,281.48 670.04,282.27 669.97,283.07C669.9,283.87 669.81,284.67 669.72,285.47C669.63,286.27 669.52,287.06 669.41,287.86C669.29,288.66 669.17,289.46 669.03,290.26C668.89,291.06 668.74,291.85 668.57,292.65C668.4,293.45 668.23,294.25 668.02,295.05C667.81,295.85 667.57,296.65 667.31,297.44C667.04,298.24 666.75,299.05 666.42,299.84C666.09,300.64 665.72,301.44 665.32,302.23C664.92,303.04 664.47,303.83 664.02,304.63C663.57,305.43 663.08,306.22 662.62,307.02C662.16,307.82 661.67,308.61 661.24,309.42C660.82,310.21 660.39,311 660.06,311.81C659.74,312.6 659.45,313.39 659.26,314.2C659.07,314.99 658.96,315.8 658.91,316.6C658.86,317.4 658.91,318.19 658.96,318.99C659.01,319.79 659.15,320.59 659.22,321.39C659.29,322.19 659.4,322.98 659.37,323.78C659.34,324.58 659.26,325.39 659.06,326.18C658.85,326.99 658.52,327.79 658.12,328.57C657.7,329.39 657.12,330.18 656.57,330.97C656,331.78 655.32,332.55 654.75,333.36C654.19,334.15 653.56,334.93 653.16,335.76C652.78,336.53 652.43,337.34 652.36,338.15C652.29,338.94 652.43,339.78 652.72,340.55C653.04,341.38 653.66,342.18 654.3,342.94C655.01,343.78 655.94,344.56 656.84,345.34C657.79,346.16 658.86,346.93 659.87,347.73C660.87,348.53 661.92,349.3 662.87,350.12C663.78,350.9 664.68,351.69 665.46,352.52C666.19,353.29 666.87,354.09 667.43,354.91C667.96,355.69 668.4,356.49 668.76,357.31C669.11,358.09 669.36,358.89 669.57,359.7Q669.78,360.49 670.02,362.1L670.39,362.1" style="vector-effect: non-scaling-stroke; stroke-width: 2px; stroke: rgb(0, 0, 255); stroke-opacity: 1; fill: rgb(0, 0, 255); fill-opacity: 0.5;"/><path class="violin" d="M777.66,214.53L777.42,214.53Q777.29,215.62 777.2,216.17C777.1,216.72 776.99,217.27 776.85,217.82C776.71,218.37 776.55,218.92 776.36,219.47C776.17,220.02 775.95,220.56 775.73,221.11C775.5,221.66 775.26,222.21 775.01,222.76C774.76,223.31 774.5,223.86 774.23,224.41C773.96,224.96 773.69,225.51 773.41,226.05C773.12,226.6 772.83,227.16 772.51,227.7C772.18,228.25 771.85,228.8 771.47,229.34C771.08,229.9 770.67,230.45 770.21,230.99C769.73,231.55 769.21,232.1 768.65,232.64C768.07,233.2 767.44,233.74 766.78,234.28C766.09,234.84 765.35,235.39 764.59,235.93C763.8,236.49 762.97,237.03 762.13,237.57C761.27,238.13 760.37,238.67 759.49,239.22C758.61,239.77 757.7,240.31 756.86,240.87C756.05,241.41 755.22,241.93 754.52,242.51C753.89,243.03 753.23,243.56 752.83,244.16C752.49,244.68 752.18,245.26 752.17,245.81C752.16,246.36 752.41,246.94 752.74,247.45C753.13,248.05 753.82,248.58 754.48,249.1C755.22,249.68 756.14,250.2 757,250.74C757.89,251.3 758.85,251.83 759.73,252.39C760.57,252.93 761.42,253.46 762.15,254.04C762.81,254.56 763.43,255.1 763.94,255.68C764.41,256.21 764.78,256.77 765.12,257.33C765.45,257.87 765.68,258.43 765.96,258.98C766.24,259.53 766.49,260.08 766.81,260.62C767.14,261.18 767.51,261.73 767.91,262.27C768.33,262.83 768.81,263.37 769.29,263.91C769.78,264.47 770.32,265.01 770.83,265.56C771.34,266.11 771.86,266.65 772.33,267.21C772.79,267.75 773.24,268.29 773.63,268.85C774.01,269.39 774.35,269.94 774.66,270.5C774.96,271.04 775.22,271.6 775.45,272.15C775.68,272.69 775.87,273.24 776.05,273.79C776.23,274.34 776.39,274.89 776.54,275.44C776.68,275.99 776.81,276.53 776.92,277.08C777.03,277.63 777.12,278.18 777.2,278.73C777.28,279.28 777.35,279.83 777.4,280.38C777.45,280.93 777.49,281.47 777.51,282.02C777.54,282.57 777.55,283.12 777.55,283.67C777.55,284.22 777.55,284.77 777.53,285.32C777.51,285.87 777.49,286.41 777.45,286.96C777.41,287.51 777.36,288.06 777.3,288.61C777.24,289.16 777.16,289.7 777.08,290.25C777,290.8 776.91,291.35 776.83,291.9C776.75,292.45 776.65,293 776.58,293.55C776.51,294.1 776.45,294.64 776.41,295.19C776.37,295.74 776.35,296.29 776.35,296.84C776.35,297.39 776.38,297.94 776.43,298.49C776.47,299.04 776.55,299.58 776.62,300.13C776.7,300.68 776.79,301.23 776.88,301.78C776.96,302.33 777.06,302.87 777.13,303.42C777.21,303.97 777.27,304.52 777.33,305.07Q777.39,305.62 777.48,306.72L777.66,306.72" style="vector-effect: non-scaling-stroke; stroke-width: 2px; stroke: rgb(0, 0, 255); stroke-opacity: 1; fill: rgb(0, 0, 255); fill-opacity: 0.5;"/><path class="violin" d="M884.92,278.33L884.79,278.33Q884.72,279.93 884.67,280.73C884.62,281.53 884.56,282.32 884.49,283.12C884.42,283.92 884.33,284.71 884.23,285.51C884.13,286.31 884.02,287.1 883.89,287.9C883.76,288.7 883.62,289.49 883.47,290.29C883.32,291.09 883.16,291.89 882.97,292.69C882.78,293.49 882.58,294.29 882.35,295.08C882.12,295.88 881.86,296.68 881.58,297.47C881.29,298.27 880.98,299.07 880.63,299.86C880.28,300.66 879.89,301.46 879.49,302.25C879.08,303.05 878.63,303.84 878.19,304.64C877.74,305.44 877.27,306.24 876.82,307.04C876.37,307.84 875.91,308.63 875.51,309.43C875.12,310.22 874.73,311.01 874.44,311.82C874.15,312.61 873.91,313.41 873.76,314.21C873.61,315 873.54,315.8 873.52,316.6C873.5,317.4 873.59,318.2 873.66,319C873.73,319.8 873.87,320.59 873.94,321.39C874,322.19 874.09,322.99 874.05,323.78C874.01,324.58 873.9,325.39 873.68,326.17C873.45,326.98 873.08,327.78 872.66,328.56C872.22,329.38 871.63,330.16 871.07,330.95C870.5,331.76 869.81,332.54 869.25,333.35C868.7,334.14 868.11,334.92 867.73,335.74C867.38,336.51 867.06,337.33 867.02,338.13C866.98,338.92 867.15,339.76 867.46,340.52C867.8,341.35 868.44,342.15 869.09,342.91C869.81,343.75 870.73,344.53 871.63,345.31C872.57,346.13 873.63,346.9 874.62,347.7C875.61,348.5 876.64,349.27 877.57,350.09C878.46,350.87 879.33,351.66 880.09,352.48C880.8,353.25 881.46,354.05 882.01,354.87C882.53,355.64 882.96,356.45 883.31,357.26C883.65,358.04 883.9,358.85 884.11,359.66Q884.31,360.45 884.54,362.05L884.92,362.05" style="vector-effect: non-scaling-stroke; stroke-width: 2px; stroke: rgb(0, 0, 255); stroke-opacity: 1; fill: rgb(0, 0, 255); fill-opacity: 0.5;"/><path class="violin" d="M992.18,214.34L991.95,214.34Q991.82,215.46 991.72,216.02C991.62,216.58 991.51,217.14 991.37,217.69C991.23,218.25 991.06,218.81 990.87,219.36C990.68,219.92 990.47,220.48 990.24,221.04C990.01,221.6 989.76,222.15 989.51,222.71C989.26,223.27 989,223.82 988.73,224.38C988.46,224.94 988.19,225.5 987.9,226.05C987.61,226.61 987.31,227.18 986.99,227.73C986.66,228.29 986.32,228.85 985.94,229.4C985.54,229.97 985.11,230.52 984.65,231.07C984.16,231.64 983.64,232.2 983.08,232.75C982.49,233.32 981.86,233.88 981.2,234.42C980.51,234.99 979.76,235.54 979,236.09C978.21,236.66 977.38,237.22 976.54,237.77C975.68,238.34 974.77,238.88 973.89,239.44C973.01,240 972.09,240.54 971.24,241.11C970.43,241.65 969.6,242.19 968.92,242.78C968.31,243.31 967.67,243.86 967.31,244.46C967,244.98 966.76,245.58 966.79,246.13C966.82,246.69 967.16,247.28 967.54,247.8C967.99,248.41 968.73,248.95 969.44,249.48C970.22,250.07 971.16,250.6 972.04,251.15C972.93,251.71 973.89,252.24 974.74,252.82C975.54,253.36 976.34,253.91 977.02,254.5C977.64,255.03 978.19,255.59 978.66,256.17C979.09,256.71 979.43,257.28 979.76,257.84C980.08,258.39 980.33,258.96 980.64,259.51C980.95,260.07 981.26,260.64 981.63,261.19C982.01,261.76 982.44,262.31 982.9,262.86C983.37,263.43 983.91,263.97 984.42,264.53C984.94,265.09 985.49,265.65 986,266.21C986.5,266.76 987,267.31 987.45,267.88C987.88,268.43 988.29,268.98 988.65,269.55C989,270.1 989.31,270.66 989.59,271.23C989.86,271.78 990.09,272.34 990.3,272.9C990.51,273.45 990.68,274.01 990.85,274.57C991.01,275.12 991.16,275.68 991.29,276.24C991.42,276.8 991.53,277.36 991.62,277.92C991.71,278.48 991.79,279.03 991.85,279.59C991.91,280.15 991.97,280.7 992,281.26C992.04,281.82 992.05,282.38 992.06,282.94C992.07,283.5 992.07,284.05 992.06,284.61C992.05,285.17 992.02,285.72 991.99,286.28C991.95,286.84 991.91,287.4 991.85,287.96C991.79,288.52 991.72,289.07 991.64,289.63C991.56,290.19 991.47,290.74 991.39,291.3C991.31,291.86 991.21,292.41 991.14,292.97C991.07,293.53 990.99,294.09 990.95,294.65C990.91,295.21 990.88,295.76 990.88,296.32C990.88,296.88 990.91,297.43 990.95,297.99C990.99,298.55 991.07,299.11 991.14,299.67C991.21,300.23 991.31,300.78 991.39,301.34C991.48,301.9 991.57,302.45 991.65,303.01C991.73,303.57 991.8,304.13 991.86,304.69Q991.92,305.25 992.01,306.36L992.18,306.36" style="vector-effect: non-scaling-stroke; stroke-width: 2px; stroke: rgb(0, 0, 255); stroke-opacity: 1; fill: rgb(0, 0, 255); fill-opacity: 0.5;"/><path class="meanline" d="M22.611717224121094,350.96H26.82" style="fill: none; vector-effect: non-scaling-stroke; stroke-width: 2px; stroke-dasharray: 4px, 2px; stroke: rgb(0, 0, 255); stroke-opacity: 1;"/><path class="meanline" d="M129.2364959716797,490.5H134.08" style="fill: none; vector-effect: non-scaling-stroke; stroke-width: 2px; stroke-dasharray: 4px, 2px; stroke: rgb(0, 0, 255); stroke-opacity: 1;"/><path class="meanline" d="M230.09678649902344,286.95H241.34" style="fill: none; vector-effect: non-scaling-stroke; stroke-width: 2px; stroke-dasharray: 4px, 2px; stroke: rgb(0, 0, 255); stroke-opacity: 1;"/><path class="meanline" d="M339.8536682128906,204.35H348.61" style="fill: none; vector-effect: non-scaling-stroke; stroke-width: 2px; stroke-dasharray: 4px, 2px; stroke: rgb(0, 0, 255); stroke-opacity: 1;"/><path class="meanline" d="M433.3078918457031,313.26H455.87" style="fill: none; vector-effect: non-scaling-stroke; stroke-width: 2px; stroke-dasharray: 4px, 2px; stroke: rgb(0, 0, 255); stroke-opacity: 1;"/><path class="meanline" d="M553.739501953125,265.78H563.13" style="fill: none; vector-effect: non-scaling-stroke; stroke-width: 2px; stroke-dasharray: 4px, 2px; stroke: rgb(0, 0, 255); stroke-opacity: 1;"/><path class="meanline" d="M658.4022827148438,327.99H670.39" style="fill: none; vector-effect: non-scaling-stroke; stroke-width: 2px; stroke-dasharray: 4px, 2px; stroke: rgb(0, 0, 255); stroke-opacity: 1;"/><path class="meanline" d="M753.4927368164062,248.29H777.66" style="fill: none; vector-effect: non-scaling-stroke; stroke-width: 2px; stroke-dasharray: 4px, 2px; stroke: rgb(0, 0, 255); stroke-opacity: 1;"/><path class="meanline" d="M873.113525390625,327.66H884.92" style="fill: none; vector-effect: non-scaling-stroke; stroke-width: 2px; stroke-dasharray: 4px, 2px; stroke: rgb(0, 0, 255); stroke-opacity: 1;"/><path class="meanline" d="M967.9619140625,248.28H992.18" style="fill: none; vector-effect: non-scaling-stroke; stroke-width: 2px; stroke-dasharray: 4px, 2px; stroke: rgb(0, 0, 255); stroke-opacity: 1;"/><g class="points"/><g class="points"><path class="point" transform="translate(134.08,366.59)" d="M3,0A3,3 0 1,1 0,-3A3,3 0 0,1 3,0Z" style="opacity: 1; stroke-width: 0px; fill: rgb(0, 0, 255); fill-opacity: 1;"/><path class="point" transform="translate(134.08,348.05)" d="M3,0A3,3 0 1,1 0,-3A3,3 0 0,1 3,0Z" style="opacity: 1; stroke-width: 0px; fill: rgb(0, 0, 255); fill-opacity: 1;"/></g><g class="points"><path class="point" transform="translate(241.34,233.67)" d="M3,0A3,3 0 1,1 0,-3A3,3 0 0,1 3,0Z" style="opacity: 1; stroke-width: 0px; fill: rgb(0, 0, 255); fill-opacity: 1;"/></g><g class="points"/><g class="points"><path class="point" transform="translate(455.87,285.51)" d="M3,0A3,3 0 1,1 0,-3A3,3 0 0,1 3,0Z" style="opacity: 1; stroke-width: 0px; fill: rgb(0, 0, 255); fill-opacity: 1;"/></g><g class="points"/><g class="points"/><g class="points"><path class="point" transform="translate(777.66,296.69)" d="M3,0A3,3 0 1,1 0,-3A3,3 0 0,1 3,0Z" style="opacity: 1; stroke-width: 0px; fill: rgb(0, 0, 255); fill-opacity: 1;"/></g><g class="points"/><g class="points"><path class="point" transform="translate(992.18,296.3)" d="M3,0A3,3 0 1,1 0,-3A3,3 0 0,1 3,0Z" style="opacity: 1; stroke-width: 0px; fill: rgb(0, 0, 255); fill-opacity: 1;"/></g></g></g></g><g class="overplot"/><path class="xlines-above crisp" style="fill: none; stroke-width: 1px; stroke: rgb(255, 255, 255); stroke-opacity: 1;" d="M79,701.5H1099"/><path class="ylines-above crisp" style="fill: none; stroke-width: 1px; stroke: rgb(255, 255, 255); stroke-opacity: 1;" d="M79.5,100V701"/><g class="overlines-above"/><g class="xaxislayer-above"><g class="xtick"><text text-anchor="start" x="0" y="718.8" transform="translate(106.82,0) rotate(30,0,711.8)" style="font-family: 'Open Sans', verdana, arial, sans-serif; font-size: 14px; fill: rgb(42, 63, 95); fill-opacity: 1; white-space: pre;">baseline_s</text></g><g class="xtick"><text text-anchor="start" x="0" y="718.8" transform="translate(214.08,0) rotate(30,0,711.8)" style="font-family: 'Open Sans', verdana, arial, sans-serif; font-size: 14px; fill: rgb(42, 63, 95); fill-opacity: 1; white-space: pre;">baseline_i</text></g><g class="xtick"><text text-anchor="start" x="0" y="718.8" transform="translate(321.34000000000003,0) rotate(30,0,711.8)" style="font-family: 'Open Sans', verdana, arial, sans-serif; font-size: 14px; fill: rgb(42, 63, 95); fill-opacity: 1; white-space: pre;">sign_s</text></g><g class="xtick"><text text-anchor="start" x="0" y="718.8" transform="translate(428.61,0) rotate(30,0,711.8)" style="font-family: 'Open Sans', verdana, arial, sans-serif; font-size: 14px; fill: rgb(42, 63, 95); fill-opacity: 1; white-space: pre;">sign_i</text></g><g class="xtick"><text text-anchor="start" x="0" y="718.8" transform="translate(535.87,0) rotate(30,0,711.8)" style="font-family: 'Open Sans', verdana, arial, sans-serif; font-size: 14px; fill: rgb(42, 63, 95); fill-opacity: 1; white-space: pre;">weighted_delta_s</text></g><g class="xtick"><text text-anchor="start" x="0" y="718.8" transform="translate(643.13,0) rotate(30,0,711.8)" style="font-family: 'Open Sans', verdana, arial, sans-serif; font-size: 14px; fill: rgb(42, 63, 95); fill-opacity: 1; white-space: pre;">weighted_delta_i</text></g><g class="xtick"><text text-anchor="start" x="0" y="718.8" transform="translate(750.39,0) rotate(30,0,711.8)" style="font-family: 'Open Sans', verdana, arial, sans-serif; font-size: 14px; fill: rgb(42, 63, 95); fill-opacity: 1; white-space: pre;">weighted_ask_er_s</text></g><g class="xtick"><text text-anchor="start" x="0" y="718.8" transform="translate(857.66,0) rotate(30,0,711.8)" style="font-family: 'Open Sans', verdana, arial, sans-serif; font-size: 14px; fill: rgb(42, 63, 95); fill-opacity: 1; white-space: pre;">weighted_ask_er_i</text></g><g class="xtick"><text text-anchor="start" x="0" y="718.8" transform="translate(964.92,0) rotate(30,0,711.8)" style="font-family: 'Open Sans', verdana, arial, sans-serif; font-size: 14px; fill: rgb(42, 63, 95); fill-opacity: 1; white-space: pre;">weighted_bid_er_s</text></g><g class="xtick"><text text-anchor="start" x="0" y="718.8" transform="translate(1072.1799999999998,0) rotate(30,0,711.8)" style="font-family: 'Open Sans', verdana, arial, sans-serif; font-size: 14px; fill: rgb(42, 63, 95); fill-opacity: 1; white-space: pre;">weighted_bid_er_i</text></g></g><g class="yaxislayer-above"><g class="ytick"><text text-anchor="end" x="76.2" y="4.8999999999999995" transform="translate(0,690.92)" style="font-family: 'Open Sans', verdana, arial, sans-serif; font-size: 14px; fill: rgb(42, 63, 95); fill-opacity: 1; white-space: pre;">0.8</text></g><g class="ytick"><text text-anchor="end" x="76.2" y="4.8999999999999995" transform="translate(0,613.85)" style="font-family: 'Open Sans', verdana, arial, sans-serif; font-size: 14px; fill: rgb(42, 63, 95); fill-opacity: 1; white-space: pre;">0.6</text></g><g class="ytick"><text text-anchor="end" x="76.2" y="4.8999999999999995" transform="translate(0,536.79)" style="font-family: 'Open Sans', verdana, arial, sans-serif; font-size: 14px; fill: rgb(42, 63, 95); fill-opacity: 1; white-space: pre;">0.4</text></g><g class="ytick"><text text-anchor="end" x="76.2" y="4.8999999999999995" transform="translate(0,459.73)" style="font-family: 'Open Sans', verdana, arial, sans-serif; font-size: 14px; fill: rgb(42, 63, 95); fill-opacity: 1; white-space: pre;">0.2</text></g><g class="ytick"><text text-anchor="end" x="76.2" y="4.8999999999999995" transform="translate(0,382.67)" style="font-family: 'Open Sans', verdana, arial, sans-serif; font-size: 14px; fill: rgb(42, 63, 95); fill-opacity: 1; white-space: pre;">0</text></g><g class="ytick"><text text-anchor="end" x="76.2" y="4.8999999999999995" transform="translate(0,305.6)" style="font-family: 'Open Sans', verdana, arial, sans-serif; font-size: 14px; fill: rgb(42, 63, 95); fill-opacity: 1; white-space: pre;">0.2</text></g><g class="ytick"><text text-anchor="end" x="76.2" y="4.8999999999999995" transform="translate(0,228.54)" style="font-family: 'Open Sans', verdana, arial, sans-serif; font-size: 14px; fill: rgb(42, 63, 95); fill-opacity: 1; white-space: pre;">0.4</text></g><g class="ytick"><text text-anchor="end" x="76.2" y="4.8999999999999995" transform="translate(0,151.48)" style="font-family: 'Open Sans', verdana, arial, sans-serif; font-size: 14px; fill: rgb(42, 63, 95); fill-opacity: 1; white-space: pre;">0.6</text></g></g><g class="overaxes-above"/></g></g><g class="polarlayer"/><g class="ternarylayer"/><g class="geolayer"/><g class="funnelarealayer"/><g class="pielayer"/><g class="treemaplayer"/><g class="sunburstlayer"/><g class="glimages"/><defs id="topdefs-1effc0"><g class="clips"/><clipPath id="legend1effc0"><rect width="69" height="53" x="0" y="0"/></clipPath></defs><g class="layer-above"><g class="imagelayer"/><g class="shapelayer"/></g><g class="infolayer"><g class="legend" pointer-events="all" transform="translate(1119.38, 100)"><rect class="bg" shape-rendering="crispEdges" style="stroke: rgb(68, 68, 68); stroke-opacity: 1; fill: rgb(255, 255, 255); fill-opacity: 1; stroke-width: 0px;" width="69" height="53" x="0" y="0"/><g class="scrollbox" transform="translate(0, 0)" clip-path="url('#legend1effc0')"><g class="groups"><g class="traces" style="opacity: 1;" transform="translate(0, 15.6)"><text class="legendtext user-select-none" text-anchor="start" x="40" y="5.46" style="font-family: 'Open Sans', verdana, arial, sans-serif; font-size: 14px; fill: rgb(42, 63, 95); fill-opacity: 1; white-space: pre;">call</text><g class="layers" style="opacity: 1;"><g class="legendfill"/><g class="legendlines"/><g class="legendsymbols"><g class="legendpoints"><path class="legendbox" d="M6,6H-6V-6H6Z" transform="translate(20,0)" style="stroke-width: 2px; fill: rgb(255, 165, 0); fill-opacity: 0.5; stroke: rgb(255, 165, 0); stroke-opacity: 1;"/></g></g></g><rect class="legendtoggle" pointer-events="all" x="0" y="-10.6" width="63.390995025634766" height="21.2" style="cursor: pointer; fill: rgb(0, 0, 0); fill-opacity: 0;"/></g><g class="traces" style="opacity: 1;" transform="translate(0, 36.8)"><text class="legendtext user-select-none" text-anchor="start" x="40" y="5.46" style="font-family: 'Open Sans', verdana, arial, sans-serif; font-size: 14px; fill: rgb(42, 63, 95); fill-opacity: 1; white-space: pre;">put</text><g class="layers" style="opacity: 1;"><g class="legendfill"/><g class="legendlines"/><g class="legendsymbols"><g class="legendpoints"><path class="legendbox" d="M6,6H-6V-6H6Z" transform="translate(20,0)" style="stroke-width: 2px; fill: rgb(0, 0, 255); fill-opacity: 0.5; stroke: rgb(0, 0, 255); stroke-opacity: 1;"/></g></g></g><rect class="legendtoggle" pointer-events="all" x="0" y="-10.6" width="63.390995025634766" height="21.2" style="cursor: pointer; fill: rgb(0, 0, 0); fill-opacity: 0;"/></g></g></g><rect class="scrollbar" rx="20" ry="3" width="0" height="0" style="fill: rgb(128, 139, 164); fill-opacity: 1;" x="0" y="0"/></g><g class="g-gtitle"><text class="gtitle" x="60" y="50" text-anchor="start" dy="0em" style="font-family: 'Open Sans', verdana, arial, sans-serif; font-size: 20px; fill: rgb(42, 63, 95); opacity: 1; font-weight: normal; white-space: pre;">Kendall Tau Correlation Distributions of Various Metrics</text></g><g class="g-xtitle"/><g class="g-ytitle" transform="translate(2.2138671875,0)"><text class="ytitle" transform="rotate(-90,14.942773437499994,400.5)" x="14.942773437499994" y="400.5" text-anchor="middle" style="font-family: 'Open Sans', verdana, arial, sans-serif; font-size: 17px; fill: rgb(42, 63, 95); opacity: 1; font-weight: normal; white-space: pre;">Kendall Tau Correlation</text></g></g></svg>