<svg class="main-svg" xmlns="http://www.w3.org/2000/svg" xmlns:xlink="http://www.w3.org/1999/xlink" width="1200" height="800" style="" viewBox="0 0 1200 800"><rect x="0" y="0" width="1200" height="800" style="fill: rgb(255, 255, 255); fill-opacity: 1;"/><defs id="defs-c8697f"><g class="clips"><clipPath id="clipc8697fxyplot" class="plotclip"><rect width="1019" height="601"/></clipPath><clipPath class="axesclip" id="clipc8697fx"><rect x="80" y="0" width="1019" height="800"/></clipPath><clipPath class="axesclip" id="clipc8697fy"><rect x="0" y="100" width="1200" height="601"/></clipPath><clipPath class="axesclip" id="clipc8697fxy"><rect x="80" y="100" width="1019" height="601"/></clipPath></g><g class="gradients"/></defs><g class="bglayer"><rect class="bg" x="80" y="100" width="1019" height="601" style="fill: rgb(229, 236, 246); fill-opacity: 1; stroke-width: 0;"/></g><g class="layer-below"><g class="imagelayer"/><g class="shapelayer"/></g><g class="cartesianlayer"><g class="subplot xy"><g class="layer-subplot"><g class="shapelayer"/><g class="imagelayer"/></g><g class="gridlayer"><g class="x"><path class="xgrid crisp" transform="translate(106.82,0)" d="M0,100v601" style="stroke: rgb(255, 255, 255); stroke-opacity: 1; stroke-width: 1px;"/><path class="xgrid crisp" transform="translate(214.08,0)" d="M0,100v601" style="stroke: rgb(255, 255, 255); stroke-opacity: 1; stroke-width: 1px;"/><path class="xgrid crisp" transform="translate(321.34000000000003,0)" d="M0,100v601" style="stroke: rgb(255, 255, 255); stroke-opacity: 1; stroke-width: 1px;"/><path class="xgrid crisp" transform="translate(428.61,0)" d="M0,100v601" style="stroke: rgb(255, 255, 255); stroke-opacity: 1; stroke-width: 1px;"/><path class="xgrid crisp" transform="translate(535.87,0)" d="M0,100v601" style="stroke: rgb(255, 255, 255); stroke-opacity: 1; stroke-width: 1px;"/><path class="xgrid crisp" transform="translate(643.13,0)" d="M0,100v601" style="stroke: rgb(255, 255, 255); stroke-opacity: 1; stroke-width: 1px;"/><path class="xgrid crisp" transform="translate(750.39,0)" d="M0,100v601" style="stroke: rgb(255, 255, 255); stroke-opacity: 1; stroke-width: 1px;"/><path class="xgrid crisp" transform="translate(857.66,0)" d="M0,100v601" style="stroke: rgb(255, 255, 255); stroke-opacity: 1; stroke-width: 1px;"/><path class="xgrid crisp" transform="translate(964.92,0)" d="M0,100v601" style="stroke: rgb(255, 255, 255); stroke-opacity: 1; stroke-width: 1px;"/><path class="xgrid crisp" transform="translate(1072.1799999999998,0)" d="M0,100v601" style="stroke: rgb(255, 255, 255); stroke-opacity: 1; stroke-width: 1px;"/></g><g class="y"><path class="ygrid crisp" transform="translate(0,626.58)" d="M80,0h1019" style="stroke: rgb(255, 255, 255); stroke-opacity: 1; stroke-width: 1px;"/><path class="ygrid crisp" transform="translate(0,552.14)" d="M80,0h1019" style="stroke: rgb(255, 255, 255); stroke-opacity: 1; stroke-width: 1px;"/><path class="ygrid crisp" transform="translate(0,477.69)" d="M80,0h1019" style="stroke: rgb(255, 255, 255); stroke-opacity: 1; stroke-width: 1px;"/><path class="ygrid crisp" transform="translate(0,403.25)" d="M80,0h1019" style="stroke: rgb(255, 255, 255); stroke-opacity: 1; stroke-width: 1px;"/><path class="ygrid crisp" transform="translate(0,254.37)" d="M80,0h1019" style="stroke: rgb(255, 255, 255); stroke-opacity: 1; stroke-width: 1px;"/><path class="ygrid crisp" transform="translate(0,179.92000000000002)" d="M80,0h1019" style="stroke: rgb(255, 255, 255); stroke-opacity: 1; stroke-width: 1px;"/><path class="ygrid crisp" transform="translate(0,105.48)" d="M80,0h1019" style="stroke: rgb(255, 255, 255); stroke-opacity: 1; stroke-width: 1px;"/></g></g><g class="zerolinelayer"><path class="yzl zl crisp" transform="translate(0,328.81)" d="M80,0h1019" style="stroke: rgb(255, 255, 255); stroke-opacity: 1; stroke-width: 2px;"/></g><path class="xlines-below"/><path class="ylines-below"/><g class="overlines-below"/><g class="xaxislayer-below"/><g class="yaxislayer-below"/><g class="overaxes-below"/><g class="plot" transform="translate(80, 100)" clip-path="url('#clipc8697fxyplot')"><g class="violinlayer mlayer"><g class="trace violins" style="opacity: 1;"><path class="violin" d="M26.82,287.26L27.78,287.26Q28.3,284.16 28.68,282.63C29.07,281.08 29.54,279.53 30.1,278.01C30.67,276.45 31.35,274.92 32.09,273.39C32.84,271.83 33.71,270.29 34.58,268.76C35.46,267.21 36.43,265.69 37.33,264.14C38.23,262.6 39.17,261.07 39.97,259.51C40.76,257.99 41.53,256.45 42.11,254.89C42.67,253.37 43.14,251.82 43.41,250.26C43.67,248.73 43.77,247.18 43.71,245.64C43.65,244.09 43.39,242.54 43.04,241.01C42.69,239.45 42.14,237.92 41.59,236.39C41.03,234.84 40.33,233.3 39.68,231.76C39.03,230.22 38.3,228.69 37.67,227.14C37.04,225.6 36.41,224.07 35.9,222.51C35.4,220.98 34.96,219.44 34.64,217.89C34.33,216.36 34.12,214.81 34.01,213.27C33.9,211.73 33.91,210.18 33.95,208.64C33.99,207.1 34.15,205.56 34.25,204.02C34.35,202.48 34.5,200.93 34.54,199.39C34.58,197.85 34.59,196.31 34.49,194.77C34.39,193.22 34.19,191.68 33.92,190.14C33.65,188.59 33.25,187.05 32.85,185.52C32.44,183.97 31.95,182.43 31.49,180.89C31.03,179.35 30.52,177.82 30.09,176.27C29.66,174.73 29.25,173.19 28.9,171.64C28.56,170.1 28.25,168.56 28.01,167.02Q27.77,165.48 27.44,162.39L26.82,162.39" style="vector-effect: non-scaling-stroke; stroke-width: 2px; stroke: rgb(255, 165, 0); stroke-opacity: 1; fill: rgb(255, 165, 0); fill-opacity: 0.5;"/><path class="violin" d="M134.08,90.82L134.87,90.82Q135.33,89.49 135.68,88.86C136.05,88.19 136.51,87.52 137.06,86.9C137.66,86.21 138.4,85.56 139.2,84.94C140.1,84.25 141.14,83.6 142.23,82.98C143.44,82.29 144.78,81.65 146.16,81.02C147.63,80.34 149.23,79.7 150.81,79.06C152.44,78.4 154.15,77.76 155.78,77.1C157.38,76.45 159.03,75.82 160.52,75.14C161.89,74.51 163.27,73.89 164.39,73.18C165.35,72.57 166.31,71.95 166.9,71.22C167.39,70.62 167.78,69.93 167.87,69.26C167.96,68.62 167.75,67.93 167.51,67.3C167.25,66.62 166.76,65.98 166.33,65.34C165.89,64.68 165.35,64.04 164.89,63.38C164.44,62.73 163.99,62.08 163.58,61.42C163.18,60.77 162.83,60.11 162.46,59.45C162.09,58.8 161.77,58.14 161.38,57.49C160.98,56.83 160.58,56.17 160.1,55.53C159.6,54.86 159.03,54.21 158.41,53.57C157.76,52.9 157.03,52.25 156.27,51.61C155.47,50.94 154.59,50.29 153.71,49.65C152.8,48.99 151.84,48.34 150.89,47.69C149.93,47.03 148.95,46.39 147.99,45.73C147.05,45.08 146.1,44.43 145.19,43.77C144.31,43.13 143.44,42.48 142.62,41.81C141.83,41.17 141.07,40.52 140.37,39.85C139.7,39.21 139.06,38.56 138.48,37.89C137.93,37.25 137.42,36.6 136.98,35.93C136.56,35.29 136.18,34.64 135.86,33.97C135.55,33.33 135.3,32.67 135.09,32.01Q134.88,31.36 134.61,30.05L134.08,30.05" style="vector-effect: non-scaling-stroke; stroke-width: 2px; stroke: rgb(255, 165, 0); stroke-opacity: 1; fill: rgb(255, 165, 0); fill-opacity: 0.5;"/><path class="violin" d="M241.34,284.27L241.91,284.27Q242.2,281.44 242.4,280.03C242.6,278.62 242.85,277.21 243.12,275.8C243.39,274.38 243.72,272.97 244.04,271.56C244.36,270.15 244.71,268.73 245.02,267.32C245.32,265.91 245.64,264.51 245.87,263.09C246.1,261.68 246.29,260.27 246.41,258.85C246.53,257.44 246.56,256.03 246.58,254.62C246.6,253.21 246.53,251.79 246.5,250.38C246.47,248.97 246.39,247.56 246.41,246.15C246.43,244.74 246.46,243.32 246.61,241.91C246.76,240.49 246.98,239.08 247.3,237.68C247.62,236.26 248.05,234.84 248.53,233.44C249.01,232.02 249.6,230.61 250.19,229.2C250.78,227.78 251.44,226.38 252.07,224.97C252.7,223.56 253.36,222.15 253.97,220.73C254.57,219.32 255.17,217.92 255.69,216.5C256.21,215.1 256.69,213.68 257.09,212.26C257.48,210.86 257.82,209.45 258.05,208.03C258.27,206.62 258.42,205.2 258.44,203.79C258.46,202.38 258.37,200.95 258.16,199.55C257.95,198.13 257.61,196.72 257.19,195.32C256.76,193.89 256.19,192.48 255.59,191.08C254.98,189.66 254.25,188.26 253.55,186.85C252.84,185.43 252.07,184.02 251.34,182.61C250.62,181.2 249.87,179.8 249.2,178.38C248.54,176.98 247.9,175.56 247.33,174.14C246.77,172.74 246.27,171.33 245.82,169.91C245.38,168.51 245,167.09 244.66,165.67C244.32,164.26 244.03,162.85 243.76,161.43C243.49,160.02 243.27,158.61 243.06,157.2C242.85,155.79 242.66,154.37 242.5,152.96C242.34,151.55 242.2,150.14 242.08,148.73C241.96,147.32 241.86,145.9 241.77,144.49Q241.69,143.08 241.57,140.26L241.34,140.26" style="vector-effect: non-scaling-stroke; stroke-width: 2px; stroke: rgb(255, 165, 0); stroke-opacity: 1; fill: rgb(255, 165, 0); fill-opacity: 0.5;"/><path class="violin" d="M348.61,492.31L348.79,492.31Q348.89,487.58 348.97,485.22C349.05,482.85 349.15,480.48 349.29,478.12C349.43,475.75 349.59,473.39 349.79,471.03C349.99,468.66 350.23,466.29 350.5,463.93C350.78,461.56 351.1,459.2 351.44,456.84C351.78,454.47 352.17,452.11 352.56,449.75C352.95,447.38 353.37,445.02 353.76,442.65C354.15,440.29 354.54,437.93 354.88,435.56C355.21,433.2 355.53,430.84 355.77,428.47C356.01,426.11 356.2,423.74 356.34,421.37C356.47,419.01 356.54,416.64 356.58,414.28C356.62,411.92 356.59,409.55 356.58,407.19C356.57,404.82 356.52,402.46 356.5,400.09C356.48,397.73 356.46,395.36 356.47,393C356.48,390.64 356.53,388.27 356.58,385.91C356.64,383.54 356.72,381.18 356.8,378.81C356.87,376.45 356.98,374.08 357.03,371.72C357.08,369.36 357.13,366.99 357.11,364.63C357.09,362.26 357.04,359.89 356.91,357.53C356.78,355.16 356.59,352.8 356.35,350.44C356.11,348.07 355.79,345.7 355.46,343.34C355.13,340.97 354.73,338.61 354.36,336.25C353.98,333.89 353.58,331.53 353.21,329.16C352.84,326.8 352.47,324.43 352.14,322.06C351.81,319.7 351.52,317.34 351.25,314.97C350.99,312.61 350.76,310.25 350.55,307.88C350.34,305.52 350.17,303.15 350.01,300.78C349.85,298.42 349.72,296.05 349.6,293.69C349.48,291.33 349.36,288.96 349.27,286.6C349.17,284.23 349.1,281.87 349.03,279.5C348.96,277.14 348.9,274.77 348.85,272.41Q348.8,270.05 348.74,265.32L348.61,265.32" style="vector-effect: non-scaling-stroke; stroke-width: 2px; stroke: rgb(255, 165, 0); stroke-opacity: 1; fill: rgb(255, 165, 0); fill-opacity: 0.5;"/><path class="violin" d="M455.87,260.91L456.32,260.91Q456.56,258.89 456.74,257.88C456.92,256.87 457.14,255.86 457.4,254.85C457.67,253.83 457.98,252.82 458.33,251.81C458.69,250.79 459.1,249.78 459.54,248.78C459.98,247.76 460.47,246.75 460.98,245.75C461.49,244.73 462.03,243.73 462.59,242.72C463.15,241.71 463.74,240.7 464.33,239.69C464.93,238.68 465.55,237.67 466.17,236.66C466.8,235.65 467.44,234.64 468.08,233.63C468.72,232.62 469.37,231.61 470,230.6C470.62,229.59 471.24,228.59 471.82,227.57C472.39,226.57 472.93,225.56 473.43,224.54C473.92,223.54 474.37,222.52 474.79,221.5C475.2,220.5 475.57,219.48 475.93,218.47C476.29,217.46 476.62,216.45 476.94,215.44C477.25,214.43 477.57,213.43 477.82,212.41C478.07,211.4 478.32,210.4 478.44,209.38C478.56,208.37 478.64,207.35 478.54,206.35C478.44,205.33 478.21,204.3 477.82,203.32C477.41,202.28 476.8,201.27 476.11,200.29C475.37,199.24 474.43,198.25 473.49,197.26C472.5,196.23 471.38,195.24 470.31,194.23C469.23,193.22 468.09,192.22 467.06,191.19C466.06,190.19 465.05,189.2 464.19,188.16C463.37,187.18 462.61,186.17 461.98,185.13C461.38,184.14 460.89,183.13 460.47,182.1C460.06,181.1 459.77,180.09 459.49,179.07C459.22,178.07 459.02,177.05 458.82,176.04C458.62,175.03 458.45,174.02 458.27,173.01C458.09,172 457.92,170.99 457.75,169.98C457.58,168.97 457.4,167.96 457.24,166.95C457.08,165.94 456.92,164.93 456.78,163.92C456.64,162.91 456.52,161.9 456.42,160.89Q456.32,159.88 456.17,157.85L455.87,157.85" style="vector-effect: non-scaling-stroke; stroke-width: 2px; stroke: rgb(255, 165, 0); stroke-opacity: 1; fill: rgb(255, 165, 0); fill-opacity: 0.5;"/><path class="violin" d="M563.13,360.44L563.48,360.44Q563.66,358.55 563.79,357.61C563.92,356.67 564.07,355.73 564.26,354.79C564.45,353.85 564.67,352.91 564.92,351.97C565.17,351.03 565.46,350.09 565.78,349.15C566.1,348.2 566.45,347.26 566.84,346.32C567.24,345.37 567.67,344.43 568.15,343.5C568.64,342.55 569.18,341.61 569.78,340.68C570.4,339.72 571.09,338.78 571.82,337.85C572.58,336.89 573.41,335.96 574.27,335.03C575.15,334.08 576.11,333.15 577.04,332.21C577.98,331.27 578.98,330.34 579.9,329.39C580.8,328.46 581.72,327.53 582.52,326.56C583.28,325.64 584.01,324.71 584.6,323.74C585.15,322.82 585.64,321.88 585.97,320.92C586.29,320 586.51,319.04 586.59,318.09C586.67,317.15 586.63,316.2 586.48,315.27C586.33,314.32 586.05,313.37 585.68,312.45C585.3,311.49 584.79,310.55 584.21,309.63C583.6,308.66 582.86,307.72 582.1,306.8C581.3,305.84 580.39,304.91 579.51,303.98C578.61,303.03 577.64,302.11 576.75,301.16C575.87,300.23 574.97,299.29 574.19,298.33C573.44,297.41 572.73,296.47 572.14,295.51C571.58,294.59 571.11,293.65 570.73,292.69C570.36,291.77 570.11,290.82 569.88,289.87C569.66,288.93 569.53,287.98 569.38,287.04C569.24,286.1 569.13,285.16 569.01,284.22C568.88,283.28 568.77,282.34 568.63,281.4C568.49,280.46 568.35,279.51 568.19,278.57C568.03,277.63 567.86,276.69 567.68,275.75C567.5,274.81 567.31,273.87 567.11,272.93C566.91,271.99 566.7,271.05 566.49,270.11C566.27,269.17 566.05,268.22 565.82,267.28C565.6,266.34 565.36,265.4 565.14,264.46C564.92,263.52 564.71,262.58 564.52,261.64C564.33,260.7 564.16,259.75 564.01,258.81C563.86,257.87 563.73,256.93 563.63,255.99C563.53,255.05 563.45,254.11 563.39,253.17C563.33,252.23 563.28,251.29 563.25,250.35C563.21,249.41 563.2,248.46 563.18,247.52C563.16,246.58 563.16,245.64 563.15,244.7C563.14,243.76 563.14,242.82 563.14,241.88C563.14,240.94 563.13,239.99 563.13,239.05C563.13,238.11 563.13,237.17 563.13,236.23C563.13,235.29 563.13,234.35 563.13,233.41C563.13,232.47 563.13,231.53 563.13,230.59C563.13,229.65 563.13,228.7 563.13,227.76C563.13,226.82 563.13,225.88 563.13,224.94C563.13,224 563.14,223.06 563.14,222.12C563.14,221.18 563.14,220.23 563.14,219.29C563.14,218.35 563.15,217.41 563.16,216.47C563.17,215.53 563.19,214.59 563.21,213.65C563.24,212.71 563.26,211.77 563.31,210.83C563.36,209.89 563.41,208.94 563.49,208C563.57,207.06 563.67,206.12 563.78,205.18C563.9,204.24 564.03,203.3 564.18,202.36C564.33,201.42 564.5,200.47 564.66,199.53C564.82,198.59 564.99,197.65 565.12,196.71C565.25,195.77 565.39,194.83 565.46,193.89C565.53,192.95 565.57,192.01 565.57,191.07C565.57,190.13 565.51,189.18 565.43,188.24C565.35,187.3 565.21,186.36 565.07,185.42C564.93,184.48 564.76,183.54 564.6,182.6C564.44,181.66 564.27,180.71 564.13,179.77C563.99,178.83 563.85,177.89 563.74,176.95Q563.63,176.01 563.46,174.13L563.13,174.13" style="vector-effect: non-scaling-stroke; stroke-width: 2px; stroke: rgb(255, 165, 0); stroke-opacity: 1; fill: rgb(255, 165, 0); fill-opacity: 0.5;"/><path class="violin" d="M670.39,292.96L671.06,292.96Q671.42,289.65 671.69,288C671.96,286.34 672.28,284.68 672.66,283.03C673.04,281.37 673.5,279.72 673.99,278.07C674.48,276.41 675.04,274.75 675.59,273.1C676.14,271.44 676.73,269.79 677.27,268.13C677.81,266.48 678.34,264.83 678.81,263.17C679.28,261.52 679.7,259.86 680.08,258.2C680.45,256.55 680.76,254.89 681.06,253.23C681.36,251.58 681.62,249.92 681.88,248.27C682.14,246.61 682.39,244.96 682.64,243.3C682.89,241.64 683.15,239.99 683.38,238.33C683.6,236.68 683.84,235.03 683.99,233.37C684.14,231.72 684.27,230.06 684.28,228.4C684.29,226.75 684.23,225.09 684.07,223.44C683.91,221.78 683.64,220.12 683.31,218.47C682.98,216.81 682.54,215.15 682.1,213.5C681.66,211.84 681.15,210.19 680.68,208.54C680.21,206.88 679.71,205.23 679.28,203.57C678.85,201.92 678.45,200.26 678.08,198.6C677.72,196.95 677.4,195.3 677.09,193.64C676.78,191.99 676.51,190.33 676.24,188.67C675.97,187.02 675.72,185.36 675.45,183.71C675.18,182.05 674.91,180.4 674.64,178.74C674.37,177.08 674.08,175.43 673.81,173.77C673.54,172.12 673.26,170.46 673,168.81C672.74,167.15 672.48,165.5 672.25,163.84C672.02,162.18 671.81,160.53 671.63,158.87C671.45,157.22 671.29,155.57 671.15,153.91C671.02,152.26 670.91,150.6 670.82,148.94Q670.73,147.29 670.62,143.98L670.39,143.98" style="vector-effect: non-scaling-stroke; stroke-width: 2px; stroke: rgb(255, 165, 0); stroke-opacity: 1; fill: rgb(255, 165, 0); fill-opacity: 0.5;"/><path class="violin" d="M777.66,334.59L778.16,334.59Q778.47,331.43 778.73,329.86C778.99,328.27 779.31,326.69 779.74,325.12C780.18,323.53 780.71,321.94 781.35,320.38C782,318.78 782.79,317.21 783.63,315.65C784.49,314.05 785.5,312.48 786.48,310.91C787.47,309.32 788.57,307.76 789.56,306.17C790.54,304.6 791.57,303.04 792.38,301.43C793.16,299.88 793.91,298.3 794.38,296.7C794.84,295.15 795.14,293.55 795.22,291.96C795.3,290.39 795.14,288.79 794.88,287.22C794.62,285.63 794.13,284.06 793.66,282.49C793.18,280.9 792.57,279.33 792.03,277.75C791.49,276.17 790.92,274.6 790.42,273.01C789.92,271.44 789.45,269.85 789.02,268.27C788.59,266.7 788.21,265.12 787.82,263.54C787.43,261.96 787.08,260.38 786.7,258.8C786.32,257.22 785.95,255.64 785.56,254.06C785.17,252.48 784.77,250.91 784.38,249.33C783.99,247.75 783.6,246.17 783.23,244.59C782.86,243.01 782.5,241.43 782.17,239.85C781.84,238.27 781.53,236.7 781.25,235.12C780.97,233.54 780.73,231.96 780.51,230.38C780.3,228.8 780.11,227.22 779.96,225.64C779.81,224.06 779.68,222.48 779.59,220.9C779.5,219.32 779.44,217.75 779.4,216.17C779.36,214.59 779.35,213.01 779.34,211.43C779.33,209.85 779.34,208.27 779.32,206.69C779.3,205.11 779.29,203.54 779.25,201.96C779.21,200.38 779.17,198.8 779.1,197.22C779.03,195.64 778.94,194.06 778.85,192.48C778.76,190.9 778.65,189.32 778.55,187.74C778.45,186.16 778.35,184.59 778.26,183.01C778.17,181.43 778.09,179.85 778.02,178.27Q777.95,176.69 777.86,173.53L777.66,173.53" style="vector-effect: non-scaling-stroke; stroke-width: 2px; stroke: rgb(255, 165, 0); stroke-opacity: 1; fill: rgb(255, 165, 0); fill-opacity: 0.5;"/><path class="violin" d="M884.92,292.3L885.59,292.3Q885.95,288.95 886.21,287.28C886.47,285.6 886.79,283.93 887.16,282.26C887.54,280.58 887.99,278.91 888.46,277.24C888.93,275.56 889.47,273.89 889.99,272.22C890.51,270.55 891.08,268.88 891.59,267.2C892.1,265.53 892.6,263.87 893.04,262.19C893.48,260.52 893.87,258.85 894.21,257.17C894.55,255.5 894.82,253.83 895.09,252.15C895.36,250.48 895.57,248.8 895.81,247.13C896.04,245.46 896.27,243.78 896.5,242.11C896.74,240.44 896.99,238.76 897.22,237.09C897.45,235.42 897.7,233.75 897.88,232.07C898.06,230.4 898.23,228.72 898.3,227.05C898.37,225.38 898.38,223.7 898.29,222.03C898.2,220.35 898.01,218.68 897.76,217.01C897.51,215.33 897.14,213.66 896.77,211.99C896.39,210.31 895.94,208.64 895.51,206.97C895.08,205.3 894.61,203.63 894.19,201.95C893.77,200.28 893.36,198.61 892.99,196.93C892.62,195.26 892.29,193.59 891.97,191.91C891.65,190.24 891.37,188.56 891.08,186.89C890.79,185.22 890.52,183.54 890.24,181.87C889.96,180.2 889.68,178.52 889.39,176.85C889.1,175.18 888.8,173.5 888.51,171.83C888.22,170.16 887.92,168.48 887.64,166.81C887.36,165.14 887.09,163.46 886.85,161.79C886.61,160.12 886.39,158.44 886.2,156.77C886.01,155.1 885.84,153.42 885.7,151.75C885.56,150.08 885.45,148.4 885.36,146.73Q885.27,145.06 885.15,141.71L884.92,141.71" style="vector-effect: non-scaling-stroke; stroke-width: 2px; stroke: rgb(255, 165, 0); stroke-opacity: 1; fill: rgb(255, 165, 0); fill-opacity: 0.5;"/><path class="violin" d="M992.18,334.17L992.87,334.17Q993.28,330.92 993.61,329.31C993.94,327.68 994.34,326.05 994.86,324.45C995.38,322.82 996.02,321.2 996.74,319.6C997.48,317.96 998.36,316.34 999.27,314.74C1000.19,313.1 1001.24,311.5 1002.23,309.88C1003.22,308.26 1004.28,306.66 1005.19,305.02C1006.08,303.42 1006.97,301.81 1007.62,300.16C1008.25,298.57 1008.78,296.94 1009.06,295.3C1009.33,293.7 1009.39,292.06 1009.29,290.45C1009.19,288.83 1008.85,287.2 1008.47,285.59C1008.08,283.96 1007.51,282.35 1006.98,280.73C1006.45,279.11 1005.84,277.49 1005.3,275.87C1004.76,274.25 1004.23,272.64 1003.75,271.01C1003.28,269.4 1002.85,267.77 1002.45,266.15C1002.05,264.54 1001.71,262.92 1001.35,261.3C1001,259.68 1000.66,258.06 1000.32,256.44C999.97,254.82 999.63,253.2 999.28,251.58C998.93,249.96 998.57,248.34 998.22,246.72C997.87,245.1 997.52,243.48 997.2,241.86C996.88,240.24 996.57,238.62 996.29,237C996.01,235.38 995.76,233.76 995.54,232.14C995.32,230.52 995.13,228.91 994.96,227.29C994.8,225.67 994.66,224.05 994.55,222.43C994.44,220.81 994.36,219.19 994.29,217.57C994.22,215.95 994.17,214.33 994.12,212.71C994.07,211.09 994.04,209.47 993.99,207.85C993.94,206.23 993.9,204.61 993.84,202.99C993.78,201.37 993.7,199.76 993.62,198.14C993.54,196.52 993.45,194.9 993.35,193.28C993.25,191.66 993.14,190.04 993.04,188.42C992.94,186.8 992.85,185.18 992.76,183.56C992.68,181.94 992.59,180.32 992.53,178.7Q992.47,177.08 992.38,173.84L992.18,173.84" style="vector-effect: non-scaling-stroke; stroke-width: 2px; stroke: rgb(255, 165, 0); stroke-opacity: 1; fill: rgb(255, 165, 0); fill-opacity: 0.5;"/><path class="meanline" d="M39.89725875854492,232.27H26.82" style="fill: none; vector-effect: non-scaling-stroke; stroke-width: 2px; stroke-dasharray: 4px, 2px; stroke: rgb(255, 165, 0); stroke-opacity: 1;"/><path class="meanline" d="M164.60665893554688,62.97H134.08" style="fill: none; vector-effect: non-scaling-stroke; stroke-width: 2px; stroke-dasharray: 4px, 2px; stroke: rgb(255, 165, 0); stroke-opacity: 1;"/><path class="meanline" d="M257.3560791015625,211.27H241.34" style="fill: none; vector-effect: non-scaling-stroke; stroke-width: 2px; stroke-dasharray: 4px, 2px; stroke: rgb(255, 165, 0); stroke-opacity: 1;"/><path class="meanline" d="M356.59307861328125,385.43H348.61" style="fill: none; vector-effect: non-scaling-stroke; stroke-width: 2px; stroke-dasharray: 4px, 2px; stroke: rgb(255, 165, 0); stroke-opacity: 1;"/><path class="meanline" d="M477.7726135253906,212.6H455.87" style="fill: none; vector-effect: non-scaling-stroke; stroke-width: 2px; stroke-dasharray: 4px, 2px; stroke: rgb(255, 165, 0); stroke-opacity: 1;"/><path class="meanline" d="M581.9573974609375,306.63H563.13" style="fill: none; vector-effect: non-scaling-stroke; stroke-width: 2px; stroke-dasharray: 4px, 2px; stroke: rgb(255, 165, 0); stroke-opacity: 1;"/><path class="meanline" d="M684.278564453125,227.54H670.39" style="fill: none; vector-effect: non-scaling-stroke; stroke-width: 2px; stroke-dasharray: 4px, 2px; stroke: rgb(255, 165, 0); stroke-opacity: 1;"/><path class="meanline" d="M791.6397094726562,276.62H777.66" style="fill: none; vector-effect: non-scaling-stroke; stroke-width: 2px; stroke-dasharray: 4px, 2px; stroke: rgb(255, 165, 0); stroke-opacity: 1;"/><path class="meanline" d="M898.349853515625,225.27H884.92" style="fill: none; vector-effect: non-scaling-stroke; stroke-width: 2px; stroke-dasharray: 4px, 2px; stroke: rgb(255, 165, 0); stroke-opacity: 1;"/><path class="meanline" d="M1005.6585693359375,276.92H992.18" style="fill: none; vector-effect: non-scaling-stroke; stroke-width: 2px; stroke-dasharray: 4px, 2px; stroke: rgb(255, 165, 0); stroke-opacity: 1;"/><g class="points"/><g class="points"/><g class="points"/><g class="points"/><g class="points"/><g class="points"><path class="point" transform="translate(563.13,271.37)" d="M3,0A3,3 0 1,1 0,-3A3,3 0 0,1 3,0Z" style="opacity: 1; stroke-width: 0px; fill: rgb(255, 165, 0); fill-opacity: 1;"/><path class="point" transform="translate(563.13,191.24)" d="M3,0A3,3 0 1,1 0,-3A3,3 0 0,1 3,0Z" style="opacity: 1; stroke-width: 0px; fill: rgb(255, 165, 0); fill-opacity: 1;"/></g><g class="points"/><g class="points"><path class="point" transform="translate(777.66,202.05)" d="M3,0A3,3 0 1,1 0,-3A3,3 0 0,1 3,0Z" style="opacity: 1; stroke-width: 0px; fill: rgb(255, 165, 0); fill-opacity: 1;"/></g><g class="points"/><g class="points"><path class="point" transform="translate(992.18,203.56)" d="M3,0A3,3 0 1,1 0,-3A3,3 0 0,1 3,0Z" style="opacity: 1; stroke-width: 0px; fill: rgb(255, 165, 0); fill-opacity: 1;"/></g></g><g class="trace violins" style="opacity: 1;"><path class="violin" d="M26.82,52.49L26.44,52.49Q26.24,55.61 26.1,57.17C25.95,58.73 25.78,60.29 25.57,61.85C25.36,63.41 25.12,64.97 24.85,66.53C24.58,68.09 24.27,69.65 23.95,71.21C23.63,72.77 23.28,74.33 22.92,75.89C22.56,77.45 22.19,79.01 21.79,80.57C21.39,82.13 21,83.7 20.54,85.25C20.08,86.82 19.59,88.38 19.02,89.93C18.44,91.5 17.8,93.07 17.07,94.61C16.32,96.19 15.47,97.75 14.56,99.29C13.63,100.87 12.58,102.41 11.55,103.96C10.52,105.53 9.39,107.07 8.38,108.64C7.39,110.19 6.35,111.73 5.53,113.32C4.74,114.85 3.99,116.41 3.51,118C3.04,119.53 2.74,121.11 2.65,122.68C2.57,124.23 2.72,125.81 2.99,127.36C3.26,128.93 3.77,130.49 4.3,132.04C4.84,133.62 5.54,135.17 6.2,136.72C6.87,138.29 7.61,139.84 8.3,141.4C8.99,142.96 9.68,144.51 10.32,146.08C10.95,147.63 11.56,149.19 12.11,150.76C12.66,152.31 13.16,153.87 13.63,155.44C14.1,156.99 14.52,158.56 14.92,160.12C15.32,161.68 15.69,163.24 16.05,164.8C16.41,166.36 16.75,167.91 17.09,169.47C17.43,171.03 17.75,172.59 18.09,174.15C18.43,175.71 18.76,177.27 19.12,178.83C19.48,180.39 19.86,181.95 20.25,183.51C20.64,185.07 21.07,186.63 21.48,188.19C21.9,189.75 22.33,191.31 22.74,192.87C23.15,194.43 23.57,195.99 23.94,197.55C24.31,199.11 24.66,200.67 24.96,202.23C25.26,203.79 25.51,205.35 25.72,206.91Q25.93,208.47 26.23,211.59L26.82,211.59" style="vector-effect: non-scaling-stroke; stroke-width: 2px; stroke: rgb(0, 0, 255); stroke-opacity: 1; fill: rgb(0, 0, 255); fill-opacity: 0.5;"/><path class="violin" d="M134.08,391.66L133.36,391.66Q132.98,395.65 132.71,397.64C132.44,399.63 132.11,401.62 131.72,403.61C131.33,405.61 130.87,407.6 130.39,409.59C129.91,411.59 129.35,413.58 128.83,415.57C128.31,417.56 127.74,419.54 127.25,421.54C126.76,423.53 126.28,425.52 125.91,427.52C125.54,429.51 125.23,431.5 125.01,433.5C124.79,435.49 124.66,437.48 124.57,439.47C124.48,441.46 124.51,443.46 124.49,445.45C124.47,447.44 124.52,449.43 124.47,451.42C124.42,453.41 124.38,455.41 124.2,457.4C124.02,459.4 123.76,461.4 123.38,463.38C122.99,465.38 122.48,467.37 121.88,469.35C121.27,471.36 120.5,473.34 119.74,475.33C118.97,477.33 118.08,479.31 117.3,481.31C116.53,483.29 115.69,485.27 115.08,487.28C114.48,489.25 113.93,491.25 113.67,493.26C113.41,495.24 113.33,497.25 113.5,499.23C113.67,501.23 114.12,503.24 114.69,505.21C115.27,507.23 116.12,509.22 116.97,511.19C117.84,513.2 118.88,515.17 119.86,517.16C120.84,519.16 121.9,521.14 122.85,523.14C123.8,525.12 124.72,527.11 125.56,529.12C126.39,531.1 127.15,533.09 127.84,535.09C128.52,537.07 129.12,539.07 129.66,541.07C130.2,543.05 130.66,545.04 131.07,547.04C131.48,549.03 131.83,551.02 132.14,553.02C132.45,555.01 132.7,557.01 132.91,559C133.12,560.99 133.28,562.98 133.42,564.97Q133.56,566.96 133.74,570.95L134.08,570.95" style="vector-effect: non-scaling-stroke; stroke-width: 2px; stroke: rgb(0, 0, 255); stroke-opacity: 1; fill: rgb(0, 0, 255); fill-opacity: 0.5;"/><path class="violin" d="M241.34,65.17L240.87,65.17Q240.64,67.27 240.48,68.32C240.32,69.37 240.12,70.41 239.91,71.46C239.7,72.51 239.45,73.56 239.21,74.61C238.97,75.66 238.7,76.71 238.46,77.76C238.22,78.81 237.98,79.86 237.78,80.91C237.58,81.95 237.41,83 237.28,84.05C237.15,85.1 237.06,86.15 236.99,87.2C236.92,88.25 236.89,89.3 236.86,90.35C236.83,91.4 236.82,92.45 236.82,93.5C236.82,94.55 236.82,95.59 236.84,96.64C236.86,97.69 236.89,98.74 236.93,99.79C236.98,100.84 237.04,101.89 237.11,102.94C237.18,103.99 237.29,105.04 237.36,106.09C237.43,107.14 237.51,108.18 237.52,109.23C237.53,110.28 237.52,111.33 237.4,112.38C237.28,113.43 237.08,114.49 236.79,115.53C236.49,116.59 236.09,117.65 235.6,118.68C235.1,119.75 234.47,120.79 233.8,121.82C233.1,122.89 232.3,123.94 231.45,124.97C230.57,126.04 229.61,127.09 228.6,128.12C227.55,129.19 226.42,130.24 225.26,131.27C224.06,132.34 222.78,133.37 221.51,134.41C220.22,135.47 218.86,136.5 217.58,137.56C216.32,138.6 215.03,139.63 213.89,140.71C212.81,141.73 211.75,142.76 210.91,143.86C210.14,144.87 209.45,145.92 209,147C208.58,148.02 208.33,149.09 208.25,150.15C208.17,151.19 208.3,152.26 208.49,153.3C208.68,154.36 209.03,155.41 209.4,156.45C209.77,157.51 210.23,158.55 210.71,159.59C211.2,160.65 211.72,161.7 212.31,162.74C212.91,163.8 213.56,164.86 214.29,165.89C215.05,166.96 215.89,168.02 216.81,169.04C217.78,170.12 218.86,171.15 219.99,172.18C221.17,173.25 222.46,174.29 223.74,175.33C225.05,176.39 226.45,177.42 227.77,178.48C229.08,179.52 230.42,180.56 231.64,181.63C232.81,182.66 233.96,183.69 234.96,184.77C235.9,185.79 236.77,186.84 237.5,187.92C238.19,188.94 238.77,190 239.24,191.07Q239.69,192.1 240.29,194.22L241.34,194.22" style="vector-effect: non-scaling-stroke; stroke-width: 2px; stroke: rgb(0, 0, 255); stroke-opacity: 1; fill: rgb(0, 0, 255); fill-opacity: 0.5;"/><path class="violin" d="M348.61,48.91L348.33,48.91Q348.18,55.26 348.06,58.44C347.94,61.62 347.79,64.79 347.61,67.97C347.42,71.15 347.2,74.32 346.95,77.5C346.69,80.68 346.39,83.86 346.08,87.04C345.76,90.22 345.41,93.39 345.06,96.57C344.71,99.75 344.34,102.92 344,106.1C343.66,109.28 343.32,112.45 343.02,115.63C342.72,118.81 342.45,121.99 342.22,125.17C341.99,128.35 341.8,131.52 341.64,134.7C341.48,137.88 341.36,141.05 341.24,144.23C341.12,147.41 341.04,150.59 340.93,153.77C340.82,156.95 340.72,160.12 340.59,163.3C340.46,166.48 340.33,169.65 340.17,172.83C340.01,176.01 339.83,179.18 339.63,182.36C339.43,185.54 339.21,188.72 338.99,191.9C338.77,195.08 338.53,198.25 338.32,201.43C338.11,204.61 337.89,207.78 337.74,210.96C337.59,214.14 337.45,217.31 337.4,220.49C337.35,223.67 337.36,226.85 337.46,230.03C337.56,233.21 337.75,236.39 338.02,239.56C338.29,242.74 338.66,245.92 339.08,249.09C339.5,252.27 340.02,255.44 340.53,258.62C341.05,261.8 341.63,264.98 342.17,268.16C342.71,271.34 343.27,274.51 343.78,277.69C344.28,280.86 344.77,284.04 345.2,287.22C345.63,290.39 346.01,293.57 346.35,296.75C346.68,299.93 346.97,303.11 347.21,306.29C347.45,309.47 347.63,312.64 347.79,315.82C347.95,319 348.07,322.17 348.17,325.35Q348.27,328.53 348.39,334.88L348.61,334.88" style="vector-effect: non-scaling-stroke; stroke-width: 2px; stroke: rgb(0, 0, 255); stroke-opacity: 1; fill: rgb(0, 0, 255); fill-opacity: 0.5;"/><path class="violin" d="M455.87,68.14L455.52,68.14Q455.31,73.5 455.15,76.17C454.99,78.85 454.8,81.52 454.55,84.19C454.3,86.87 453.99,89.54 453.63,92.21C453.27,94.89 452.84,97.57 452.39,100.24C451.94,102.92 451.42,105.59 450.91,108.26C450.4,110.94 449.85,113.61 449.34,116.29C448.84,118.96 448.32,121.63 447.88,124.31C447.44,126.98 447.05,129.65 446.72,132.33C446.4,135 446.13,137.68 445.93,140.36C445.73,143.03 445.61,145.71 445.5,148.38C445.4,151.05 445.36,153.73 445.3,156.4C445.24,159.08 445.22,161.75 445.16,164.43C445.1,167.1 445.04,169.78 444.95,172.45C444.86,175.12 444.75,177.8 444.62,180.47C444.49,183.15 444.33,185.82 444.18,188.5C444.04,191.17 443.86,193.85 443.75,196.52C443.64,199.19 443.54,201.87 443.53,204.54C443.52,207.22 443.55,209.9 443.67,212.57C443.79,215.25 444,217.92 444.28,220.59C444.56,223.27 444.93,225.94 445.34,228.61C445.75,231.29 446.24,233.97 446.73,236.64C447.22,239.32 447.76,241.99 448.27,244.66C448.78,247.33 449.31,250 449.8,252.68C450.29,255.35 450.78,258.03 451.22,260.71C451.66,263.38 452.08,266.05 452.46,268.73C452.84,271.4 453.19,274.07 453.5,276.75C453.81,279.42 454.09,282.1 454.33,284.78C454.57,287.45 454.76,290.13 454.93,292.8C455.1,295.47 455.24,298.15 455.35,300.82Q455.46,303.5 455.6,308.85L455.87,308.85" style="vector-effect: non-scaling-stroke; stroke-width: 2px; stroke: rgb(0, 0, 255); stroke-opacity: 1; fill: rgb(0, 0, 255); fill-opacity: 0.5;"/><path class="violin" d="M563.13,99.74L562.88,99.74Q562.74,104.54 562.64,106.94C562.54,109.34 562.42,111.74 562.26,114.14C562.1,116.54 561.91,118.94 561.69,121.34C561.47,123.74 561.22,126.14 560.94,128.54C560.66,130.94 560.35,133.34 560.01,135.74C559.67,138.14 559.31,140.55 558.92,142.95C558.53,145.35 558.12,147.75 557.69,150.15C557.26,152.55 556.81,154.95 556.35,157.35C555.89,159.75 555.42,162.15 554.95,164.55C554.48,166.95 554,169.35 553.55,171.75C553.1,174.15 552.66,176.55 552.27,178.95C551.88,181.35 551.52,183.75 551.22,186.16C550.92,188.56 550.66,190.96 550.45,193.36C550.24,195.76 550.09,198.16 549.95,200.56C549.81,202.96 549.72,205.36 549.62,207.76C549.52,210.16 549.44,212.56 549.36,214.96C549.28,217.36 549.19,219.76 549.13,222.16C549.08,224.56 549.02,226.96 549.03,229.36C549.04,231.76 549.07,234.17 549.2,236.57C549.33,238.97 549.52,241.37 549.79,243.77C550.06,246.17 550.43,248.58 550.84,250.97C551.25,253.38 551.75,255.77 552.26,258.17C552.77,260.57 553.33,262.97 553.89,265.37C554.45,267.77 555.04,270.17 555.6,272.57C556.16,274.97 556.73,277.38 557.26,279.78C557.79,282.18 558.31,284.58 558.78,286.98C559.25,289.38 559.7,291.78 560.1,294.18C560.5,296.58 560.85,298.98 561.16,301.38C561.47,303.78 561.73,306.18 561.95,308.58C562.17,310.98 562.34,313.38 562.48,315.78Q562.62,318.18 562.81,322.99L563.13,322.99" style="vector-effect: non-scaling-stroke; stroke-width: 2px; stroke: rgb(0, 0, 255); stroke-opacity: 1; fill: rgb(0, 0, 255); fill-opacity: 0.5;"/><path class="violin" d="M670.39,153.99L669.3,153.99Q668.63,156.55 668.11,157.8C667.57,159.1 666.89,160.38 666.07,161.61C665.2,162.93 664.14,164.2 662.98,165.43C661.74,166.75 660.3,168 658.84,169.24C657.31,170.54 655.6,171.78 653.97,173.05C652.32,174.32 650.58,175.56 649,176.86C647.48,178.11 645.95,179.35 644.67,180.68C643.49,181.91 642.36,183.16 641.54,184.49C640.78,185.71 640.19,187 639.82,188.3C639.47,189.55 639.33,190.85 639.32,192.12C639.31,193.39 639.49,194.67 639.74,195.93C640,197.21 640.39,198.49 640.87,199.74C641.36,201.03 641.96,202.31 642.66,203.56C643.39,204.86 644.25,206.13 645.18,207.37C646.15,208.67 647.25,209.92 648.36,211.18C649.5,212.47 650.75,213.72 651.93,215C653.11,216.27 654.34,217.52 655.43,218.81C656.49,220.06 657.53,221.32 658.39,222.62C659.21,223.86 659.95,225.13 660.52,226.43C661.06,227.68 661.45,228.96 661.75,230.25C662.04,231.51 662.17,232.79 662.29,234.06C662.41,235.33 662.4,236.6 662.46,237.87C662.52,239.14 662.54,240.42 662.63,241.69C662.72,242.96 662.83,244.23 663.01,245.5C663.19,246.77 663.43,248.04 663.71,249.31C663.99,250.59 664.34,251.86 664.7,253.13C665.06,254.4 665.46,255.67 665.85,256.94C666.24,258.21 666.65,259.48 667.02,260.75C667.39,262.02 667.76,263.29 668.08,264.57C668.4,265.84 668.69,267.11 668.94,268.38C669.19,269.65 669.39,270.92 669.56,272.19Q669.73,273.46 669.96,276L670.39,276" style="vector-effect: non-scaling-stroke; stroke-width: 2px; stroke: rgb(0, 0, 255); stroke-opacity: 1; fill: rgb(0, 0, 255); fill-opacity: 0.5;"/><path class="violin" d="M777.66,151.39L776.82,151.39Q776.36,153.86 776.01,155.08C775.66,156.32 775.22,157.55 774.7,158.76C774.16,160.01 773.52,161.24 772.82,162.45C772.1,163.7 771.26,164.91 770.42,166.13C769.57,167.37 768.63,168.59 767.74,169.82C766.85,171.05 765.93,172.26 765.1,173.5C764.29,174.72 763.51,175.94 762.83,177.19C762.16,178.4 761.59,179.63 761.04,180.87C760.5,182.09 760.07,183.33 759.56,184.56C759.05,185.79 758.59,187.03 758,188.24C757.4,189.48 756.73,190.72 755.99,191.93C755.22,193.18 754.32,194.39 753.45,195.61C752.57,196.85 751.57,198.05 750.75,199.3C749.96,200.51 749.1,201.71 748.59,202.98C748.11,204.17 747.72,205.44 747.7,206.67C747.68,207.9 747.99,209.17 748.44,210.36C748.92,211.63 749.78,212.84 750.6,214.04C751.46,215.3 752.54,216.5 753.51,217.73C754.48,218.96 755.52,220.16 756.4,221.41C757.25,222.62 758.06,223.85 758.74,225.1C759.4,226.31 759.93,227.54 760.45,228.78C760.96,230 761.35,231.24 761.82,232.47C762.29,233.7 762.73,234.93 763.28,236.15C763.84,237.39 764.46,238.63 765.14,239.84C765.84,241.08 766.64,242.3 767.43,243.52C768.23,244.76 769.11,245.98 769.93,247.21C770.74,248.43 771.57,249.65 772.3,250.89C773.01,252.1 773.7,253.33 774.27,254.58C774.83,255.79 775.31,257.02 775.71,258.26Q776.1,259.48 776.64,261.95L777.66,261.95" style="vector-effect: non-scaling-stroke; stroke-width: 2px; stroke: rgb(0, 0, 255); stroke-opacity: 1; fill: rgb(0, 0, 255); fill-opacity: 0.5;"/><path class="violin" d="M884.92,155.23L883.99,155.23Q883.42,157.62 882.97,158.78C882.5,159.99 881.92,161.18 881.19,162.33C880.41,163.56 879.46,164.75 878.4,165.89C877.25,167.12 875.9,168.29 874.49,169.44C872.99,170.67 871.29,171.83 869.62,173C867.89,174.2 866.03,175.36 864.28,176.55C862.56,177.73 860.77,178.88 859.19,180.11C857.71,181.26 856.23,182.41 855.05,183.66C853.98,184.79 852.99,185.97 852.33,187.21C851.72,188.35 851.31,189.57 851.13,190.77C850.96,191.94 851.05,193.15 851.25,194.32C851.46,195.52 851.89,196.72 852.39,197.88C852.91,199.09 853.6,200.27 854.36,201.43C855.15,202.64 856.08,203.82 857.07,204.98C858.1,206.19 859.26,207.37 860.45,208.54C861.68,209.75 863.02,210.91 864.32,212.09C865.63,213.28 867.01,214.45 868.3,215.65C869.56,216.82 870.84,217.98 871.95,219.2C873,220.35 874.02,221.52 874.83,222.75C875.59,223.9 876.24,225.1 876.7,226.31C877.14,227.47 877.4,228.67 877.56,229.86C877.72,231.04 877.7,232.23 877.67,233.42C877.64,234.6 877.49,235.79 877.41,236.97C877.33,238.16 877.22,239.34 877.19,240.53C877.16,241.71 877.17,242.9 877.25,244.08C877.33,245.27 877.48,246.45 877.68,247.63C877.88,248.82 878.16,250.01 878.45,251.19C878.75,252.38 879.1,253.56 879.45,254.74C879.8,255.93 880.2,257.11 880.57,258.3C880.94,259.48 881.33,260.66 881.68,261.85C882.03,263.03 882.38,264.21 882.68,265.4C882.98,266.58 883.25,267.77 883.49,268.96C883.72,270.14 883.92,271.32 884.09,272.51Q884.25,273.69 884.48,276.07L884.92,276.07" style="vector-effect: non-scaling-stroke; stroke-width: 2px; stroke: rgb(0, 0, 255); stroke-opacity: 1; fill: rgb(0, 0, 255); fill-opacity: 0.5;"/><path class="violin" d="M992.18,155.4L991.1,155.4Q990.5,157.93 990.06,159.17C989.61,160.45 989.06,161.71 988.42,162.95C987.76,164.23 986.97,165.48 986.14,166.72C985.28,168 984.3,169.25 983.35,170.5C982.39,171.77 981.34,173 980.38,174.27C979.43,175.52 978.46,176.77 977.6,178.05C976.76,179.29 975.98,180.55 975.26,181.82C974.56,183.07 973.95,184.34 973.32,185.6C972.69,186.85 972.12,188.12 971.47,189.37C970.81,190.64 970.13,191.9 969.39,193.15C968.64,194.42 967.78,195.66 966.98,196.92C966.18,198.18 965.27,199.42 964.57,200.7C963.9,201.94 963.19,203.18 962.83,204.47C962.48,205.7 962.28,207 962.38,208.25C962.48,209.52 962.92,210.8 963.45,212.02C964.02,213.32 964.9,214.56 965.74,215.8C966.6,217.08 967.64,218.31 968.56,219.57C969.47,220.82 970.42,222.07 971.24,223.35C972.03,224.59 972.75,225.85 973.39,227.12C974.02,228.36 974.53,229.64 975.07,230.9C975.61,232.15 976.08,233.42 976.64,234.67C977.21,235.94 977.79,237.2 978.45,238.45C979.13,239.72 979.89,240.97 980.67,242.22C981.46,243.49 982.34,244.74 983.17,246C984,247.26 984.88,248.5 985.67,249.77C986.45,251.02 987.22,252.27 987.88,253.55C988.52,254.79 989.1,256.05 989.58,257.32C990.05,258.57 990.44,259.83 990.76,261.1Q991.07,262.35 991.47,264.87L992.18,264.87" style="vector-effect: non-scaling-stroke; stroke-width: 2px; stroke: rgb(0, 0, 255); stroke-opacity: 1; fill: rgb(0, 0, 255); fill-opacity: 0.5;"/><path class="meanline" d="M4.2487711906433105,131.89H26.82" style="fill: none; vector-effect: non-scaling-stroke; stroke-width: 2px; stroke-dasharray: 4px, 2px; stroke: rgb(0, 0, 255); stroke-opacity: 1;"/><path class="meanline" d="M116.97806549072266,482.13H134.08" style="fill: none; vector-effect: non-scaling-stroke; stroke-width: 2px; stroke-dasharray: 4px, 2px; stroke: rgb(0, 0, 255); stroke-opacity: 1;"/><path class="meanline" d="M208.98373413085938,147.04H241.34" style="fill: none; vector-effect: non-scaling-stroke; stroke-width: 2px; stroke-dasharray: 4px, 2px; stroke: rgb(0, 0, 255); stroke-opacity: 1;"/><path class="meanline" d="M338.7240905761719,195.65H348.61" style="fill: none; vector-effect: non-scaling-stroke; stroke-width: 2px; stroke-dasharray: 4px, 2px; stroke: rgb(0, 0, 255); stroke-opacity: 1;"/><path class="meanline" d="M444.3568115234375,185.38H455.87" style="fill: none; vector-effect: non-scaling-stroke; stroke-width: 2px; stroke-dasharray: 4px, 2px; stroke: rgb(0, 0, 255); stroke-opacity: 1;"/><path class="meanline" d="M549.3286743164062,215.88H563.13" style="fill: none; vector-effect: non-scaling-stroke; stroke-width: 2px; stroke-dasharray: 4px, 2px; stroke: rgb(0, 0, 255); stroke-opacity: 1;"/><path class="meanline" d="M641.993896484375,202.3H670.39" style="fill: none; vector-effect: non-scaling-stroke; stroke-width: 2px; stroke-dasharray: 4px, 2px; stroke: rgb(0, 0, 255); stroke-opacity: 1;"/><path class="meanline" d="M747.6994018554688,206.75H777.66" style="fill: none; vector-effect: non-scaling-stroke; stroke-width: 2px; stroke-dasharray: 4px, 2px; stroke: rgb(0, 0, 255); stroke-opacity: 1;"/><path class="meanline" d="M854.9329223632812,202.27H884.92" style="fill: none; vector-effect: non-scaling-stroke; stroke-width: 2px; stroke-dasharray: 4px, 2px; stroke: rgb(0, 0, 255); stroke-opacity: 1;"/><path class="meanline" d="M962.3667602539062,208.05H992.18" style="fill: none; vector-effect: non-scaling-stroke; stroke-width: 2px; stroke-dasharray: 4px, 2px; stroke: rgb(0, 0, 255); stroke-opacity: 1;"/><g class="points"/><g class="points"/><g class="points"><path class="point" transform="translate(241.34,102.13)" d="M3,0A3,3 0 1,1 0,-3A3,3 0 0,1 3,0Z" style="opacity: 1; stroke-width: 0px; fill: rgb(0, 0, 255); fill-opacity: 1;"/><path class="point" transform="translate(241.34,84.32)" d="M3,0A3,3 0 1,1 0,-3A3,3 0 0,1 3,0Z" style="opacity: 1; stroke-width: 0px; fill: rgb(0, 0, 255); fill-opacity: 1;"/></g><g class="points"/><g class="points"/><g class="points"/><g class="points"><path class="point" transform="translate(670.39,253.11)" d="M3,0A3,3 0 1,1 0,-3A3,3 0 0,1 3,0Z" style="opacity: 1; stroke-width: 0px; fill: rgb(0, 0, 255); fill-opacity: 1;"/></g><g class="points"/><g class="points"><path class="point" transform="translate(884.92,254.49)" d="M3,0A3,3 0 1,1 0,-3A3,3 0 0,1 3,0Z" style="opacity: 1; stroke-width: 0px; fill: rgb(0, 0, 255); fill-opacity: 1;"/></g><g class="points"/></g></g></g><g class="overplot"/><path class="xlines-above crisp" style="fill: none; stroke-width: 1px; stroke: rgb(255, 255, 255); stroke-opacity: 1;" d="M79,701.5H1099"/><path class="ylines-above crisp" style="fill: none; stroke-width: 1px; stroke: rgb(255, 255, 255); stroke-opacity: 1;" d="M79.5,100V701"/><g class="overlines-above"/><g class="xaxislayer-above"><g class="xtick"><text text-anchor="start" x="0" y="718.8" transform="translate(106.82,0) rotate(30,0,711.8)" style="font-family: 'Open Sans', verdana, arial, sans-serif; font-size: 14px; fill: rgb(42, 63, 95); fill-opacity: 1; white-space: pre;">baseline_s</text></g><g class="xtick"><text text-anchor="start" x="0" y="718.8" transform="translate(214.08,0) rotate(30,0,711.8)" style="font-family: 'Open Sans', verdana, arial, sans-serif; font-size: 14px; fill: rgb(42, 63, 95); fill-opacity: 1; white-space: pre;">baseline_i</text></g><g class="xtick"><text text-anchor="start" x="0" y="718.8" transform="translate(321.34000000000003,0) rotate(30,0,711.8)" style="font-family: 'Open Sans', verdana, arial, sans-serif; font-size: 14px; fill: rgb(42, 63, 95); fill-opacity: 1; white-space: pre;">sign_s</text></g><g class="xtick"><text text-anchor="start" x="0" y="718.8" transform="translate(428.61,0) rotate(30,0,711.8)" style="font-family: 'Open Sans', verdana, arial, sans-serif; font-size: 14px; fill: rgb(42, 63, 95); fill-opacity: 1; white-space: pre;">sign_i</text></g><g class="xtick"><text text-anchor="start" x="0" y="718.8" transform="translate(535.87,0) rotate(30,0,711.8)" style="font-family: 'Open Sans', verdana, arial, sans-serif; font-size: 14px; fill: rgb(42, 63, 95); fill-opacity: 1; white-space: pre;">weighted_delta_s</text></g><g class="xtick"><text text-anchor="start" x="0" y="718.8" transform="translate(643.13,0) rotate(30,0,711.8)" style="font-family: 'Open Sans', verdana, arial, sans-serif; font-size: 14px; fill: rgb(42, 63, 95); fill-opacity: 1; white-space: pre;">weighted_delta_i</text></g><g class="xtick"><text text-anchor="start" x="0" y="718.8" transform="translate(750.39,0) rotate(30,0,711.8)" style="font-family: 'Open Sans', verdana, arial, sans-serif; font-size: 14px; fill: rgb(42, 63, 95); fill-opacity: 1; white-space: pre;">weighted_ask_er_s</text></g><g class="xtick"><text text-anchor="start" x="0" y="718.8" transform="translate(857.66,0) rotate(30,0,711.8)" style="font-family: 'Open Sans', verdana, arial, sans-serif; font-size: 14px; fill: rgb(42, 63, 95); fill-opacity: 1; white-space: pre;">weighted_ask_er_i</text></g><g class="xtick"><text text-anchor="start" x="0" y="718.8" transform="translate(964.92,0) rotate(30,0,711.8)" style="font-family: 'Open Sans', verdana, arial, sans-serif; font-size: 14px; fill: rgb(42, 63, 95); fill-opacity: 1; white-space: pre;">weighted_bid_er_s</text></g><g class="xtick"><text text-anchor="start" x="0" y="718.8" transform="translate(1072.1799999999998,0) rotate(30,0,711.8)" style="font-family: 'Open Sans', verdana, arial, sans-serif; font-size: 14px; fill: rgb(42, 63, 95); fill-opacity: 1; white-space: pre;">weighted_bid_er_i</text></g></g><g class="yaxislayer-above"><g class="ytick"><text text-anchor="end" x="76.2" y="4.8999999999999995" transform="translate(0,701.02)" style="font-family: 'Open Sans', verdana, arial, sans-serif; font-size: 14px; fill: rgb(42, 63, 95); fill-opacity: 1; white-space: pre;">−0.5</text></g><g class="ytick"><text text-anchor="end" x="76.2" y="4.8999999999999995" transform="translate(0,626.58)" style="font-family: 'Open Sans', verdana, arial, sans-serif; font-size: 14px; fill: rgb(42, 63, 95); fill-opacity: 1; white-space: pre;">−0.4</text></g><g class="ytick"><text text-anchor="end" x="76.2" y="4.8999999999999995" transform="translate(0,552.14)" style="font-family: 'Open Sans', verdana, arial, sans-serif; font-size: 14px; fill: rgb(42, 63, 95); fill-opacity: 1; white-space: pre;">−0.3</text></g><g class="ytick"><text text-anchor="end" x="76.2" y="4.8999999999999995" transform="translate(0,477.69)" style="font-family: 'Open Sans', verdana, arial, sans-serif; font-size: 14px; fill: rgb(42, 63, 95); fill-opacity: 1; white-space: pre;">−0.2</text></g><g class="ytick"><text text-anchor="end" x="76.2" y="4.8999999999999995" transform="translate(0,403.25)" style="font-family: 'Open Sans', verdana, arial, sans-serif; font-size: 14px; fill: rgb(42, 63, 95); fill-opacity: 1; white-space: pre;">−0.1</text></g><g class="ytick"><text text-anchor="end" x="76.2" y="4.8999999999999995" transform="translate(0,328.81)" style="font-family: 'Open Sans', verdana, arial, sans-serif; font-size: 14px; fill: rgb(42, 63, 95); fill-opacity: 1; white-space: pre;">0</text></g><g class="ytick"><text text-anchor="end" x="76.2" y="4.8999999999999995" transform="translate(0,254.37)" style="font-family: 'Open Sans', verdana, arial, sans-serif; font-size: 14px; fill: rgb(42, 63, 95); fill-opacity: 1; white-space: pre;">0.1</text></g><g class="ytick"><text text-anchor="end" x="76.2" y="4.8999999999999995" transform="translate(0,179.92000000000002)" style="font-family: 'Open Sans', verdana, arial, sans-serif; font-size: 14px; fill: rgb(42, 63, 95); fill-opacity: 1; white-space: pre;">0.2</text></g><g class="ytick"><text text-anchor="end" x="76.2" y="4.8999999999999995" transform="translate(0,105.48)" style="font-family: 'Open Sans', verdana, arial, sans-serif; font-size: 14px; fill: rgb(42, 63, 95); fill-opacity: 1; white-space: pre;">0.3</text></g></g><g class="overaxes-above"/></g></g><g class="polarlayer"/><g class="ternarylayer"/><g class="geolayer"/><g class="funnelarealayer"/><g class="pielayer"/><g class="treemaplayer"/><g class="sunburstlayer"/><g class="glimages"/><defs id="topdefs-c8697f"><g class="clips"/><clipPath id="legendc8697f"><rect width="69" height="53" x="0" y="0"/></clipPath></defs><g class="layer-above"><g class="imagelayer"/><g class="shapelayer"/></g><g class="infolayer"><g class="legend" pointer-events="all" transform="translate(1119.38, 100)"><rect class="bg" shape-rendering="crispEdges" style="stroke: rgb(68, 68, 68); stroke-opacity: 1; fill: rgb(255, 255, 255); fill-opacity: 1; stroke-width: 0px;" width="69" height="53" x="0" y="0"/><g class="scrollbox" transform="translate(0, 0)" clip-path="url('#legendc8697f')"><g class="groups"><g class="traces" style="opacity: 1;" transform="translate(0, 15.6)"><text class="legendtext user-select-none" text-anchor="start" x="40" y="5.46" style="font-family: 'Open Sans', verdana, arial, sans-serif; font-size: 14px; fill: rgb(42, 63, 95); fill-opacity: 1; white-space: pre;">call</text><g class="layers" style="opacity: 1;"><g class="legendfill"/><g class="legendlines"/><g class="legendsymbols"><g class="legendpoints"><path class="legendbox" d="M6,6H-6V-6H6Z" transform="translate(20,0)" style="stroke-width: 2px; fill: rgb(255, 165, 0); fill-opacity: 0.5; stroke: rgb(255, 165, 0); stroke-opacity: 1;"/></g></g></g><rect class="legendtoggle" pointer-events="all" x="0" y="-10.6" width="63.390995025634766" height="21.2" style="cursor: pointer; fill: rgb(0, 0, 0); fill-opacity: 0;"/></g><g class="traces" style="opacity: 1;" transform="translate(0, 36.8)"><text class="legendtext user-select-none" text-anchor="start" x="40" y="5.46" style="font-family: 'Open Sans', verdana, arial, sans-serif; font-size: 14px; fill: rgb(42, 63, 95); fill-opacity: 1; white-space: pre;">put</text><g class="layers" style="opacity: 1;"><g class="legendfill"/><g class="legendlines"/><g class="legendsymbols"><g class="legendpoints"><path class="legendbox" d="M6,6H-6V-6H6Z" transform="translate(20,0)" style="stroke-width: 2px; fill: rgb(0, 0, 255); fill-opacity: 0.5; stroke: rgb(0, 0, 255); stroke-opacity: 1;"/></g></g></g><rect class="legendtoggle" pointer-events="all" x="0" y="-10.6" width="63.390995025634766" height="21.2" style="cursor: pointer; fill: rgb(0, 0, 0); fill-opacity: 0;"/></g></g></g><rect class="scrollbar" rx="20" ry="3" width="0" height="0" style="fill: rgb(128, 139, 164); fill-opacity: 1;" x="0" y="0"/></g><g class="g-gtitle"><text class="gtitle" x="60" y="50" text-anchor="start" dy="0em" style="font-family: 'Open Sans', verdana, arial, sans-serif; font-size: 20px; fill: rgb(42, 63, 95); opacity: 1; font-weight: normal; white-space: pre;">Kendall Tau Correlation Distributions of Various Metrics</text></g><g class="g-xtitle"/><g class="g-ytitle" transform="translate(2.2138671875,0)"><text class="ytitle" transform="rotate(-90,14.942773437499994,400.5)" x="14.942773437499994" y="400.5" text-anchor="middle" style="font-family: 'Open Sans', verdana, arial, sans-serif; font-size: 17px; fill: rgb(42, 63, 95); opacity: 1; font-weight: normal; white-space: pre;">Kendall Tau Correlation</text></g></g></svg>