<svg class="main-svg" xmlns="http://www.w3.org/2000/svg" xmlns:xlink="http://www.w3.org/1999/xlink" width="1000" height="800" style="" viewBox="0 0 1000 800"><rect x="0" y="0" width="1000" height="800" style="fill: rgb(255, 255, 255); fill-opacity: 1;"/><defs id="defs-57eecb"><g class="clips"><clipPath id="clip57eecbxyplot" class="plotclip"><rect width="840" height="137.77777777777777"/></clipPath><clipPath id="clip57eecbx2y2plot" class="plotclip"><rect width="840" height="137.7777777777778"/></clipPath><clipPath id="clip57eecbx3y3plot" class="plotclip"><rect width="840" height="137.7777777777778"/></clipPath><clipPath class="axesclip" id="clip57eecbx"><rect x="80" y="0" width="840" height="800"/></clipPath><clipPath class="axesclip" id="clip57eecby"><rect x="0" y="100" width="1000" height="137.77777777777777"/></clipPath><clipPath class="axesclip" id="clip57eecbxy"><rect x="80" y="100" width="840" height="137.77777777777777"/></clipPath><clipPath class="axesclip" id="clip57eecby2"><rect x="0" y="341.1111111111111" width="1000" height="137.7777777777778"/></clipPath><clipPath class="axesclip" id="clip57eecbxy2"><rect x="80" y="341.1111111111111" width="840" height="137.7777777777778"/></clipPath><clipPath class="axesclip" id="clip57eecby3"><rect x="0" y="582.2222222222222" width="1000" height="137.7777777777778"/></clipPath><clipPath class="axesclip" id="clip57eecbxy3"><rect x="80" y="582.2222222222222" width="840" height="137.7777777777778"/></clipPath><clipPath class="axesclip" id="clip57eecbx2"><rect x="80" y="0" width="840" height="800"/></clipPath><clipPath class="axesclip" id="clip57eecbx2y"><rect x="80" y="100" width="840" height="137.77777777777777"/></clipPath><clipPath class="axesclip" id="clip57eecbx2y2"><rect x="80" y="341.1111111111111" width="840" height="137.7777777777778"/></clipPath><clipPath class="axesclip" id="clip57eecbx2y3"><rect x="80" y="582.2222222222222" width="840" height="137.7777777777778"/></clipPath><clipPath class="axesclip" id="clip57eecbx3"><rect x="80" y="0" width="840" height="800"/></clipPath><clipPath class="axesclip" id="clip57eecbx3y"><rect x="80" y="100" width="840" height="137.77777777777777"/></clipPath><clipPath class="axesclip" id="clip57eecbx3y2"><rect x="80" y="341.1111111111111" width="840" height="137.7777777777778"/></clipPath><clipPath class="axesclip" id="clip57eecbx3y3"><rect x="80" y="582.2222222222222" width="840" height="137.7777777777778"/></clipPath></g><g class="gradients"/></defs><g class="bglayer"><rect class="bg" x="80" y="100" width="840" height="137.77777777777777" style="fill: rgb(229, 236, 246); fill-opacity: 1; stroke-width: 0;"/><rect class="bg" x="80" y="341.1111111111111" width="840" height="137.7777777777778" style="fill: rgb(229, 236, 246); fill-opacity: 1; stroke-width: 0;"/><rect class="bg" x="80" y="582.2222222222222" width="840" height="137.7777777777778" style="fill: rgb(229, 236, 246); fill-opacity: 1; stroke-width: 0;"/></g><g class="layer-below"><g class="imagelayer"/><g class="shapelayer"/></g><g class="cartesianlayer"><g class="subplot xy"><g class="layer-subplot"><g class="shapelayer"/><g class="imagelayer"/></g><g class="gridlayer"><g class="x"><path class="xgrid crisp" transform="translate(129.13,0)" d="M0,100v137.77777777777777" style="stroke: rgb(255, 255, 255); stroke-opacity: 1; stroke-width: 1px;"/><path class="xgrid crisp" transform="translate(227.94,0)" d="M0,100v137.77777777777777" style="stroke: rgb(255, 255, 255); stroke-opacity: 1; stroke-width: 1px;"/><path class="xgrid crisp" transform="translate(326.88,0)" d="M0,100v137.77777777777777" style="stroke: rgb(255, 255, 255); stroke-opacity: 1; stroke-width: 1px;"/><path class="xgrid crisp" transform="translate(425.69,0)" d="M0,100v137.77777777777777" style="stroke: rgb(255, 255, 255); stroke-opacity: 1; stroke-width: 1px;"/><path class="xgrid crisp" transform="translate(524.63,0)" d="M0,100v137.77777777777777" style="stroke: rgb(255, 255, 255); stroke-opacity: 1; stroke-width: 1px;"/><path class="xgrid crisp" transform="translate(623.44,0)" d="M0,100v137.77777777777777" style="stroke: rgb(255, 255, 255); stroke-opacity: 1; stroke-width: 1px;"/><path class="xgrid crisp" transform="translate(722.38,0)" d="M0,100v137.77777777777777" style="stroke: rgb(255, 255, 255); stroke-opacity: 1; stroke-width: 1px;"/><path class="xgrid crisp" transform="translate(821.19,0)" d="M0,100v137.77777777777777" style="stroke: rgb(255, 255, 255); stroke-opacity: 1; stroke-width: 1px;"/></g><g class="y"><path class="ygrid crisp" transform="translate(0,227.74)" d="M80,0h840" style="stroke: rgb(255, 255, 255); stroke-opacity: 1; stroke-width: 1px;"/><path class="ygrid crisp" transform="translate(0,197.63)" d="M80,0h840" style="stroke: rgb(255, 255, 255); stroke-opacity: 1; stroke-width: 1px;"/><path class="ygrid crisp" transform="translate(0,137.4)" d="M80,0h840" style="stroke: rgb(255, 255, 255); stroke-opacity: 1; stroke-width: 1px;"/><path class="ygrid crisp" transform="translate(0,107.29)" d="M80,0h840" style="stroke: rgb(255, 255, 255); stroke-opacity: 1; stroke-width: 1px;"/></g></g><g class="zerolinelayer"><path class="yzl zl crisp" transform="translate(0,167.51)" d="M80,0h840" style="stroke: rgb(255, 255, 255); stroke-opacity: 1; stroke-width: 2px;"/></g><path class="xlines-below"/><path class="ylines-below"/><g class="overlines-below"/><g class="xaxislayer-below"/><g class="yaxislayer-below"/><g class="overaxes-below"/><g class="plot" transform="translate(80, 100)" clip-path="url('#clip57eecbxyplot')"><g class="scatterlayer mlayer"><g class="trace scatter trace802f3c" style="stroke-miterlimit: 2; opacity: 1;"><g class="fills"/><g class="errorbars"/><g class="lines"><path class="js-line" d="M0,67.44L0.54,67.55L0.95,67.99L1.22,67.05L1.49,67.47L2.03,67.6L3.38,67.2L3.79,67.45L4.06,67.71L4.74,67.3L4.87,67.75L5.68,67.11L5.82,67.33L5.96,67.76L7.17,67.44L7.58,67.59L7.99,67.3L8.53,67.99L8.66,67.77L9.47,67.38L9.61,67.47L10.02,67.36L10.42,67.7L11.5,67.29L11.64,67.76L12.59,67.25L12.72,67.48L12.86,67.91L13.26,67.36L13.4,67.86L13.54,68.33L14.48,67.16L14.62,67.87L14.75,67.2L15.43,67.6L15.57,67.4L18.14,67.41L18.27,67.15L18.54,67.04L19.08,67.5L19.22,67.31L20.3,67.9L20.44,67.58L21.25,67.91L21.39,67.5L21.79,67.49L22.06,67.33L22.33,67.66L22.74,67.46L23.69,67.47L23.82,67.72L24.23,67.2L24.77,67.64L25.85,67L25.99,67.34L26.8,67.59L26.94,67.36L27.88,67.76L28.02,67.49L29.91,67.17L30.32,67.82L30.45,67.32L30.86,67.51L31.27,67.54L33.57,67.19L33.7,67.5L35.33,67.56L35.46,67.23L36.14,68.02L36.41,67.24L36.55,67.34L37.49,67.71L37.9,67.25L38.03,68.02L38.17,66.55L38.44,67.63L38.85,67.78L38.98,66.93L39.39,67.27L39.79,67.66L40.06,67.86L40.34,66.84L40.74,67.53L40.88,66.99L41.28,67.71L41.69,67.59L42.77,66.94L42.91,67.61L43.85,67.03L44.13,67.45L44.53,67.85L44.8,66.7L45.07,67.69L45.48,67.03L45.61,67.54L46.02,67.39L46.43,67.5L46.56,68.15L46.97,67.46L47.37,67.36L47.91,67.33L48.46,67.66L48.59,67.97L48.86,66.9L49.4,67.47L49.67,67.1L49.81,67.57L50.22,66.48L51.43,68.26L51.57,68.15L51.7,67.17L52.25,67.91L52.38,67.92L52.65,66.88L53.19,67.53L53.33,68.23L53.6,68.49L54.14,67.25L54.28,68.34L54.95,66.88L55.09,67.18L55.22,67.22L55.49,67.77L56.04,67.03L56.85,68.05L56.98,67.38L57.39,68L57.8,67.34L58.07,67.89L58.34,66.98L58.74,67.16L59.69,67.98L59.83,67.54L60.64,67.69L60.77,66.74L61.59,67.83L61.72,66.22L62.67,67.79L62.8,67.57L62.94,67.87L63.48,67.21L63.75,67.09L64.02,67.79L64.43,67.42L64.56,67.09L64.97,67.68L65.38,67.08L65.51,67.62L65.92,67.51L66.32,67.7L66.86,67.5L67.27,68.12L67.68,67.23L67.81,67.76L68.22,67.56L68.49,67.3L68.76,68.02L69.3,67.83L69.44,67L69.71,67.87L70.11,67.57L70.38,67.04L70.65,68.06L71.06,67.23L71.33,67.13L71.47,67.91L71.6,67.59L72.01,67.46L72.28,67.14L72.55,67.48L72.96,67.85L73.23,66.88L73.5,67.37L73.9,67.72L75.26,67.85L75.39,67.15L75.93,67.26L76.07,66.14L76.2,67.47L76.88,67.1L77.02,67.62L77.29,67L77.83,67.3L77.96,67.21L78.64,68.04L78.78,67.77L78.91,67.41L79.05,67.6L79.18,67.45L79.59,66.97L80.67,67.58L80.81,67.41L81.08,67.9L82.02,66.85L82.57,67.83L82.7,66.92L82.97,67.52L83.38,67.49L83.51,67.18L83.92,67.56L84.32,67.54L84.73,67.87L84.87,66.92L85.27,67.11L85.41,67.77L85.81,67.97L86.36,67.23L86.49,67.63L87.71,67.43L88.11,67.75L88.39,66.56L88.66,67.19L89.06,67.6L89.47,67.9L90.01,67.37L90.15,67.93L91.09,67.1L91.23,67.32L92.04,67.72L92.18,67.18L92.99,67.15L93.12,67.23L93.39,67.96L93.93,67.52L94.07,67.54L95.02,68.11L95.15,67.25L95.69,68.08L95.83,66.89L96.24,68L96.64,67.33L96.78,67.85L98,66.66L98.13,67.74L98.81,67.11L99.08,67.42L99.48,65.99L100.7,68.78L100.84,67.64L101.38,67.75L101.51,67.3L102.33,67.6L102.46,67.48L103.27,67.47L103.41,67.08L103.68,68.14L104.22,67.55L104.36,67.39L104.63,67.6L104.76,67.28L105.3,66.8L106.12,68.53L106.25,67.37L106.52,67.87L107.06,67.11L107.2,67.62L107.61,67.11L108.01,67.83L108.55,67.18L108.96,67.44L109.37,67.61L109.5,67.01L109.91,67.6L110.04,67.99L110.18,67.4L110.45,67.36L110.85,67.33L111.26,67.74L111.8,67.39L112.21,67.93L112.34,67.26L112.75,67.75L113.29,66.97L113.7,67.57L113.97,66.76L114.24,67.54L114.64,67.59L115.19,66.85L115.59,67.27L115.73,67.12L116.54,67.91L116.67,67.55L116.81,67.06L117.76,67.99L117.89,66.88L118.57,66.56L118.84,68.11L118.98,66.88L119.92,68.44L120.33,67.47L120.46,68.13L120.87,66.53L121.28,67.82L121.55,67.01L122.22,68.09L122.36,67.03L122.49,67.8L122.77,67.68L123.17,66.24L123.31,66.31L123.58,67.61L123.71,67.94L124.12,67.08L124.25,67.51L124.39,67.15L124.52,66.73L124.66,67.43L125.07,67.34L125.2,67.68L125.47,66.71L125.61,67.53L126.01,69.41L126.28,65.63L126.55,68.03L126.96,69.59L127.5,66.78L127.91,67.56L128.04,67.73L128.18,69.15L128.45,66.91L128.99,68.4L129.13,68.13L129.8,66.36L129.94,66.45L130.07,67.82L130.21,66.6L130.34,68.17L130.75,68.68L130.89,65.95L131.29,66.29L131.83,69.11L132.24,66.45L132.78,67.22L132.92,67.44L133.19,67.6L133.59,66.97L133.73,67.55L134.54,66.46L134.68,67.6L134.95,67.74L135.08,66.9L135.49,67.06L135.62,67.63L135.76,67.88L135.89,66.39L136.03,66.12L136.44,67.53L136.71,68.5L136.84,66.43L137.79,68.18L137.92,66.67L138.33,64.98L138.47,67.56L138.6,68.19L139.41,66.88L139.55,68.05L140.23,66.31L140.36,68.7L140.77,70.01L141.17,64.03L141.31,68.34L141.71,68.04L142.12,66.46L142.26,67.6L142.66,67.3L143.07,67.03L143.2,66.35L143.47,67.96L143.61,68.24L144.15,66.29L144.42,66.58L144.56,67.53L145.1,67.02L145.5,68.8L145.91,67.82L146.32,66.07L146.45,66.46L146.86,67.48L147.81,68.21L148.08,67.5L148.21,70.71L148.75,68.89L148.89,65.76L149.7,69.61L149.84,69.54L149.97,67.25L150.11,67.41L150.24,68.74L150.78,71.08L150.92,68.26L151.05,68.72L151.19,67.51L151.6,67.19L151.87,66.83L152.68,69.1L152.81,67.68L152.95,66.6L153.08,66.66L153.49,68.5L153.63,66.54L154.03,68.04L154.57,67.16L154.71,68L155.39,67.64L155.52,66.69L155.66,66.02L155.79,68.57L155.93,68.22L156.33,66.89L156.6,68.28L156.87,68.07L157.28,65.87L157.69,67.8L157.82,67.49L158.23,66.2L158.36,68.19L158.63,66.17L159.17,67.2L159.45,68.55L160.12,66.22L160.26,67.95L160.39,66.63L160.66,66.91L161.07,68.17L161.34,66.85L161.48,69.11L162.42,66.11L162.56,65.98L162.96,69.23L163.37,67.34L163.51,66.97L163.91,66.91L164.05,67.75L164.18,66.21L164.45,66.7L164.86,67.1L165,68.39L165.4,66.5L165.81,67.13L166.08,66.77L166.35,68.38L166.75,67.02L166.89,69.17L167.3,66.38L167.84,67.39L168.11,67.07L168.24,68.08L168.65,67.67L168.79,67.55L169.19,68.38L169.6,66.65L169.73,68.55L169.87,69.14L170,67.71L170.14,66.55L170.54,66.53L170.68,68.09L170.95,68.73L171.63,66.62L171.76,69.48L172.44,65.96L172.57,68.91L172.85,66.43L173.39,66.57L173.52,68.65L173.66,67L173.93,67.23L174.33,68.43L174.47,66.83L174.74,68.95L174.88,67.27L175.28,68.43L175.42,66.6L175.82,69.17L176.23,66.94L176.77,68.25L177.18,65.92L177.45,67.65L177.72,66.65L178.12,66.83L178.4,67.51L178.53,68.28L179.48,66.98L179.61,68.43L180.15,67.29L180.29,67.71L180.43,68.42L181.1,67.35L181.24,68.75L181.91,68.86L182.18,67.29L182.32,68.31L182.86,67.62L183,70.11L183.13,66.17L183.27,66.05L183.4,69.64L184.08,66.82L184.22,68.31L184.35,72.46L184.76,65.71L185.3,67.28L185.7,69.45L186.25,64.62L186.65,68.84L186.92,66.67L187.19,67.29L187.6,69.01L187.73,66.36L188.14,68.44L188.55,65.83L188.95,68.26L189.09,67.65L189.49,66.65L189.63,69.17L190.04,68.02L190.44,67.75L190.71,66.16L190.85,68.85L190.98,67.97L191.39,67.13L191.66,68.76L191.93,65.28L192.34,67.98L192.47,66.61L192.88,68.32L193.28,66.75L193.55,68.48L193.83,66.28L194.23,67.44L194.64,66.81L194.77,68.27L195.18,67.37L195.31,68.86L195.72,68.43L196.13,67.38L196.26,67.8L196.67,67.34L197.07,67.58L197.21,67.72L197.34,66.35L198.56,67.93L198.97,67.72L199.51,68.4L200.05,66.52L200.19,66.32L200.32,67.51L201,66.77L201.13,67.77L201.27,68.13L201.41,67.22L201.81,67.2L202.08,66.89L202.76,68.52L202.89,67.73L203.03,66.99L203.3,68.51L203.98,68.32L204.11,67.39L204.25,68.43L204.65,66.8L204.92,67.94L205.06,67.49L205.19,67.81L205.6,67.42L205.74,66.91L206.01,68.28L206.14,67.99L206.55,66.33L207.09,67.62L207.5,66.6L208.04,66.21L208.44,67.69L208.58,67.59L208.71,66.79L208.85,68.16L208.98,68.02L209.39,67.38L209.66,66.65L209.93,66.99L210.34,68.26L210.61,66.82L210.74,67.37L211.29,67.93L211.56,66.69L211.69,67.09L211.83,68.14L212.5,66.68L212.77,67.34L213.18,67.69L213.72,66.48L214.13,67.38L215.21,68.57L215.35,66.77L215.62,66.6L216.16,67.85L216.29,67.88L216.56,65.73L217.11,67.03L217.24,67.08L217.51,66.75L217.92,67.48L218.05,67.2L218.19,66.91L219.27,68.16L219.41,67.7L220.22,66.74L220.35,67.97L220.76,68.24L220.9,67.04L221.03,66.73L221.3,67.62L221.71,67.42L222.66,68.2L222.79,67.12L222.93,67.7L223.2,66.69L223.6,67.53L223.74,66.52L224.55,67.82L224.69,66.39L225.5,67.54L225.63,67.51L226.04,66.86L226.45,67.7L226.85,67.17L226.99,67.68L227.39,67.92L227.93,69.06L228.34,66.57L228.48,67.39L228.75,66.89L229.29,67.44L229.42,67.94L229.56,67.08L229.83,67.91L230.24,68.14L230.64,66.71L230.78,66.95L231.32,67.9L232.27,66.07L232.4,66.94L233.35,67.88L233.48,67.83L233.62,66.7L234.16,67.52L234.3,68.48L234.97,66.66L235.11,67.46L235.24,67.73L236.06,67.24L236.19,67.67L236.33,68.05L236.46,67.13L236.87,65.6L237.82,68.61L237.95,68.58L238.09,66.66L238.22,69.2L238.76,67.63L238.9,67.07L239.17,67.45L239.3,65.98L239.71,67.19L239.98,67.79L240.25,67.05L240.66,67.43L240.93,68.69L241.06,67.64L241.2,66.23L241.88,68.29L242.15,67.66L242.55,68.15L243.09,68.45L243.64,65.81L243.77,67.81L243.91,67.89L244.04,67.02L244.72,68.2L244.85,66.75L245.53,67.14L245.67,66.02L246.34,68.05L246.61,67.71L246.75,66.81L247.43,68.25L247.56,67.6L247.7,67.21L248.37,66.88L248.64,68.27L248.78,65.55L249.59,69.73L249.73,66.37L250.27,67.1L250.4,69.36L250.54,69.07L250.67,66.94L251.08,67.27L251.21,66.79L251.35,69.06L251.49,66.78L252.16,67.75L252.3,66.75L253.38,67.78L253.52,67.78L253.92,68.24L254.06,66.74L254.46,66.57L254.87,67.54L255,67.41L255.14,67.22L255.28,65.74L255.41,67.49L255.82,66.67L255.95,67.12L256.36,68.11L256.9,67.59L257.04,67.4L257.17,68.03L257.31,66.98L257.71,66.74L257.98,68.1L258.12,66.6L258.25,67.19L258.66,66.77L258.79,67.7L259.07,66.97L259.61,67.29L260.55,67.48L260.69,66.81L261.5,68.05L261.64,64.37L262.45,69.12L262.58,67.61L262.72,66L263.4,69.16L263.53,68.09L263.67,69.61L263.8,69.75L263.94,63.61L264.75,68.49L264.89,67.43L265.29,67.91L265.56,69.79L265.7,66.53L266.24,67.85L266.37,67.75L266.51,65.53L267.59,69.05L267.73,68.6L268.13,67.86L268.27,68.83L268.4,65.94L268.68,67.35L269.08,66.35L269.22,65.89L269.62,68.35L270.3,67.94L270.44,68.01L270.57,67.17L270.98,70.12L272.06,65.36L272.19,67.64L272.33,67.19L272.47,68.02L272.87,68.69L273.82,66.16L273.95,67.01L274.36,67.66L274.77,66.48L274.9,68.19L275.17,67.7L275.31,66.52L276.8,69.5L276.93,67.17L277.07,68.09L277.2,67.83L277.61,66.58L278.56,68.78L278.69,66.88L278.83,68.08L279.5,67.39L279.64,65.96L280.05,67.72L280.59,66.42L280.72,67.48L281.4,67.3L281.53,67.05L281.8,67.77L281.94,65.82L282.35,67.4L282.48,66.66L282.89,67.76L283.29,68.44L284.24,65.3L284.38,67.46L284.65,66.47L285.19,66.83L285.32,67.17L285.46,67.05L285.59,64.84L286.14,69.34L286.54,67.96L286.68,67.22L287.49,68.43L287.62,66.83L288.3,66.34L288.44,67.76L288.98,68.06L289.11,67.1L289.25,67.81L289.38,69.37L289.52,67.73L289.93,68.69L290.06,67.75L290.2,65.81L290.33,67.88L290.47,66.09L290.87,68.51L291.01,66.21L291.41,67.11L291.82,68.74L291.96,66.39L292.36,66.93L292.77,67.93L292.9,66.91L293.31,67.28L293.72,67.81L294.66,67.09L294.8,67.31L294.93,67.85L295.07,67.28L295.61,67.34L295.88,67.86L296.02,67.75L296.15,66.01L296.83,67.57L296.96,67L297.1,66.15L298.05,69.2L298.59,67.9L298.72,68.84L298.86,68.8L298.99,65.21L299.81,69.04L299.94,66.82L300.35,66.29L300.62,67.7L300.89,66.36L301.3,66.8L301.43,66.88L301.57,68.29L302.38,66.82L302.51,68.55L302.78,70.08L303.33,66.65L303.6,66.38L304.14,68.35L304.27,66.91L304.41,65.91L304.68,68.51L305.09,67.43L305.49,66.37L306.17,70.83L306.3,66.52L306.44,68.37L306.57,65.66L307.12,67.95L307.25,66.27L307.39,66.1L307.52,67.75L308.2,67.54L308.33,68.36L309.15,67.51L309.28,68.16L309.42,68.43L309.96,66.71L310.09,68.31L310.23,68.58L311.04,65.73L311.18,67.02L311.99,68.25L312.12,66.79L312.26,68.34L312.94,68.12L313.07,67.53L313.61,67.12L313.75,67.99L313.88,67.66L314.02,68.82L314.15,69.06L314.7,66.71L315.1,67.69L315.51,67.99L316.05,65.27L316.59,68.01L316.73,67.39L317,68.68L317.4,68.8L318.35,66.26L318.49,68.74L319.3,65.37L319.43,68.09L319.57,65.66L319.7,68.56L320.24,66.82L320.38,67.78L320.65,65.88L320.79,66.19L321.33,67.01L321.46,66.34L321.73,68.74L322.14,67.57L322.68,65.6L323.09,66.86L323.22,65.35L323.36,67.43L323.63,66.4L324.03,66.46L324.17,69.84L324.58,66.17L324.98,69.2L325.52,71.9L325.93,63.04L326.07,69.73L326.2,65.36L326.47,66.13L326.88,68.14L327.01,67.52L327.15,70.61L327.82,63.82L327.96,66.96L328.1,68.04L328.23,65.39L328.77,67.51L328.91,68.62L329.04,68.33L329.18,69.02L329.31,66.29L329.99,67.47L330.13,68.95L331.07,65.89L331.21,65.12L331.89,69.73L332.16,67.76L332.56,68.36L332.7,68L332.83,68.9L332.97,69.5L333.64,66.28L333.78,67.7L333.92,69.14L334.05,63.43L334.73,66.17L334.86,64.6L335.54,72.59L335.68,68.23L335.81,68.04L335.95,64.74L336.35,69.24L336.62,66.63L336.76,67.46L336.89,67.55L337.3,69.29L338.25,66.12L338.38,69.87L338.52,69.68L338.65,67.64L338.79,68.67L339.19,65.46L339.47,69.1L339.74,68.79L340.14,65.9L340.28,69.56L340.68,64.82L341.09,68.14L341.22,65.58L341.63,66.8L342.04,67.96L342.44,66.88L342.58,67.9L342.98,68.17L343.12,69.37L343.39,67.07L343.53,67.26L343.93,64.56L344.07,67.41L344.47,66.83L345.01,68.35L345.42,66.17L345.96,67.04L346.1,66.53L346.37,67.66L346.77,67.19L347.18,67.85L347.32,66.46L347.86,66.57L348.13,69.12L348.26,65.99L348.67,69.02L348.8,61.87L348.94,67.95L349.62,66.77L349.75,67.58L349.89,67.74L350.02,66.53L350.56,66.47L350.7,65.83L350.83,63.97L350.97,67.46L351.11,65.54L351.51,66.04L351.65,70.05L352.05,64.78L352.59,67.9L353.41,65.44L353.54,66L353.68,67.08L353.81,67.36L353.95,70.1L355.44,62.89L355.57,68.38L355.84,64.17L356.25,66.47L356.38,68.26L356.79,65.16L357.2,65.9L357.6,69.73L357.74,63.41L358.28,68.59L358.41,65.5L359.63,72.91L360.04,61.15L360.31,72.01L360.58,67.79L360.99,69.97L361.12,56.82L361.53,71.61L361.93,67.91L362.07,66.69L362.2,68.41L362.34,71.08L362.48,66.6L363.15,67.23L363.29,68.34L364.1,70.96L364.23,67.47L364.37,60.88L364.78,68.45L364.91,64.6L365.05,68.65L365.32,65.38L365.86,66.04L365.99,67.83L366.13,71.12L366.26,66.81L366.67,67.84L366.81,65.67L367.21,69.49L367.62,66.45L367.75,68.38L368.16,65.02L368.57,67.17L368.97,66.57L369.11,69.96L369.51,67.25L369.65,66.99L369.78,68.7L369.92,64.31L370.6,65.26L370.87,68.4L371,65.8L371.41,68.75L371.54,68.34L371.68,68.71L371.81,66.22L372.36,67.52L372.49,67.67L372.63,65.79L372.76,69.68L372.9,67.62L373.3,68.15L373.44,73.11L373.71,65.31L373.84,65.4L374.25,64.14L374.39,68.37L374.79,66.05L375.2,67.88L375.47,66.77L375.6,67.32L375.74,65.74L376.28,67.71L376.42,66.34L376.55,64.99L376.69,63.86L377.09,69.48L377.23,64.77L377.63,64.84L378.04,67.71L378.18,67.81L378.31,69.59L378.58,65.43L379.26,66.22L379.39,66.63L379.53,71.33L380.07,65.54L380.21,64.69L381.15,68.26L381.29,67.22L381.83,71.23L381.97,69.32L382.1,64.05L382.24,70.58L382.78,67.11L382.91,65.34L383.32,70.63L383.73,68.02L383.86,66.44L384,70.28L384.27,66.44L384.67,64.29L385.08,72.43L385.21,62.32L385.62,71.97L385.76,66.78L386.16,69.39L386.84,67.26L387.11,65.84L387.65,72.3L387.79,71.88L387.92,65.52L388.6,68.82L388.73,69.95L389,59.34L389.41,68.56L389.95,63.65L390.36,68.55L390.63,66.14L390.9,67.33L391.31,69.75L391.44,75.49L391.58,65.71L391.85,68.26L392.25,65.04L392.66,71.8L392.79,65.58L393.2,64.28L393.34,69.16L393.74,67.34L394.15,69.07L394.69,62.67L395.1,63.9L395.37,69.01L395.5,70.77L395.64,68.19L396.04,67.22L396.31,66.14L396.58,71.51L396.99,70.93L397.13,63.19L397.26,68.26L397.53,66.5L398.07,65.54L398.21,81.18L398.48,65.38L398.88,65.71L399.43,69.95L399.83,64.18L400.78,70.11L400.92,67.72L401.05,67.62L401.19,68.91L401.32,67.56L401.86,69.92L402.67,66.2L402.81,68.47L402.95,68.21L403.08,69.88L403.22,69.77L403.62,65.14L403.76,68.7L404.16,66.2L404.57,69.56L405.11,64.93L405.52,67.79L405.65,68.04L405.79,67.38L405.92,65.55L406.87,70.48L407.41,67.34L407.55,67.05L407.68,68.44L407.82,68.5L408.5,65.65L408.63,67.82L408.9,69.66L409.31,66.15L409.44,72.57L409.85,65.77L410.25,65.92L410.39,67.67L410.8,64.75L411.2,64.8L411.34,68.28L411.74,65.22L412.15,67.97L412.28,66.41L412.42,68.39L412.69,67.14L413.1,69.86L413.23,70.75L413.37,66.29L413.64,65.44L414.04,68.23L414.18,67.16L414.32,67.36L414.59,68.32L415.26,66.1L415.4,67.92L415.53,67.31L415.94,67.83L416.07,68.43L416.21,68.96L416.35,66.8L416.48,68.15L416.89,67.8L417.16,66.71L417.29,68.8L417.43,67.11L417.83,67.57L418.38,69.88L418.78,67.51L418.92,68.51L419.19,66.93L419.32,64.8L419.86,67.03L420,68.25L420.27,68.03L420.68,65.95L420.81,67.87L421.22,67.32L421.62,66.93L422.57,69.1L422.71,62.9L422.84,67.96L423.52,66.34L423.65,67.69L424.06,66.04L424.47,68.43L424.87,68.94L425.41,62.75L425.55,65.6L425.68,67.65L425.96,66.36L426.36,68.96L426.9,67.11L427.31,70.62L427.44,67.03L427.85,67.23L428.39,65.35L429.34,73.32L429.47,66.45L429.75,70.7L430.15,66.41L430.29,65.51L430.56,68.58L430.69,62.53L431.23,69.15L431.64,68.82L432.05,65.11L432.99,68.99L433.13,66.31L433.94,66.96L434.08,67L434.35,66.58L434.48,64.84L435.84,70.36L435.97,65.76L436.24,68.1L436.78,67.8L436.92,67.84L437.05,69.34L437.19,65.79L437.33,67.85L437.73,67.32L437.87,67.39L438,65.91L438.27,68.89L438.81,68.5L438.95,66.21L439.08,67.81L439.63,65.45L439.76,64.82L440.17,68.57L440.57,64.28L440.98,69.22L441.12,66.15L441.52,67.71L441.93,68.84L442.06,66.86L442.47,68.06L442.74,68.88L442.87,66.54L443.01,62.99L443.42,68.05L443.55,68.34L443.96,68.72L444.36,66.13L444.77,70.14L444.9,66.89L445.31,68.36L445.58,69.02L446.26,65.23L446.39,65.17L446.66,70.45L446.8,65.72L447.34,67L447.48,66.52L447.61,69.7L447.75,66.57L448.15,76.99L448.69,67.32L449.1,65.96L449.37,66.89L449.64,65.52L450.05,66.03L450.32,65.7L450.45,67.62L450.59,67.1L451.13,69.38L451.54,67.03L451.94,68.71L452.08,68.54L452.21,65.31L452.35,67.83L453.03,67.28L453.16,67.87L453.84,66.41L453.97,67.41L454.11,68.81L454.79,66.52L454.92,67.56L455.06,68.08L455.33,66.17L455.73,66.28L455.87,68.65L456.68,66.47L456.82,67.33L456.95,68.33L457.22,69.32L457.63,67.53L457.76,66.05L457.9,69L458.17,67.08L458.58,68.33L458.98,66.19L459.52,67.41L459.66,69.02L459.79,58.27L460.61,68.01L460.74,67.23L460.88,67.29L461.01,65.72L461.42,68.93L461.82,68.05L461.96,65.96L462.64,68.61L462.77,65.66L463.31,67.5L463.58,67.32L463.72,66.05L463.85,65.05L464.4,67.87L464.53,65.08L464.8,68.46L465.21,65.61L465.34,65.96L465.75,65.3L466.43,69.89L466.56,69.05L466.7,66.14L467.24,67.38L467.37,68.01L467.51,68.96L467.64,67.65L468.05,68.35L468.19,67.41L468.46,65.9L469,66.64L469.13,67.59L469.4,64.61L469.95,68.46L470.49,65.67L470.89,69.23L471.16,70.07L471.98,63.81L472.11,67.77L472.38,65.49L472.79,68.49L472.92,67.87L473.06,71.36L473.19,66.73L473.87,67.77L474.01,67.54L474.28,65.64L474.68,67.56L474.82,65.61L475.22,65.75L475.63,65.46L476.58,68.51L476.71,65.66L477.66,74.09L477.8,68.76L478.61,62.99L478.74,66.88L479.42,68.68L479.56,66.44L479.83,68.78L479.96,67.37L480.37,65.15L480.64,73.37L480.77,63.19L480.91,68.49L481.31,66.56L481.45,69.89L481.59,66.44L481.86,67.53L482.26,68.84L482.4,64.44L482.8,68.91L483.21,69.12L483.48,69.45L483.62,65.4L484.16,63.45L484.29,66.74L484.43,64.76L484.7,67.69L485.1,65.07L485.24,66.62L485.65,65.42L486.05,68.73L486.19,67.13L486.46,67.06L486.59,67.8L487,66.22L487.27,65.16L487.54,67.81L487.95,65.3L488.08,68.73L488.49,64.28L488.89,69.07L489.03,65.42L489.44,73.34L489.84,68.19L489.98,65.57L490.38,71.44L490.79,64.94L490.92,70.79L491.33,69.79L491.74,69.75L492.01,62.65L492.28,65.78L492.68,68.13L492.82,68.32L492.96,64.54L494.17,72.16L494.58,67.51L494.85,61.29L494.99,67.35L495.12,71.68L495.8,72.01L496.07,63.42L496.61,66.28L496.75,63.24L497.02,67.35L497.42,73.49L497.56,58.24L497.96,65.31L498.37,67.5L498.78,69.05L499.45,63.22L499.59,65.15L500.53,67.93L500.67,65.95L500.81,62.25L501.21,68.78L501.35,72.62L501.48,65.08L502.16,67.12L502.29,68.76L502.7,66.71L503.11,71.49L503.24,70.94L503.38,64.2L504.05,64.38L504.19,65.37L505.14,72.51L505.27,66.23L505.54,62.83L505.95,70.45L506.08,67.8L506.22,65.92L506.36,64.47L506.9,69.54L507.17,66.08L507.44,67.9L507.84,68.35L508.25,69.66L508.39,63.24L508.79,68.57L509.33,63.96L509.74,70.67L509.87,70.42L510.01,72.78L510.15,61.81L510.69,71.89L510.82,68.72L511.09,63.97L511.23,69.48L511.63,68.21L511.9,63.1L512.04,67.8L512.18,65.39L512.85,65.52L512.99,65.8L513.12,71.92L513.66,63.88L513.8,67.93L513.93,69.79L514.07,67.14L514.48,68.39L514.61,67.29L515.02,68.81L515.42,68.1L515.56,65.33L515.83,69.66L515.97,67.9L516.37,66.5L516.78,69.45L516.91,66.01L517.32,68.4L517.45,65.9L517.86,70.87L518.27,66.18L518.4,65.76L518.54,67.77L518.67,68.19L519.21,67.99L519.35,72.22L519.48,71.29L519.62,62.69L520.16,67.6L520.57,65.86L520.7,63.84L521.24,75.85L521.38,67.62L521.51,68.52L521.65,70.13L522.06,66.61L522.19,68.11L522.33,68.46L523,73.25L523.14,66.38L523.27,67.15L523.41,66.94L523.54,61.2L523.95,76.91L524.36,66.31L524.49,65.72L525.17,71.08L525.3,77.9L525.98,58.57L526.25,66.97L526.39,68.32L526.79,75.11L526.93,60.57L527.06,70.49L527.33,62.95L527.88,70.78L528.01,63.88L528.69,66.07L528.82,67.33L528.96,71.28L529.23,64.88L529.64,70.25L529.77,66.14L530.04,67.96L530.18,70.94L530.58,72.62L530.72,66.19L530.85,68.08L531.12,66.92L531.53,66.73L531.8,69.45L531.94,63.58L532.07,68.31L532.48,67.24L532.61,69.91L532.75,65.04L533.02,66.49L533.43,64.46L533.83,62.14L533.97,73.25L534.37,68.63L534.51,60.42L534.78,69.08L534.91,65L535.32,65.43L536.27,73.25L536.4,68.52L536.54,68.11L536.67,72.62L537.35,62.11L537.49,65.28L537.62,66.74L537.76,69.86L538.16,65.83L538.3,68.81L538.43,67.86L538.7,66.79L539.11,68.97L539.38,69.15L539.52,61.76L540.46,72.03L540.6,68.58L541.01,70.52L541.14,66.25L541.41,71.97L541.55,65.57L541.95,67.68L542.09,65.45L542.36,69.35L542.9,64.64L543.17,70.63L543.31,67.39L543.85,71.5L543.98,70.55L544.12,73.93L544.25,66.76L544.39,65.16L544.8,65.37L544.93,71.4L545.07,64.32L545.34,68.23L545.88,67.33L546.01,68.26L546.15,59.82L546.83,77.42L546.96,66.52L547.1,62.63L547.64,70.46L547.91,66.37L548.04,71.41L548.18,66.04L548.86,68.39L548.99,67.09L549.13,63.54L549.67,65.3L549.8,70.33L550.48,70.83L550.62,65.41L550.75,66.53L550.89,67.3L551.02,67.86L551.43,61.75L551.97,69.24L552.38,68.79L553.32,64.43L553.46,65.44L553.59,67.78L553.86,67.54L554.27,66.31L554.41,68.42L554.68,68.25L555.22,63.78L556.17,69.5L556.3,65.8L556.44,71.17L556.71,66.99L557.11,65.39L557.25,65.12L557.38,67.44L557.65,71.1L558.06,68.39L558.2,67.2L559.14,77.36L559.28,72.03L559.95,65.21L560.09,69.02L560.23,68.1L560.36,68.31L560.5,67.42L560.9,66.58L561.17,70.8L561.31,67.26L561.44,62.47L561.85,68.12L562.39,65.71L562.8,65.31L562.93,64.94L563.07,66.34L563.2,67.62L563.88,69.64L564.02,68.64L564.15,67.23L564.83,67.66L564.96,66.46L565.1,68.76L565.23,69.77L565.64,67.35L565.78,68.01L566.05,70.87L566.59,66.31L566.72,68.07L566.99,71.59L567.53,65.19L567.67,66.31L567.81,65.72L567.94,67.09L568.08,68.88L568.89,66.41L569.02,67.08L569.43,66.87L569.56,68.36L569.7,64.64L569.97,65.95L570.38,67.47L570.51,67.39L570.65,68.33L570.92,69.52L571.32,68.54L571.46,58.07L572.27,69.89L572.41,65.56L572.68,65.1L573.35,68.75L573.49,67.63L573.76,65.57L574.17,67.68L574.44,67.74L574.57,67.11L574.71,68.81L575.11,67.02L575.66,67.71L576.06,68.76L576.47,66.02L576.6,67.57L577.14,66.53L577.28,71.8L577.55,64.05L577.96,63.75L578.09,61.78L578.36,68.51L578.5,69.55L579.17,65.92L579.31,70.4L579.99,66.23L580.12,70.19L580.26,66.22L580.93,67.45L581.07,66.26L581.21,67.27L581.34,64.53L581.75,67.15L581.88,65.96L582.02,68.07L582.69,67.65L582.83,68.05L583.1,68.22L583.24,65.95L583.64,66.62L583.78,71.53L584.18,67.8L584.59,70.61L585.13,65.16L585.54,66.55L585.81,72.18L586.08,71.62L586.48,65.42L586.62,63.19L586.75,67.59L587.03,65.01L587.43,67.42L587.57,68.39L587.7,66.68L587.97,67.86L588.38,67.69L588.65,69.08L588.79,66.91L588.92,68.72L589.33,66.26L589.73,64.77L589.87,68.51L590.27,64.68L590.82,66.52L591.22,67.06L591.49,68.69L591.63,67.18L591.76,66.41L592.3,68.28L592.57,68.9L592.71,67.03L593.25,67.72L593.52,65.57L593.66,65.9L594.06,67.35L594.33,68.28L594.61,66.08L595.15,67.54L595.42,67.2L595.96,67.69L596.09,64.65L596.5,68.01L596.91,67.95L597.04,56.39L597.18,67.86L597.85,65.66L597.99,66.76L598.26,67.98L598.8,64.92L598.94,66.79L599.07,67.78L599.34,66.05L599.88,66.91L600.02,68.4L600.29,67.12L600.7,67.44L600.83,63.31L600.97,68.78L601.24,68.19L601.64,67.26L601.78,68.31L602.05,66.84L602.18,67.44L602.59,67.85L603,68.58L603.13,65.32L603.54,69.97L603.67,65.15L604.08,67.17L604.49,63.13L604.89,67.94L605.03,67.47L605.43,65.92L606.38,69.85L606.52,67.27L606.65,68.66L606.79,66.36L607.33,68.48L607.46,68.31L607.6,64.88L608.28,66.19L608.41,68.81L608.82,63.12L609.22,66.13L609.36,68.21L609.49,68.33L609.63,63.87L609.76,61.43L610.17,66.05L610.31,68.63L610.58,64.29L610.71,68.13L611.12,67.88L611.25,75.39L611.39,64.08L611.66,66.13L612.07,67.82L612.34,66.73L613.15,68.9L613.28,66.9L613.42,64.11L613.55,69.82L613.96,66.75L614.1,66.14L614.37,76.58L614.5,72.89L614.91,65.77L615.31,70.57L615.45,61.4L615.86,69.53L615.99,66.23L616.4,68.22L616.8,70.68L616.94,64.37L617.07,70.77L617.34,68.31L617.75,66.64L618.02,69.58L618.16,65.35L618.29,66.2L618.7,66.82L618.83,67.21L618.97,64.47L619.92,68.55L620.05,67.63L620.19,64.79L620.59,66.55L620.73,66.45L620.86,71.9L621.68,56.85L621.81,69.89L622.08,63.89L622.62,66.05L622.76,75.22L623.03,63.96L623.57,68.51L623.71,72.18L624.38,63.66L624.52,67.23L624.65,68.6L624.92,65.11L625.47,66.87L625.6,66.55L625.87,70.5L626.41,67.78L626.68,71.49L626.82,63.21L627.5,69.59L627.77,69.35L628.17,67.44L628.44,71.56L628.71,69.55L629.12,63.63L629.39,68.96L629.66,68L630.07,66.52L630.2,69.03L630.34,64.65L630.61,66.72L631.02,67.44L631.29,68.36L631.56,63.18L631.96,66.64L632.23,73.22L632.5,67.65L632.91,66.13L633.05,68.57L633.18,66.02L633.32,59.04L633.99,70.77L634.13,65.69L634.26,60.92L635.21,68.4L635.35,68.58L635.75,71.49L635.89,70.93L636.02,64.49L636.16,68.96L636.7,62.77L636.84,64.79L637.78,72.94L637.92,63.96L638.19,69.41L638.73,68.48L638.87,67.06L639,67.45L639.14,62.56L639.54,68.99L639.95,64.9L640.08,63.84L641.03,74.21L641.57,67.48L641.71,66.81L641.84,70.32L641.98,62.97L642.66,66.33L642.79,64.56L642.93,68.51L643.47,67.59L643.6,66.04L643.87,68.88L644.42,63.15L644.55,67.29L645.5,72.21L645.63,66.93L645.77,72.87L646.31,66.84L646.45,67L646.58,78.49L646.72,73.57L647.12,57.68L647.39,74.14L647.66,58.05L648.07,65.08L648.34,59.07L648.48,68.37L648.61,68.41L649.15,68.71L649.29,65.38L649.56,62.31L649.96,68.41L650.1,67.94L650.24,72.23L650.37,65.71L650.91,67.76L651.05,70L651.32,62.95L651.45,64.91L651.86,70.17L651.99,69.84L652.13,67.22L652.4,71.63L652.81,67.62L652.94,73.51L653.21,73.42L653.35,55.74L653.75,74.2L654.16,69.19L654.7,64.96L654.84,62.68L654.97,65.74L655.11,74.19L655.65,62.71L655.92,64.97L656.06,66.64L656.6,63.89L656.73,68.13L657,78.19L657.14,68.25L657.54,70.99L658.63,56.29L658.76,67.05L658.9,57.08L659.44,66.19L659.57,65.56L659.71,63.5L659.85,68.62L659.98,68.19L660.39,70.11L660.52,64.91L660.93,65.54L661.33,68.24L661.47,65.73L661.88,68.56L662.42,68.13L662.55,68.48L662.69,62.46L663.64,70.18L663.77,68.24L664.18,65.95L664.31,69.91L664.45,67.38L664.58,70.48L664.72,67.68L665.12,72.12L665.26,66.31L665.67,71.67L666.07,64.13L667.02,72.44L667.15,65.3L667.56,63.6L667.97,67.88L668.1,71.25L668.24,62.79L668.51,68.16L668.91,66.72L669.05,69.11L669.18,65.3L669.46,67.28L669.86,65.44L670,64.79L670.13,68.45L670.27,72.39L670.81,66.96L670.94,50.65L671.76,70.48L671.89,67.32L672.03,65.08L672.16,68.47L672.84,66.79L672.97,62.89L673.11,61.12L673.25,70.72L674.73,62.59L675,63.62L675.14,66.43L675.82,73.21L676.09,72L676.49,59.22L677.04,76.51L677.44,66.99L677.58,67.34L677.71,65.03L677.85,71.1L677.98,62.82L678.52,70.2L678.66,60.71L679.61,73.67L679.74,73.1L680.28,62.86L680.42,83.36L680.69,56L681.23,60.32L681.37,68.98L681.5,75.32L681.64,62.58L681.77,65.51L682.18,64.4L682.31,79.03L682.45,60.44L682.72,73.64L683.13,65.94L683.26,59.16L683.4,62.47L683.53,89.72L684.21,58.23L684.34,68.63L684.48,73.58L684.61,83.04L685.02,70.45L685.16,75.71L685.29,60.59L685.97,80.9L686.1,67.83L686.24,74.29L686.51,64.02L686.92,68.1L687.05,57.44L687.19,69.63L687.46,58.14L687.86,79.77L688.4,65.86L688.81,68.99L689.08,64.75L689.22,75.77L689.76,64.33L689.89,75.33L690.03,73.65L690.16,76.72L690.3,73.4L690.71,51.96L691.92,91.22L692.06,58.39L692.19,68.03L692.87,66.79L693.01,69.81L693.14,70.98L693.55,62.91L694.09,72.83L694.63,66.6L694.9,59.91L695.44,69.97L695.58,51.62L695.85,67.41L696.39,63.12L696.53,67.44L696.66,72.5L696.8,67.23L696.93,69.01L697.34,65.33L697.47,68.6L697.88,66.76L698.42,65.88L698.56,68.99L698.69,64.66L699.23,67.38L699.37,66.72L699.5,70.12L699.64,64.79L699.77,66.21L700.18,68.01L700.45,70.57L700.59,66.92L700.72,58.51L702.08,69.78L702.21,65.08L702.35,57.1L702.48,73.62L702.62,71.01L703.02,70.47L703.16,65L703.56,65.59L703.97,63.35L704.51,62.87L704.92,68.44L705.05,65.85L705.19,70.05L705.46,66.99L705.87,67.5L706,61.69L706.27,66.52L706.81,63.09L707.76,73.46L707.9,52.7L708.71,75.99L708.84,67.47L709.25,84.79L709.66,63.11L710.06,69.16L710.2,76.43L710.6,62.25L711.14,68.65L711.69,68.81L711.96,72.4L712.5,57.99L712.63,63.17L712.77,63.5L712.9,60.11L713.45,64.18L713.58,68.47L713.85,69.66L713.99,65.8L714.39,60.67L715.34,72.06L715.48,61.16L715.75,70.27L716.29,65.76L716.42,65L716.83,73.87L717.23,65.7L717.37,64.54L717.51,69.76L717.78,64.66L718.18,68.6L718.32,69.26L718.59,72.15L718.72,60.56L719.13,65.09L719.27,67.79L719.4,70.02L719.67,64.61L720.08,68.89L720.21,61.12L720.62,83.61L721.02,62.02L721.3,60.92L721.43,70.05L721.57,68.3L721.97,54.75L722.11,76.9L722.51,61.74L722.92,67.52L723.06,64.1L723.19,67.8L723.33,82.32L723.46,61.74L724.14,62.29L724.27,67.94L724.41,72.11L724.95,62.28L725.09,61.37L725.22,67.56L725.9,57.16L726.03,68.29L726.17,74.07L726.3,65.8L726.71,66.33L726.84,64.42L727.12,72.4L727.66,69.1L727.79,62.49L728.2,59.78L728.74,76.01L728.88,64.73L729.01,58.21L729.15,67.46L729.55,71.54L729.96,58.32L730.09,68.04L730.5,68.36L730.63,68.96L730.77,66.16L730.91,65.83L731.04,61.36L731.45,68.36L731.58,62.68L731.72,66.93L731.85,63.02L731.99,63.81L732.39,76.21L732.8,56.9L732.94,65L733.34,68.09L733.61,63.08L733.75,66.46L734.29,67.89L734.42,63.75L734.56,70.29L734.7,62.84L735.24,68.75L735.37,72.2L735.78,60.62L736.18,70.66L736.32,62.19L736.73,72.19L737.13,74.62L737.54,59.81L737.67,73.24L738.08,65.18L738.35,66.49L738.62,60.44L739.03,66.71L739.16,68.54L739.43,68.41L739.57,60.67L740.11,59.04L740.38,67.7L740.52,64.94L740.92,64.33L741.06,57.45L741.33,71.93L741.46,63.96L741.87,69.66L742.41,57.55L742.82,73.98L743.09,61.66L743.36,70.79L743.9,65.83L744.03,65.23L744.17,68.92L744.31,81.63L744.71,54.37L744.85,57.52L745.12,89.15L745.25,68.81L745.66,52.19L746.07,74.17L746.61,70.45L746.74,56.11L747.15,76.49L747.69,60.58L748.1,89.92L748.5,82.74L748.64,60.65L748.77,96.34L749.04,29.22L749.45,81.82L749.58,47.33L749.99,101.95L750.4,38.67L750.8,22.76L750.94,121.37L751.34,51.5L751.75,90.93L751.89,74.87L752.29,33.64L752.7,83.64L752.83,56.89L753.24,68.32L753.37,87.68L753.51,61.48L753.64,72.83L753.78,35.83L754.19,72.11L754.59,59.61L755.13,46.76L755.68,76.37L756.08,80.42L756.49,55.58L756.62,67.23L757.03,74.44L757.16,53.76L757.43,74.66L757.57,61.38L757.98,60.91L758.38,56.68L759.06,73.2L759.19,64.69L759.33,70.29L759.47,56.62L759.87,70.27L760.01,58.36L760.14,71.12L760.41,70.79L760.95,65.46L761.22,68L761.36,61.65L761.77,65.29L761.9,64.85L762.04,71.75L762.71,51.68L762.85,54.21L762.98,93.04L763.66,53.85L763.8,68.27L763.93,67.32L764.07,70.56L764.2,53.76L764.61,56L764.74,77.28L765.01,84.41L765.15,55.26L765.56,62.99L765.69,68.57L765.83,67.53L765.96,52.87L767.04,70.2L767.45,58.02L767.72,74.78L767.86,68.71L767.99,55.31L768.67,94.2L768.8,68.92L768.94,54.31L769.35,76.91L769.62,60.61L769.75,6.89L770.7,83.1L770.83,57.81L771.24,87.72L771.38,45.64L771.65,68.15L771.78,69.34L772.46,52.07L772.59,30.83L773.41,76.64L773.54,68.75L774.08,36.58L774.22,84.28L774.35,130.89L774.49,67.05L774.62,116.56L775.17,40.43L775.3,90.6L775.98,66.42L776.11,88.07L776.38,88.61L776.52,48.02L776.93,57.12L777.06,95.78L777.33,43.08L777.87,72.77L778.01,57.18L778.28,90.24L778.41,46.58L778.82,87.65L779.23,55.49L779.36,22.79L779.77,87.41L780.31,85.84L780.72,58.32L780.99,74.28L781.26,67.47L781.66,58.2L781.93,42.72L782.07,106.44L782.2,68.08L782.61,57.48L782.75,40.37L783.15,81.81L783.56,69.64L783.69,46.34L784.1,61.27L784.51,73.01L784.64,75.73L784.78,63.86L784.91,75.36L785.05,88.55L785.99,52.72L786.4,45.43L786.81,71.69L786.94,58.5L787.35,63.74L787.48,83.19L787.62,58.74L787.89,71.33L788.3,30.8L788.7,79.85L788.84,58.05L789.24,45.55L789.38,73.08L789.65,39.11L790.19,78.5L790.6,87.29L791.14,57.9L791.27,94.09L791.41,41.52L791.68,86.02L792.09,68.62L792.22,54.95L792.36,79.46L792.63,63.38L793.17,42.24L793.3,38.39L793.44,54.29L793.57,44.35L793.98,66.09L794.39,98.43L794.52,54.41L795.06,73.86L795.2,46.76L795.87,72.96L796.01,71.27L796.15,69.1L796.28,66.09L796.42,80.66L796.96,81.69L797.09,74.34L797.23,66.57L797.36,90.84L797.77,68.38L797.91,70.61L798.04,93.79L798.31,28.21L798.72,83.62L798.85,85.96L799.12,59.77L799.26,98.01L799.66,39.08L800.21,49.71L800.61,58.02L800.88,93.01L801.15,47.06L801.56,72.65L801.7,82.29L801.97,63.8L802.1,66.45L802.51,76.51L802.91,50.07L803.45,65.67L803.86,51.67L804,78.1L804.4,48.32L804.54,81.99L804.94,63.44L805.35,77.95L805.76,53.2L805.89,65.13L806.3,69.52L806.57,68.14L806.7,79.7L806.84,61.03L807.24,95.78L807.52,57.66L807.65,63.38L807.79,87.77L808.33,86.45L808.46,54.29L808.6,52.6L808.73,74.64L809.14,76.09L809.27,68.5L809.41,51.76L809.55,78.86L809.68,57.48L810.09,68.74L810.22,67.84L810.36,76.99L811.17,62.84L811.31,76.69L811.44,53.38L812.12,65.19L812.25,73.68L812.52,48.69L813.06,64.46L813.2,57.66L813.34,75.55L813.47,56.45L814.01,69.22L814.15,69.28L814.42,57.48L814.96,63.74L815.1,65.67L815.23,51.34L815.91,52.18L816.04,75.55L816.85,46.4L816.99,71.57L817.26,91.26L817.67,45.25L817.8,72.05L818.21,64.95L818.61,80.91L819.56,56.45L819.7,70L819.83,66.87L819.97,71.75L820.1,67.84L820.51,70.49L820.78,49.29L821.05,55.37L821.46,73.14L821.59,90.6L822,58.38L822.4,68.08L822.54,75.12L822.81,61.15L822.95,40.31L823.35,75.3L823.76,63.62L823.89,53.14L824.71,98.25L824.84,64.04L825.38,62.05L825.79,86.32L826.19,64.58L826.33,52.96L826.74,76.87L827.14,88.37L827.55,60.61L827.68,88.67L828.09,55.67L829.04,75.36L829.17,71.15L829.31,50.37L829.98,54.23L830.12,64.52L830.39,72.29L830.53,67.84L830.93,63.44L831.2,45.13L831.34,84.22L831.47,72.59L831.88,61.15L832.01,58.68L832.15,70.73L832.28,64.28L832.42,72.59L832.83,65.31L832.96,84.94L834.04,41.16L834.18,51.4L834.99,98.43L835.26,46.88L835.67,37.06L835.8,70.73L836.07,79.1L836.21,46.58L836.62,32.24L836.75,44.05L836.89,70.67L837.16,89.88L837.7,37.6L837.83,109.93L838.51,48.02L838.65,51.58L838.78,63.68L838.92,43.14L839.46,73.8L839.59,66.99L839.73,74.64L839.86,71.33L840,40.8" style="vector-effect: non-scaling-stroke; fill: none; stroke: rgb(99, 110, 250); stroke-opacity: 1; stroke-width: 2px; opacity: 1;"/></g><g class="points"/><g class="text"/></g></g></g><g class="overplot"/><path class="xlines-above crisp" d="M79,238.27777777777777H920" style="fill: none; stroke-width: 1px; stroke: rgb(255, 255, 255); stroke-opacity: 1;"/><path class="ylines-above crisp" d="M79.5,100V237.77777777777777" style="fill: none; stroke-width: 1px; stroke: rgb(255, 255, 255); stroke-opacity: 1;"/><g class="overlines-above"/><g class="xaxislayer-above"><g class="xtick"><text text-anchor="middle" x="0" y="253.17777777777778" transform="translate(129.13,0)" style="font-family: 'Open Sans', verdana, arial, sans-serif; font-size: 12px; fill: rgb(42, 63, 95); fill-opacity: 1; white-space: pre;">2006</text></g><g class="xtick"><text text-anchor="middle" x="0" y="253.17777777777778" transform="translate(227.94,0)" style="font-family: 'Open Sans', verdana, arial, sans-serif; font-size: 12px; fill: rgb(42, 63, 95); fill-opacity: 1; white-space: pre;">2008</text></g><g class="xtick"><text text-anchor="middle" x="0" y="253.17777777777778" transform="translate(326.88,0)" style="font-family: 'Open Sans', verdana, arial, sans-serif; font-size: 12px; fill: rgb(42, 63, 95); fill-opacity: 1; white-space: pre;">2010</text></g><g class="xtick"><text text-anchor="middle" x="0" y="253.17777777777778" transform="translate(425.69,0)" style="font-family: 'Open Sans', verdana, arial, sans-serif; font-size: 12px; fill: rgb(42, 63, 95); fill-opacity: 1; white-space: pre;">2012</text></g><g class="xtick"><text text-anchor="middle" x="0" y="253.17777777777778" transform="translate(524.63,0)" style="font-family: 'Open Sans', verdana, arial, sans-serif; font-size: 12px; fill: rgb(42, 63, 95); fill-opacity: 1; white-space: pre;">2014</text></g><g class="xtick"><text text-anchor="middle" x="0" y="253.17777777777778" transform="translate(623.44,0)" style="font-family: 'Open Sans', verdana, arial, sans-serif; font-size: 12px; fill: rgb(42, 63, 95); fill-opacity: 1; white-space: pre;">2016</text></g><g class="xtick"><text text-anchor="middle" x="0" y="253.17777777777778" transform="translate(722.38,0)" style="font-family: 'Open Sans', verdana, arial, sans-serif; font-size: 12px; fill: rgb(42, 63, 95); fill-opacity: 1; white-space: pre;">2018</text></g><g class="xtick"><text text-anchor="middle" x="0" y="253.17777777777778" transform="translate(821.19,0)" style="font-family: 'Open Sans', verdana, arial, sans-serif; font-size: 12px; fill: rgb(42, 63, 95); fill-opacity: 1; white-space: pre;">2020</text></g></g><g class="yaxislayer-above"><g class="ytick"><text text-anchor="end" x="76.6" y="4.199999999999999" transform="translate(0,227.74)" style="font-family: 'Open Sans', verdana, arial, sans-serif; font-size: 12px; fill: rgb(42, 63, 95); fill-opacity: 1; white-space: pre;">−10</text></g><g class="ytick"><text text-anchor="end" x="76.6" y="4.199999999999999" transform="translate(0,197.63)" style="font-family: 'Open Sans', verdana, arial, sans-serif; font-size: 12px; fill: rgb(42, 63, 95); fill-opacity: 1; white-space: pre;">−5</text></g><g class="ytick"><text text-anchor="end" x="76.6" y="4.199999999999999" transform="translate(0,167.51)" style="font-family: 'Open Sans', verdana, arial, sans-serif; font-size: 12px; fill: rgb(42, 63, 95); fill-opacity: 1; white-space: pre;">0</text></g><g class="ytick"><text text-anchor="end" x="76.6" y="4.199999999999999" transform="translate(0,137.4)" style="font-family: 'Open Sans', verdana, arial, sans-serif; font-size: 12px; fill: rgb(42, 63, 95); fill-opacity: 1; white-space: pre;">5</text></g><g class="ytick"><text text-anchor="end" x="76.6" y="4.199999999999999" transform="translate(0,107.29)" style="font-family: 'Open Sans', verdana, arial, sans-serif; font-size: 12px; fill: rgb(42, 63, 95); fill-opacity: 1; white-space: pre;">10</text></g></g><g class="overaxes-above"/></g><g class="subplot x2y2"><g class="layer-subplot"><g class="shapelayer"/><g class="imagelayer"/></g><g class="gridlayer"><g class="x2"><path class="x2grid crisp" transform="translate(239.47,0)" d="M0,341.1111111111111v137.7777777777778" style="stroke: rgb(255, 255, 255); stroke-opacity: 1; stroke-width: 1px;"/><path class="x2grid crisp" transform="translate(397.37,0)" d="M0,341.1111111111111v137.7777777777778" style="stroke: rgb(255, 255, 255); stroke-opacity: 1; stroke-width: 1px;"/><path class="x2grid crisp" transform="translate(555.26,0)" d="M0,341.1111111111111v137.7777777777778" style="stroke: rgb(255, 255, 255); stroke-opacity: 1; stroke-width: 1px;"/><path class="x2grid crisp" transform="translate(713.16,0)" d="M0,341.1111111111111v137.7777777777778" style="stroke: rgb(255, 255, 255); stroke-opacity: 1; stroke-width: 1px;"/><path class="x2grid crisp" transform="translate(871.05,0)" d="M0,341.1111111111111v137.7777777777778" style="stroke: rgb(255, 255, 255); stroke-opacity: 1; stroke-width: 1px;"/></g><g class="y2"><path class="y2grid crisp" transform="translate(0,405.0611111111111)" d="M80,0h840" style="stroke: rgb(255, 255, 255); stroke-opacity: 1; stroke-width: 1px;"/><path class="y2grid crisp" transform="translate(0,348.0011111111111)" d="M80,0h840" style="stroke: rgb(255, 255, 255); stroke-opacity: 1; stroke-width: 1px;"/></g></g><g class="zerolinelayer"><path class="x2zl zl crisp" transform="translate(81.58,0)" d="M0,341.1111111111111v137.7777777777778" style="stroke: rgb(255, 255, 255); stroke-opacity: 1; stroke-width: 2px;"/><path class="y2zl zl crisp" transform="translate(0,462.1211111111111)" d="M80,0h840" style="stroke: rgb(255, 255, 255); stroke-opacity: 1; stroke-width: 2px;"/></g><path class="xlines-below"/><path class="ylines-below"/><g class="overlines-below"/><g class="xaxislayer-below"/><g class="yaxislayer-below"/><g class="overaxes-below"/><g class="plot" transform="translate(80, 341.1111111111111)" clip-path="url('#clip57eecbx2y2plot')"><g class="barlayer mlayer"><g class="trace bars" style="opacity: 1;"><g class="points"><g class="point"><path d="M0.32,121.01V6.89H2.84V121.01Z" style="vector-effect: non-scaling-stroke; opacity: 1; stroke-width: 0.5px; fill: rgb(239, 85, 59); fill-opacity: 1; stroke: rgb(229, 236, 246); stroke-opacity: 1;"/></g><g class="point"><path d="M3.47,121.01V130.89H6V121.01Z" style="vector-effect: non-scaling-stroke; opacity: 1; stroke-width: 0.5px; fill: rgb(239, 85, 59); fill-opacity: 1; stroke: rgb(229, 236, 246); stroke-opacity: 1;"/></g><g class="point"><path d="M6.63,121.01V118.28H9.16V121.01Z" style="vector-effect: non-scaling-stroke; opacity: 1; stroke-width: 0.5px; fill: rgb(239, 85, 59); fill-opacity: 1; stroke: rgb(229, 236, 246); stroke-opacity: 1;"/></g><g class="point"><path d="M9.79,121.01V124.63H12.32V121.01Z" style="vector-effect: non-scaling-stroke; opacity: 1; stroke-width: 0.5px; fill: rgb(239, 85, 59); fill-opacity: 1; stroke: rgb(229, 236, 246); stroke-opacity: 1;"/></g><g class="point"><path d="M12.95,121.01V121.66H15.47V121.01Z" style="vector-effect: non-scaling-stroke; opacity: 1; stroke-width: 0.5px; fill: rgb(239, 85, 59); fill-opacity: 1; stroke: rgb(229, 236, 246); stroke-opacity: 1;"/></g><g class="point"><path d="M16.11,121.01V118.4H18.63V121.01Z" style="vector-effect: non-scaling-stroke; opacity: 1; stroke-width: 0.5px; fill: rgb(239, 85, 59); fill-opacity: 1; stroke: rgb(229, 236, 246); stroke-opacity: 1;"/></g><g class="point"><path d="M47.68,121.01V121.83H50.21V121.01Z" style="vector-effect: non-scaling-stroke; opacity: 1; stroke-width: 0.5px; fill: rgb(239, 85, 59); fill-opacity: 1; stroke: rgb(229, 236, 246); stroke-opacity: 1;"/></g><g class="point"><path d="M50.84,121.01V112.64H53.37V121.01Z" style="vector-effect: non-scaling-stroke; opacity: 1; stroke-width: 0.5px; fill: rgb(239, 85, 59); fill-opacity: 1; stroke: rgb(229, 236, 246); stroke-opacity: 1;"/></g><g class="point"><path d="M54,121.01V125.2H56.53V121.01Z" style="vector-effect: non-scaling-stroke; opacity: 1; stroke-width: 0.5px; fill: rgb(239, 85, 59); fill-opacity: 1; stroke: rgb(229, 236, 246); stroke-opacity: 1;"/></g><g class="point"><path d="M57.16,121.01V109.78H59.68V121.01Z" style="vector-effect: non-scaling-stroke; opacity: 1; stroke-width: 0.5px; fill: rgb(239, 85, 59); fill-opacity: 1; stroke: rgb(229, 236, 246); stroke-opacity: 1;"/></g><g class="point"><path d="M60.32,121.01V120.53H62.84V121.01Z" style="vector-effect: non-scaling-stroke; opacity: 1; stroke-width: 0.5px; fill: rgb(239, 85, 59); fill-opacity: 1; stroke: rgb(229, 236, 246); stroke-opacity: 1;"/></g><g class="point"><path d="M63.47,121.01V129.57H66V121.01Z" style="vector-effect: non-scaling-stroke; opacity: 1; stroke-width: 0.5px; fill: rgb(239, 85, 59); fill-opacity: 1; stroke: rgb(229, 236, 246); stroke-opacity: 1;"/></g><g class="point"><path d="M66.63,121.01V119.4H69.16V121.01Z" style="vector-effect: non-scaling-stroke; opacity: 1; stroke-width: 0.5px; fill: rgb(239, 85, 59); fill-opacity: 1; stroke: rgb(229, 236, 246); stroke-opacity: 1;"/></g><g class="point"><path d="M69.79,121.01V123.83H72.32V121.01Z" style="vector-effect: non-scaling-stroke; opacity: 1; stroke-width: 0.5px; fill: rgb(239, 85, 59); fill-opacity: 1; stroke: rgb(229, 236, 246); stroke-opacity: 1;"/></g><g class="point"><path d="M72.95,121.01V117.32H75.47V121.01Z" style="vector-effect: non-scaling-stroke; opacity: 1; stroke-width: 0.5px; fill: rgb(239, 85, 59); fill-opacity: 1; stroke: rgb(229, 236, 246); stroke-opacity: 1;"/></g><g class="point"><path d="M76.11,121.01V127.89H78.63V121.01Z" style="vector-effect: non-scaling-stroke; opacity: 1; stroke-width: 0.5px; fill: rgb(239, 85, 59); fill-opacity: 1; stroke: rgb(229, 236, 246); stroke-opacity: 1;"/></g><g class="point"><path d="M79.26,121.01V121H81.79V121.01Z" style="vector-effect: non-scaling-stroke; opacity: 1; stroke-width: 0.5px; fill: rgb(239, 85, 59); fill-opacity: 1; stroke: rgb(229, 236, 246); stroke-opacity: 1;"/></g><g class="point"><path d="M237.16,121.01V119.96H239.68V121.01Z" style="vector-effect: non-scaling-stroke; opacity: 1; stroke-width: 0.5px; fill: rgb(239, 85, 59); fill-opacity: 1; stroke: rgb(229, 236, 246); stroke-opacity: 1;"/></g><g class="point"><path d="M240.32,121.01V124.47H242.84V121.01Z" style="vector-effect: non-scaling-stroke; opacity: 1; stroke-width: 0.5px; fill: rgb(239, 85, 59); fill-opacity: 1; stroke: rgb(229, 236, 246); stroke-opacity: 1;"/></g><g class="point"><path d="M243.47,121.01V123.04H246V121.01Z" style="vector-effect: non-scaling-stroke; opacity: 1; stroke-width: 0.5px; fill: rgb(239, 85, 59); fill-opacity: 1; stroke: rgb(229, 236, 246); stroke-opacity: 1;"/></g><g class="point"><path d="M246.63,121.01V119.07H249.16V121.01Z" style="vector-effect: non-scaling-stroke; opacity: 1; stroke-width: 0.5px; fill: rgb(239, 85, 59); fill-opacity: 1; stroke: rgb(229, 236, 246); stroke-opacity: 1;"/></g><g class="point"><path d="M249.79,121.01V115.32H252.32V121.01Z" style="vector-effect: non-scaling-stroke; opacity: 1; stroke-width: 0.5px; fill: rgb(239, 85, 59); fill-opacity: 1; stroke: rgb(229, 236, 246); stroke-opacity: 1;"/></g><g class="point"><path d="M252.95,121.01V123.65H255.47V121.01Z" style="vector-effect: non-scaling-stroke; opacity: 1; stroke-width: 0.5px; fill: rgb(239, 85, 59); fill-opacity: 1; stroke: rgb(229, 236, 246); stroke-opacity: 1;"/></g><g class="point"><path d="M256.11,121.01V115.33H258.63V121.01Z" style="vector-effect: non-scaling-stroke; opacity: 1; stroke-width: 0.5px; fill: rgb(239, 85, 59); fill-opacity: 1; stroke: rgb(229, 236, 246); stroke-opacity: 1;"/></g><g class="point"><path d="M259.26,121.01V120.35H261.79V121.01Z" style="vector-effect: non-scaling-stroke; opacity: 1; stroke-width: 0.5px; fill: rgb(239, 85, 59); fill-opacity: 1; stroke: rgb(229, 236, 246); stroke-opacity: 1;"/></g><g class="point"><path d="M262.42,121.01V116.79H264.95V121.01Z" style="vector-effect: non-scaling-stroke; opacity: 1; stroke-width: 0.5px; fill: rgb(239, 85, 59); fill-opacity: 1; stroke: rgb(229, 236, 246); stroke-opacity: 1;"/></g><g class="point"><path d="M265.58,121.01V119.74H268.11V121.01Z" style="vector-effect: non-scaling-stroke; opacity: 1; stroke-width: 0.5px; fill: rgb(239, 85, 59); fill-opacity: 1; stroke: rgb(229, 236, 246); stroke-opacity: 1;"/></g><g class="point"><path d="M268.74,121.01V121.79H271.26V121.01Z" style="vector-effect: non-scaling-stroke; opacity: 1; stroke-width: 0.5px; fill: rgb(239, 85, 59); fill-opacity: 1; stroke: rgb(229, 236, 246); stroke-opacity: 1;"/></g><g class="point"><path d="M271.89,121.01V118.78H274.42V121.01Z" style="vector-effect: non-scaling-stroke; opacity: 1; stroke-width: 0.5px; fill: rgb(239, 85, 59); fill-opacity: 1; stroke: rgb(229, 236, 246); stroke-opacity: 1;"/></g><g class="point"><path d="M275.05,121.01V125.49H277.58V121.01Z" style="vector-effect: non-scaling-stroke; opacity: 1; stroke-width: 0.5px; fill: rgb(239, 85, 59); fill-opacity: 1; stroke: rgb(229, 236, 246); stroke-opacity: 1;"/></g><g class="point"><path d="M278.21,121.01V117H280.74V121.01Z" style="vector-effect: non-scaling-stroke; opacity: 1; stroke-width: 0.5px; fill: rgb(239, 85, 59); fill-opacity: 1; stroke: rgb(229, 236, 246); stroke-opacity: 1;"/></g><g class="point"><path d="M281.37,121.01V122.74H283.89V121.01Z" style="vector-effect: non-scaling-stroke; opacity: 1; stroke-width: 0.5px; fill: rgb(239, 85, 59); fill-opacity: 1; stroke: rgb(229, 236, 246); stroke-opacity: 1;"/></g><g class="point"><path d="M284.53,121.01V120.08H287.05V121.01Z" style="vector-effect: non-scaling-stroke; opacity: 1; stroke-width: 0.5px; fill: rgb(239, 85, 59); fill-opacity: 1; stroke: rgb(229, 236, 246); stroke-opacity: 1;"/></g><g class="point"><path d="M287.68,121.01V121.54H290.21V121.01Z" style="vector-effect: non-scaling-stroke; opacity: 1; stroke-width: 0.5px; fill: rgb(239, 85, 59); fill-opacity: 1; stroke: rgb(229, 236, 246); stroke-opacity: 1;"/></g><g class="point"><path d="M290.84,121.01V119.83H293.37V121.01Z" style="vector-effect: non-scaling-stroke; opacity: 1; stroke-width: 0.5px; fill: rgb(239, 85, 59); fill-opacity: 1; stroke: rgb(229, 236, 246); stroke-opacity: 1;"/></g><g class="point"><path d="M294,121.01V128.56H296.53V121.01Z" style="vector-effect: non-scaling-stroke; opacity: 1; stroke-width: 0.5px; fill: rgb(239, 85, 59); fill-opacity: 1; stroke: rgb(229, 236, 246); stroke-opacity: 1;"/></g><g class="point"><path d="M297.16,121.01V125.8H299.68V121.01Z" style="vector-effect: non-scaling-stroke; opacity: 1; stroke-width: 0.5px; fill: rgb(239, 85, 59); fill-opacity: 1; stroke: rgb(229, 236, 246); stroke-opacity: 1;"/></g><g class="point"><path d="M300.32,121.01V120.99H302.84V121.01Z" style="vector-effect: non-scaling-stroke; opacity: 1; stroke-width: 0.5px; fill: rgb(239, 85, 59); fill-opacity: 1; stroke: rgb(229, 236, 246); stroke-opacity: 1;"/></g><g class="point"><path d="M758.21,121.01V125.17H760.74V121.01Z" style="vector-effect: non-scaling-stroke; opacity: 1; stroke-width: 0.5px; fill: rgb(239, 85, 59); fill-opacity: 1; stroke: rgb(229, 236, 246); stroke-opacity: 1;"/></g><g class="point"><path d="M761.37,121.01V112.14H763.89V121.01Z" style="vector-effect: non-scaling-stroke; opacity: 1; stroke-width: 0.5px; fill: rgb(239, 85, 59); fill-opacity: 1; stroke: rgb(229, 236, 246); stroke-opacity: 1;"/></g><g class="point"><path d="M764.53,121.01V121.6H767.05V121.01Z" style="vector-effect: non-scaling-stroke; opacity: 1; stroke-width: 0.5px; fill: rgb(239, 85, 59); fill-opacity: 1; stroke: rgb(229, 236, 246); stroke-opacity: 1;"/></g><g class="point"><path d="M767.68,121.01V121.96H770.21V121.01Z" style="vector-effect: non-scaling-stroke; opacity: 1; stroke-width: 0.5px; fill: rgb(239, 85, 59); fill-opacity: 1; stroke: rgb(229, 236, 246); stroke-opacity: 1;"/></g><g class="point"><path d="M770.84,121.01V121.57H773.37V121.01Z" style="vector-effect: non-scaling-stroke; opacity: 1; stroke-width: 0.5px; fill: rgb(239, 85, 59); fill-opacity: 1; stroke: rgb(229, 236, 246); stroke-opacity: 1;"/></g><g class="point"><path d="M774,121.01V117.08H776.53V121.01Z" style="vector-effect: non-scaling-stroke; opacity: 1; stroke-width: 0.5px; fill: rgb(239, 85, 59); fill-opacity: 1; stroke: rgb(229, 236, 246); stroke-opacity: 1;"/></g><g class="point"><path d="M777.16,121.01V117.15H779.68V121.01Z" style="vector-effect: non-scaling-stroke; opacity: 1; stroke-width: 0.5px; fill: rgb(239, 85, 59); fill-opacity: 1; stroke: rgb(229, 236, 246); stroke-opacity: 1;"/></g><g class="point"><path d="M780.32,121.01V123.37H782.84V121.01Z" style="vector-effect: non-scaling-stroke; opacity: 1; stroke-width: 0.5px; fill: rgb(239, 85, 59); fill-opacity: 1; stroke: rgb(229, 236, 246); stroke-opacity: 1;"/></g><g class="point"><path d="M783.47,121.01V121.47H786V121.01Z" style="vector-effect: non-scaling-stroke; opacity: 1; stroke-width: 0.5px; fill: rgb(239, 85, 59); fill-opacity: 1; stroke: rgb(229, 236, 246); stroke-opacity: 1;"/></g><g class="point"><path d="M786.63,121.01V123.28H789.16V121.01Z" style="vector-effect: non-scaling-stroke; opacity: 1; stroke-width: 0.5px; fill: rgb(239, 85, 59); fill-opacity: 1; stroke: rgb(229, 236, 246); stroke-opacity: 1;"/></g><g class="point"><path d="M789.79,121.01V121.24H792.32V121.01Z" style="vector-effect: non-scaling-stroke; opacity: 1; stroke-width: 0.5px; fill: rgb(239, 85, 59); fill-opacity: 1; stroke: rgb(229, 236, 246); stroke-opacity: 1;"/></g><g class="point"><path d="M792.95,121.01V117.82H795.47V121.01Z" style="vector-effect: non-scaling-stroke; opacity: 1; stroke-width: 0.5px; fill: rgb(239, 85, 59); fill-opacity: 1; stroke: rgb(229, 236, 246); stroke-opacity: 1;"/></g><g class="point"><path d="M796.11,121.01V122.34H798.63V121.01Z" style="vector-effect: non-scaling-stroke; opacity: 1; stroke-width: 0.5px; fill: rgb(239, 85, 59); fill-opacity: 1; stroke: rgb(229, 236, 246); stroke-opacity: 1;"/></g><g class="point"><path d="M799.26,121.01V125.26H801.79V121.01Z" style="vector-effect: non-scaling-stroke; opacity: 1; stroke-width: 0.5px; fill: rgb(239, 85, 59); fill-opacity: 1; stroke: rgb(229, 236, 246); stroke-opacity: 1;"/></g><g class="point"><path d="M802.42,121.01V115.95H804.95V121.01Z" style="vector-effect: non-scaling-stroke; opacity: 1; stroke-width: 0.5px; fill: rgb(239, 85, 59); fill-opacity: 1; stroke: rgb(229, 236, 246); stroke-opacity: 1;"/></g><g class="point"><path d="M805.58,121.01V118.43H808.11V121.01Z" style="vector-effect: non-scaling-stroke; opacity: 1; stroke-width: 0.5px; fill: rgb(239, 85, 59); fill-opacity: 1; stroke: rgb(229, 236, 246); stroke-opacity: 1;"/></g><g class="point"><path d="M808.74,121.01V122.53H811.26V121.01Z" style="vector-effect: non-scaling-stroke; opacity: 1; stroke-width: 0.5px; fill: rgb(239, 85, 59); fill-opacity: 1; stroke: rgb(229, 236, 246); stroke-opacity: 1;"/></g><g class="point"><path d="M811.89,121.01V114.45H814.42V121.01Z" style="vector-effect: non-scaling-stroke; opacity: 1; stroke-width: 0.5px; fill: rgb(239, 85, 59); fill-opacity: 1; stroke: rgb(229, 236, 246); stroke-opacity: 1;"/></g><g class="point"><path d="M815.05,121.01V121.86H817.58V121.01Z" style="vector-effect: non-scaling-stroke; opacity: 1; stroke-width: 0.5px; fill: rgb(239, 85, 59); fill-opacity: 1; stroke: rgb(229, 236, 246); stroke-opacity: 1;"/></g><g class="point"><path d="M818.21,121.01V115.37H820.74V121.01Z" style="vector-effect: non-scaling-stroke; opacity: 1; stroke-width: 0.5px; fill: rgb(239, 85, 59); fill-opacity: 1; stroke: rgb(229, 236, 246); stroke-opacity: 1;"/></g><g class="point"><path d="M821.37,121.01V116.76H823.89V121.01Z" style="vector-effect: non-scaling-stroke; opacity: 1; stroke-width: 0.5px; fill: rgb(239, 85, 59); fill-opacity: 1; stroke: rgb(229, 236, 246); stroke-opacity: 1;"/></g><g class="point"><path d="M824.53,121.01V121.73H827.05V121.01Z" style="vector-effect: non-scaling-stroke; opacity: 1; stroke-width: 0.5px; fill: rgb(239, 85, 59); fill-opacity: 1; stroke: rgb(229, 236, 246); stroke-opacity: 1;"/></g><g class="point"><path d="M827.68,121.01V115.47H830.21V121.01Z" style="vector-effect: non-scaling-stroke; opacity: 1; stroke-width: 0.5px; fill: rgb(239, 85, 59); fill-opacity: 1; stroke: rgb(229, 236, 246); stroke-opacity: 1;"/></g><g class="point"><path d="M830.84,121.01V122.21H833.37V121.01Z" style="vector-effect: non-scaling-stroke; opacity: 1; stroke-width: 0.5px; fill: rgb(239, 85, 59); fill-opacity: 1; stroke: rgb(229, 236, 246); stroke-opacity: 1;"/></g><g class="point"><path d="M834,121.01V123.85H836.53V121.01Z" style="vector-effect: non-scaling-stroke; opacity: 1; stroke-width: 0.5px; fill: rgb(239, 85, 59); fill-opacity: 1; stroke: rgb(229, 236, 246); stroke-opacity: 1;"/></g><g class="point"><path d="M837.16,121.01V128.18H839.68V121.01Z" style="vector-effect: non-scaling-stroke; opacity: 1; stroke-width: 0.5px; fill: rgb(239, 85, 59); fill-opacity: 1; stroke: rgb(229, 236, 246); stroke-opacity: 1;"/></g></g></g></g></g><g class="overplot"/><path class="xlines-above crisp" d="M79,479.3888888888889H920" style="fill: none; stroke-width: 1px; stroke: rgb(255, 255, 255); stroke-opacity: 1;"/><path class="ylines-above crisp" d="M79.5,341.1111111111111V478.8888888888889" style="fill: none; stroke-width: 1px; stroke: rgb(255, 255, 255); stroke-opacity: 1;"/><g class="overlines-above"/><g class="xaxislayer-above"><g class="x2tick"><text text-anchor="middle" x="0" y="494.2888888888889" transform="translate(81.58,0)" style="font-family: 'Open Sans', verdana, arial, sans-serif; font-size: 12px; fill: rgb(42, 63, 95); fill-opacity: 1; white-space: pre;">0</text></g><g class="x2tick"><text text-anchor="middle" x="0" y="494.2888888888889" transform="translate(239.47,0)" style="font-family: 'Open Sans', verdana, arial, sans-serif; font-size: 12px; fill: rgb(42, 63, 95); fill-opacity: 1; white-space: pre;">50</text></g><g class="x2tick"><text text-anchor="middle" x="0" y="494.2888888888889" transform="translate(397.37,0)" style="font-family: 'Open Sans', verdana, arial, sans-serif; font-size: 12px; fill: rgb(42, 63, 95); fill-opacity: 1; white-space: pre;">100</text></g><g class="x2tick"><text text-anchor="middle" x="0" y="494.2888888888889" transform="translate(555.26,0)" style="font-family: 'Open Sans', verdana, arial, sans-serif; font-size: 12px; fill: rgb(42, 63, 95); fill-opacity: 1; white-space: pre;">150</text></g><g class="x2tick"><text text-anchor="middle" x="0" y="494.2888888888889" transform="translate(713.16,0)" style="font-family: 'Open Sans', verdana, arial, sans-serif; font-size: 12px; fill: rgb(42, 63, 95); fill-opacity: 1; white-space: pre;">200</text></g><g class="x2tick"><text text-anchor="middle" x="0" y="494.2888888888889" transform="translate(871.05,0)" style="font-family: 'Open Sans', verdana, arial, sans-serif; font-size: 12px; fill: rgb(42, 63, 95); fill-opacity: 1; white-space: pre;">250</text></g></g><g class="yaxislayer-above"><g class="y2tick"><text text-anchor="end" x="76.6" y="4.199999999999999" transform="translate(0,462.1211111111111)" style="font-family: 'Open Sans', verdana, arial, sans-serif; font-size: 12px; fill: rgb(42, 63, 95); fill-opacity: 1; white-space: pre;">0</text></g><g class="y2tick"><text text-anchor="end" x="76.6" y="4.199999999999999" transform="translate(0,405.0611111111111)" style="font-family: 'Open Sans', verdana, arial, sans-serif; font-size: 12px; fill: rgb(42, 63, 95); fill-opacity: 1; white-space: pre;">0.5</text></g><g class="y2tick"><text text-anchor="end" x="76.6" y="4.199999999999999" transform="translate(0,348.0011111111111)" style="font-family: 'Open Sans', verdana, arial, sans-serif; font-size: 12px; fill: rgb(42, 63, 95); fill-opacity: 1; white-space: pre;">1</text></g></g><g class="overaxes-above"/></g><g class="subplot x3y3"><g class="layer-subplot"><g class="shapelayer"/><g class="imagelayer"/></g><g class="gridlayer"><g class="x3"><path class="x3grid crisp" transform="translate(270.90999999999997,0)" d="M0,582.2222222222222v137.7777777777778" style="stroke: rgb(255, 255, 255); stroke-opacity: 1; stroke-width: 1px;"/><path class="x3grid crisp" transform="translate(423.64,0)" d="M0,582.2222222222222v137.7777777777778" style="stroke: rgb(255, 255, 255); stroke-opacity: 1; stroke-width: 1px;"/><path class="x3grid crisp" transform="translate(576.36,0)" d="M0,582.2222222222222v137.7777777777778" style="stroke: rgb(255, 255, 255); stroke-opacity: 1; stroke-width: 1px;"/><path class="x3grid crisp" transform="translate(729.09,0)" d="M0,582.2222222222222v137.7777777777778" style="stroke: rgb(255, 255, 255); stroke-opacity: 1; stroke-width: 1px;"/><path class="x3grid crisp" transform="translate(881.82,0)" d="M0,582.2222222222222v137.7777777777778" style="stroke: rgb(255, 255, 255); stroke-opacity: 1; stroke-width: 1px;"/></g><g class="y3"><path class="y3grid crisp" transform="translate(0,646.1722222222222)" d="M80,0h840" style="stroke: rgb(255, 255, 255); stroke-opacity: 1; stroke-width: 1px;"/><path class="y3grid crisp" transform="translate(0,589.1122222222222)" d="M80,0h840" style="stroke: rgb(255, 255, 255); stroke-opacity: 1; stroke-width: 1px;"/></g></g><g class="zerolinelayer"><path class="x3zl zl crisp" transform="translate(118.18,0)" d="M0,582.2222222222222v137.7777777777778" style="stroke: rgb(255, 255, 255); stroke-opacity: 1; stroke-width: 2px;"/><path class="y3zl zl crisp" transform="translate(0,703.2322222222222)" d="M80,0h840" style="stroke: rgb(255, 255, 255); stroke-opacity: 1; stroke-width: 2px;"/></g><path class="xlines-below"/><path class="ylines-below"/><g class="overlines-below"/><g class="xaxislayer-below"/><g class="yaxislayer-below"/><g class="overaxes-below"/><g class="plot" transform="translate(80, 582.2222222222222)" clip-path="url('#clip57eecbx3y3plot')"><g class="barlayer mlayer"><g class="trace bars" style="opacity: 1;"><g class="points"><g class="point"><path d="M7.64,121.01V6.89H68.73V121.01Z" style="vector-effect: non-scaling-stroke; opacity: 1; stroke-width: 0.5px; fill: rgb(0, 204, 150); fill-opacity: 1; stroke: rgb(229, 236, 246); stroke-opacity: 1;"/></g><g class="point"><path d="M84,121.01V130.89H145.09V121.01Z" style="vector-effect: non-scaling-stroke; opacity: 1; stroke-width: 0.5px; fill: rgb(0, 204, 150); fill-opacity: 1; stroke: rgb(229, 236, 246); stroke-opacity: 1;"/></g><g class="point"><path d="M160.36,121.01V119.12H221.45V121.01Z" style="vector-effect: non-scaling-stroke; opacity: 1; stroke-width: 0.5px; fill: rgb(0, 204, 150); fill-opacity: 1; stroke: rgb(229, 236, 246); stroke-opacity: 1;"/></g><g class="point"><path d="M236.73,121.01V124.26H297.82V121.01Z" style="vector-effect: non-scaling-stroke; opacity: 1; stroke-width: 0.5px; fill: rgb(0, 204, 150); fill-opacity: 1; stroke: rgb(229, 236, 246); stroke-opacity: 1;"/></g><g class="point"><path d="M313.09,121.01V122.3H374.18V121.01Z" style="vector-effect: non-scaling-stroke; opacity: 1; stroke-width: 0.5px; fill: rgb(0, 204, 150); fill-opacity: 1; stroke: rgb(229, 236, 246); stroke-opacity: 1;"/></g><g class="point"><path d="M389.45,121.01V118.41H450.55V121.01Z" style="vector-effect: non-scaling-stroke; opacity: 1; stroke-width: 0.5px; fill: rgb(0, 204, 150); fill-opacity: 1; stroke: rgb(229, 236, 246); stroke-opacity: 1;"/></g><g class="point"><path d="M465.82,121.01V124.3H526.91V121.01Z" style="vector-effect: non-scaling-stroke; opacity: 1; stroke-width: 0.5px; fill: rgb(0, 204, 150); fill-opacity: 1; stroke: rgb(229, 236, 246); stroke-opacity: 1;"/></g><g class="point"><path d="M542.18,121.01V113.57H603.27V121.01Z" style="vector-effect: non-scaling-stroke; opacity: 1; stroke-width: 0.5px; fill: rgb(0, 204, 150); fill-opacity: 1; stroke: rgb(229, 236, 246); stroke-opacity: 1;"/></g><g class="point"><path d="M618.55,121.01V125.32H679.64V121.01Z" style="vector-effect: non-scaling-stroke; opacity: 1; stroke-width: 0.5px; fill: rgb(0, 204, 150); fill-opacity: 1; stroke: rgb(229, 236, 246); stroke-opacity: 1;"/></g><g class="point"><path d="M694.91,121.01V115.83H756V121.01Z" style="vector-effect: non-scaling-stroke; opacity: 1; stroke-width: 0.5px; fill: rgb(0, 204, 150); fill-opacity: 1; stroke: rgb(229, 236, 246); stroke-opacity: 1;"/></g><g class="point"><path d="M771.27,121.01V119.33H832.36V121.01Z" style="vector-effect: non-scaling-stroke; opacity: 1; stroke-width: 0.5px; fill: rgb(0, 204, 150); fill-opacity: 1; stroke: rgb(229, 236, 246); stroke-opacity: 1;"/></g></g></g></g></g><g class="overplot"/><path class="xlines-above crisp" d="M79,720.5H920" style="fill: none; stroke-width: 1px; stroke: rgb(255, 255, 255); stroke-opacity: 1;"/><path class="ylines-above crisp" d="M79.5,582.2222222222222V720" style="fill: none; stroke-width: 1px; stroke: rgb(255, 255, 255); stroke-opacity: 1;"/><g class="overlines-above"/><g class="xaxislayer-above"><g class="x3tick"><text text-anchor="middle" x="0" y="735.4" transform="translate(118.18,0)" style="font-family: 'Open Sans', verdana, arial, sans-serif; font-size: 12px; fill: rgb(42, 63, 95); fill-opacity: 1; white-space: pre;">0</text></g><g class="x3tick"><text text-anchor="middle" x="0" y="735.4" transform="translate(270.90999999999997,0)" style="font-family: 'Open Sans', verdana, arial, sans-serif; font-size: 12px; fill: rgb(42, 63, 95); fill-opacity: 1; white-space: pre;">2</text></g><g class="x3tick"><text text-anchor="middle" x="0" y="735.4" transform="translate(423.64,0)" style="font-family: 'Open Sans', verdana, arial, sans-serif; font-size: 12px; fill: rgb(42, 63, 95); fill-opacity: 1; white-space: pre;">4</text></g><g class="x3tick"><text text-anchor="middle" x="0" y="735.4" transform="translate(576.36,0)" style="font-family: 'Open Sans', verdana, arial, sans-serif; font-size: 12px; fill: rgb(42, 63, 95); fill-opacity: 1; white-space: pre;">6</text></g><g class="x3tick"><text text-anchor="middle" x="0" y="735.4" transform="translate(729.09,0)" style="font-family: 'Open Sans', verdana, arial, sans-serif; font-size: 12px; fill: rgb(42, 63, 95); fill-opacity: 1; white-space: pre;">8</text></g><g class="x3tick"><text text-anchor="middle" x="0" y="735.4" transform="translate(881.82,0)" style="font-family: 'Open Sans', verdana, arial, sans-serif; font-size: 12px; fill: rgb(42, 63, 95); fill-opacity: 1; white-space: pre;">10</text></g></g><g class="yaxislayer-above"><g class="y3tick"><text text-anchor="end" x="76.6" y="4.199999999999999" transform="translate(0,703.2322222222222)" style="font-family: 'Open Sans', verdana, arial, sans-serif; font-size: 12px; fill: rgb(42, 63, 95); fill-opacity: 1; white-space: pre;">0</text></g><g class="y3tick"><text text-anchor="end" x="76.6" y="4.199999999999999" transform="translate(0,646.1722222222222)" style="font-family: 'Open Sans', verdana, arial, sans-serif; font-size: 12px; fill: rgb(42, 63, 95); fill-opacity: 1; white-space: pre;">0.5</text></g><g class="y3tick"><text text-anchor="end" x="76.6" y="4.199999999999999" transform="translate(0,589.1122222222222)" style="font-family: 'Open Sans', verdana, arial, sans-serif; font-size: 12px; fill: rgb(42, 63, 95); fill-opacity: 1; white-space: pre;">1</text></g></g><g class="overaxes-above"/></g></g><g class="polarlayer"/><g class="ternarylayer"/><g class="geolayer"/><g class="funnelarealayer"/><g class="pielayer"/><g class="treemaplayer"/><g class="sunburstlayer"/><g class="glimages"/><defs id="topdefs-57eecb"><g class="clips"/></defs><g class="layer-above"><g class="imagelayer"/><g class="shapelayer"/></g><g class="infolayer"><g class="g-gtitle"/><g class="g-xtitle"><text class="xtitle" x="500" y="280.3624990463257" text-anchor="middle" style="font-family: 'Open Sans', verdana, arial, sans-serif; font-size: 14px; fill: rgb(42, 63, 95); opacity: 1; font-weight: normal; white-space: pre;">Date</text></g><g class="g-x2title"><text class="x2title" x="500" y="521.4718740463256" text-anchor="middle" style="font-family: 'Open Sans', verdana, arial, sans-serif; font-size: 14px; fill: rgb(42, 63, 95); opacity: 1; font-weight: normal; white-space: pre;">lags</text></g><g class="g-x3title"><text class="x3title" x="500" y="762.5802724838256" text-anchor="middle" style="font-family: 'Open Sans', verdana, arial, sans-serif; font-size: 14px; fill: rgb(42, 63, 95); opacity: 1; font-weight: normal; white-space: pre;">nlags</text></g><g class="g-ytitle"><text class="ytitle" transform="rotate(-90,26.715625000000003,168.88888888888889)" x="26.715625000000003" y="168.88888888888889" text-anchor="middle" style="font-family: 'Open Sans', verdana, arial, sans-serif; font-size: 14px; fill: rgb(42, 63, 95); opacity: 1; font-weight: normal; white-space: pre;">Adj. Close</text></g><g class="g-y2title"><text class="y2title" transform="rotate(-90,32.16875,410)" x="32.16875" y="410" text-anchor="middle" style="font-family: 'Open Sans', verdana, arial, sans-serif; font-size: 14px; fill: rgb(42, 63, 95); opacity: 1; font-weight: normal; white-space: pre;">ACF</text></g><g class="g-y3title"><text class="y3title" transform="rotate(-90,32.16875,651.1111111111111)" x="32.16875" y="651.1111111111111" text-anchor="middle" style="font-family: 'Open Sans', verdana, arial, sans-serif; font-size: 14px; fill: rgb(42, 63, 95); opacity: 1; font-weight: normal; white-space: pre;">PACF</text></g><g class="annotation" data-index="0" style="opacity: 1;"><g class="annotation-text-g" transform="rotate(0,500,88)"><g class="cursor-pointer" transform="translate(435, 76)"><rect class="bg" x="0.5" y="0.5" width="130" height="23" style="stroke-width: 1px; stroke: rgb(0, 0, 0); stroke-opacity: 0; fill: rgb(0, 0, 0); fill-opacity: 0;"/><text class="annotation-text" text-anchor="middle" x="65.40625" y="18.2041015625" style="font-family: 'Open Sans', verdana, arial, sans-serif; font-size: 16px; fill: rgb(42, 63, 95); fill-opacity: 1; white-space: pre;">Daily Adj. Close</text></g></g></g><g class="annotation" data-index="1" style="opacity: 1;"><g class="annotation-text-g" transform="rotate(0,500,329.1111111111111)"><g class="cursor-pointer" transform="translate(482, 317)"><rect class="bg" x="0.5" y="0.5" width="35" height="23" style="stroke-width: 1px; stroke: rgb(0, 0, 0); stroke-opacity: 0; fill: rgb(0, 0, 0); fill-opacity: 0;"/><text class="annotation-text" text-anchor="middle" x="17.6572265625" y="18.2041015625" style="font-family: 'Open Sans', verdana, arial, sans-serif; font-size: 16px; fill: rgb(42, 63, 95); fill-opacity: 1; white-space: pre;">ACF</text></g></g></g><g class="annotation" data-index="2" style="opacity: 1;"><g class="annotation-text-g" transform="rotate(0,500,570.2222222222222)"><g class="cursor-pointer" transform="translate(454, 558)"><rect class="bg" x="0.5" y="0.5" width="91" height="23" style="stroke-width: 1px; stroke: rgb(0, 0, 0); stroke-opacity: 0; fill: rgb(0, 0, 0); fill-opacity: 0;"/><text class="annotation-text" text-anchor="middle" x="45.671875" y="18.2041015625" style="font-family: 'Open Sans', verdana, arial, sans-serif; font-size: 16px; fill: rgb(42, 63, 95); fill-opacity: 1; white-space: pre;">Partial ACF</text></g></g></g></g></svg>