<svg class="main-svg" xmlns="http://www.w3.org/2000/svg" xmlns:xlink="http://www.w3.org/1999/xlink" width="750" height="800" style="" viewBox="0 0 750 800"><rect x="0" y="0" width="750" height="800" style="fill: rgb(255, 255, 255); fill-opacity: 1;"/><defs id="defs-c626c1"><g class="clips"><clipPath id="clipc626c1xyplot" class="plotclip"><rect width="590" height="137.77777777777777"/></clipPath><clipPath id="clipc626c1x2y2plot" class="plotclip"><rect width="590" height="137.7777777777778"/></clipPath><clipPath id="clipc626c1x3y3plot" class="plotclip"><rect width="590" height="137.7777777777778"/></clipPath><clipPath class="axesclip" id="clipc626c1x"><rect x="80" y="0" width="590" height="800"/></clipPath><clipPath class="axesclip" id="clipc626c1y"><rect x="0" y="100" width="750" height="137.77777777777777"/></clipPath><clipPath class="axesclip" id="clipc626c1xy"><rect x="80" y="100" width="590" height="137.77777777777777"/></clipPath><clipPath class="axesclip" id="clipc626c1y2"><rect x="0" y="341.1111111111111" width="750" height="137.7777777777778"/></clipPath><clipPath class="axesclip" id="clipc626c1xy2"><rect x="80" y="341.1111111111111" width="590" height="137.7777777777778"/></clipPath><clipPath class="axesclip" id="clipc626c1y3"><rect x="0" y="582.2222222222222" width="750" height="137.7777777777778"/></clipPath><clipPath class="axesclip" id="clipc626c1xy3"><rect x="80" y="582.2222222222222" width="590" height="137.7777777777778"/></clipPath><clipPath class="axesclip" id="clipc626c1x2"><rect x="80" y="0" width="590" height="800"/></clipPath><clipPath class="axesclip" id="clipc626c1x2y"><rect x="80" y="100" width="590" height="137.77777777777777"/></clipPath><clipPath class="axesclip" id="clipc626c1x2y2"><rect x="80" y="341.1111111111111" width="590" height="137.7777777777778"/></clipPath><clipPath class="axesclip" id="clipc626c1x2y3"><rect x="80" y="582.2222222222222" width="590" height="137.7777777777778"/></clipPath><clipPath class="axesclip" id="clipc626c1x3"><rect x="80" y="0" width="590" height="800"/></clipPath><clipPath class="axesclip" id="clipc626c1x3y"><rect x="80" y="100" width="590" height="137.77777777777777"/></clipPath><clipPath class="axesclip" id="clipc626c1x3y2"><rect x="80" y="341.1111111111111" width="590" height="137.7777777777778"/></clipPath><clipPath class="axesclip" id="clipc626c1x3y3"><rect x="80" y="582.2222222222222" width="590" height="137.7777777777778"/></clipPath></g><g class="gradients"/></defs><g class="bglayer"><rect class="bg" x="80" y="100" width="590" height="137.77777777777777" style="fill: rgb(229, 236, 246); fill-opacity: 1; stroke-width: 0;"/><rect class="bg" x="80" y="341.1111111111111" width="590" height="137.7777777777778" style="fill: rgb(229, 236, 246); fill-opacity: 1; stroke-width: 0;"/><rect class="bg" x="80" y="582.2222222222222" width="590" height="137.7777777777778" style="fill: rgb(229, 236, 246); fill-opacity: 1; stroke-width: 0;"/></g><g class="layer-below"><g class="imagelayer"/><g class="shapelayer"/></g><g class="cartesianlayer"><g class="subplot xy"><g class="layer-subplot"><g class="shapelayer"/><g class="imagelayer"/></g><g class="gridlayer"><g class="x"><path class="xgrid crisp" transform="translate(197.18,0)" d="M0,100v137.77777777777777" style="stroke: rgb(255, 255, 255); stroke-opacity: 1; stroke-width: 1px;"/><path class="xgrid crisp" transform="translate(322.58000000000004,0)" d="M0,100v137.77777777777777" style="stroke: rgb(255, 255, 255); stroke-opacity: 1; stroke-width: 1px;"/><path class="xgrid crisp" transform="translate(447.98,0)" d="M0,100v137.77777777777777" style="stroke: rgb(255, 255, 255); stroke-opacity: 1; stroke-width: 1px;"/><path class="xgrid crisp" transform="translate(575.44,0)" d="M0,100v137.77777777777777" style="stroke: rgb(255, 255, 255); stroke-opacity: 1; stroke-width: 1px;"/></g><g class="y"><path class="ygrid crisp" transform="translate(0,222.99)" d="M80,0h590" style="stroke: rgb(255, 255, 255); stroke-opacity: 1; stroke-width: 1px;"/><path class="ygrid crisp" transform="translate(0,178.89)" d="M80,0h590" style="stroke: rgb(255, 255, 255); stroke-opacity: 1; stroke-width: 1px;"/><path class="ygrid crisp" transform="translate(0,134.79)" d="M80,0h590" style="stroke: rgb(255, 255, 255); stroke-opacity: 1; stroke-width: 1px;"/></g></g><g class="zerolinelayer"/><path class="xlines-below"/><path class="ylines-below"/><g class="overlines-below"/><g class="xaxislayer-below"/><g class="yaxislayer-below"/><g class="overaxes-below"/><g class="plot" transform="translate(80, 100)" clip-path="url('#clipc626c1xyplot')"><g class="scatterlayer mlayer"><g class="trace scatter trace5ca772" style="stroke-miterlimit: 2; opacity: 1;"><g class="fills"/><g class="errorbars"/><g class="lines"><path class="js-line" d="M0,86.51L2.06,83.24L4.11,98.93L6.17,112.45L8.22,116.46L14.39,122.53L16.45,116.52L18.5,120.22L20.56,102.04L22.61,110.05L30.84,119.65L32.89,130.89L34.95,121.84L37,110.94L43.17,122.7L45.23,108.53L47.28,112.27L49.34,100.75L51.39,98.4L57.56,103.68L59.62,121.62L61.67,106.79L63.73,106.12L65.78,114.62L71.95,100.98L74.01,114.6L76.06,114.15L78.12,114.44L80.17,103.76L88.4,101.85L90.45,86.49L92.51,93.53L94.56,94.62L100.73,84.46L102.79,101.78L104.84,100.26L106.9,100.21L108.95,104.47L115.12,108.56L117.18,96.77L119.23,92.39L123.34,89.05L129.51,77.04L131.57,85.63L133.62,67.71L135.68,62.84L137.74,60.09L145.96,61.61L148.01,56.7L150.07,50.2L152.13,46.75L158.29,52.33L160.35,56.55L162.4,65.05L164.46,59.57L172.68,60.39L174.74,57.64L176.79,58.02L178.85,57.44L180.91,62.54L187.07,66.27L189.13,69.7L191.18,60.2L193.24,60.5L195.3,53.78L201.46,58.66L203.52,48.72L205.57,48.4L207.63,46.8L209.69,50.18L215.85,43.77L219.97,30.73L222.02,32.08L224.08,29.47L230.24,31.75L232.3,28.38L234.36,21.58L236.41,28.04L238.47,29.09L244.63,24.18L246.69,33.03L248.75,36.32L250.8,32.73L252.86,30.87L259.02,37.6L261.08,33.62L263.14,34.26L265.19,30.02L267.25,36.17L273.41,29.41L275.47,31.56L277.53,34.68L279.58,35.68L281.64,36.01L287.8,37.9L289.86,34.4L291.92,27.5L293.97,28.77L296.03,26.55L304.25,31.12L306.31,30.62L308.36,33.34L310.42,32.84L316.59,30.67L318.64,21.26L322.75,23.65L324.81,27.39L330.98,26.93L333.03,30.62L335.09,33.56L337.14,31.7L339.2,29.57L345.37,25.05L347.42,22.35L349.48,26.61L351.53,17.2L353.59,28.48L359.76,35.34L361.81,29.82L365.92,15.85L367.98,18.93L376.2,21.56L378.26,17.18L380.31,24L382.37,16.49L388.54,13.83L390.59,7.77L392.65,8.42L394.7,8.27L396.76,6.89L402.93,11.11L404.98,11.4L407.04,13.46L409.09,14.42L411.15,13.3L417.32,24.79L419.37,26.59L423.48,30.66L425.54,27.69L431.71,42.62L433.76,40.58L435.82,36.16L437.87,37.2L439.93,36.75L446.1,33.78L448.15,33.32L450.21,38.6L452.26,33.12L454.32,29.84L460.49,27.22L462.54,27.96L464.6,25.08L466.66,19.29L468.71,24.79L474.88,26.54L476.93,27.76L478.99,25.54L481.05,26.98L483.1,29.57L489.27,26.42L491.32,28.04L493.38,33.05L495.44,34.76L497.49,31.66L505.71,25.12L507.77,23.21L509.83,17.82L511.88,30.46L518.05,26.21L520.1,38.72L522.16,43.25L524.22,38.56L526.27,45.95L532.44,45.15L534.49,46.72L536.55,38.28L538.61,36.82L540.66,40.24L546.83,42.26L548.89,41.45L550.94,27.54L553,31.5L555.05,24.3L561.22,26.44L563.28,31.72L565.33,27.56L567.39,27.86L569.44,27.54L575.61,20.07L579.72,28.29L581.78,34.36L583.83,33.16L590,32" style="vector-effect: non-scaling-stroke; fill: none; stroke: rgb(99, 110, 250); stroke-opacity: 1; stroke-width: 2px; opacity: 1;"/></g><g class="points"/><g class="text"/></g></g></g><g class="overplot"/><path class="xlines-above crisp" style="fill: none; stroke-width: 1px; stroke: rgb(255, 255, 255); stroke-opacity: 1;" d="M79,238.27777777777777H670"/><path class="ylines-above crisp" style="fill: none; stroke-width: 1px; stroke: rgb(255, 255, 255); stroke-opacity: 1;" d="M79.5,100V237.77777777777777"/><g class="overlines-above"/><g class="xaxislayer-above"><g class="xtick"><text text-anchor="middle" x="0" y="253.17777777777778" transform="translate(197.18,0)" style="font-family: 'Open Sans', verdana, arial, sans-serif; font-size: 12px; fill: rgb(42, 63, 95); fill-opacity: 1; white-space: pre;">Mar 2016</text></g><g class="xtick"><text text-anchor="middle" x="0" y="253.17777777777778" transform="translate(322.58000000000004,0)" style="font-family: 'Open Sans', verdana, arial, sans-serif; font-size: 12px; fill: rgb(42, 63, 95); fill-opacity: 1; white-space: pre;">May 2016</text></g><g class="xtick"><text text-anchor="middle" x="0" y="253.17777777777778" transform="translate(447.98,0)" style="font-family: 'Open Sans', verdana, arial, sans-serif; font-size: 12px; fill: rgb(42, 63, 95); fill-opacity: 1; white-space: pre;">Jul 2016</text></g><g class="xtick"><text text-anchor="middle" x="0" y="253.17777777777778" transform="translate(575.44,0)" style="font-family: 'Open Sans', verdana, arial, sans-serif; font-size: 12px; fill: rgb(42, 63, 95); fill-opacity: 1; white-space: pre;">Sep 2016</text></g></g><g class="yaxislayer-above"><g class="ytick"><text text-anchor="end" x="76.6" y="4.199999999999999" transform="translate(0,222.99)" style="font-family: 'Open Sans', verdana, arial, sans-serif; font-size: 12px; fill: rgb(42, 63, 95); fill-opacity: 1; white-space: pre;">80</text></g><g class="ytick"><text text-anchor="end" x="76.6" y="4.199999999999999" transform="translate(0,178.89)" style="font-family: 'Open Sans', verdana, arial, sans-serif; font-size: 12px; fill: rgb(42, 63, 95); fill-opacity: 1; white-space: pre;">90</text></g><g class="ytick"><text text-anchor="end" x="76.6" y="4.199999999999999" transform="translate(0,134.79)" style="font-family: 'Open Sans', verdana, arial, sans-serif; font-size: 12px; fill: rgb(42, 63, 95); fill-opacity: 1; white-space: pre;">100</text></g></g><g class="overaxes-above"/></g><g class="subplot x2y2"><g class="layer-subplot"><g class="shapelayer"/><g class="imagelayer"/></g><g class="gridlayer"><g class="x2"><path class="x2grid crisp" transform="translate(184.68,0)" d="M0,341.1111111111111v137.7777777777778" style="stroke: rgb(255, 255, 255); stroke-opacity: 1; stroke-width: 1px;"/><path class="x2grid crisp" transform="translate(279.84000000000003,0)" d="M0,341.1111111111111v137.7777777777778" style="stroke: rgb(255, 255, 255); stroke-opacity: 1; stroke-width: 1px;"/><path class="x2grid crisp" transform="translate(375,0)" d="M0,341.1111111111111v137.7777777777778" style="stroke: rgb(255, 255, 255); stroke-opacity: 1; stroke-width: 1px;"/><path class="x2grid crisp" transform="translate(470.16,0)" d="M0,341.1111111111111v137.7777777777778" style="stroke: rgb(255, 255, 255); stroke-opacity: 1; stroke-width: 1px;"/><path class="x2grid crisp" transform="translate(565.3199999999999,0)" d="M0,341.1111111111111v137.7777777777778" style="stroke: rgb(255, 255, 255); stroke-opacity: 1; stroke-width: 1px;"/><path class="x2grid crisp" transform="translate(660.48,0)" d="M0,341.1111111111111v137.7777777777778" style="stroke: rgb(255, 255, 255); stroke-opacity: 1; stroke-width: 1px;"/></g><g class="y2"><path class="y2grid crisp" transform="translate(0,413.44111111111107)" d="M80,0h590" style="stroke: rgb(255, 255, 255); stroke-opacity: 1; stroke-width: 1px;"/><path class="y2grid crisp" transform="translate(0,348.0011111111111)" d="M80,0h590" style="stroke: rgb(255, 255, 255); stroke-opacity: 1; stroke-width: 1px;"/></g></g><g class="zerolinelayer"><path class="x2zl zl crisp" transform="translate(89.52,0)" d="M0,341.1111111111111v137.7777777777778" style="stroke: rgb(255, 255, 255); stroke-opacity: 1; stroke-width: 2px;"/><path class="y2zl zl crisp" transform="translate(0,478.89111111111106)" d="M80,0h590" style="stroke: rgb(255, 255, 255); stroke-opacity: 1; stroke-width: 2px;"/></g><path class="xlines-below"/><path class="ylines-below"/><g class="overlines-below"/><g class="xaxislayer-below"/><g class="yaxislayer-below"/><g class="overaxes-below"/><g class="plot" transform="translate(80, 341.1111111111111)" clip-path="url('#clipc626c1x2y2plot')"><g class="barlayer mlayer"><g class="trace bars" style="opacity: 1;"><g class="points"><g class="point"><path d="M1.9,137.78V6.89H17.13V137.78Z" style="vector-effect: non-scaling-stroke; opacity: 1; stroke-width: 0.5px; fill: rgb(239, 85, 59); fill-opacity: 1; stroke: rgb(229, 236, 246); stroke-opacity: 1;"/></g><g class="point"><path d="M20.94,137.78V9.94H36.16V137.78Z" style="vector-effect: non-scaling-stroke; opacity: 1; stroke-width: 0.5px; fill: rgb(239, 85, 59); fill-opacity: 1; stroke: rgb(229, 236, 246); stroke-opacity: 1;"/></g><g class="point"><path d="M39.97,137.78V11.9H55.19V137.78Z" style="vector-effect: non-scaling-stroke; opacity: 1; stroke-width: 0.5px; fill: rgb(239, 85, 59); fill-opacity: 1; stroke: rgb(229, 236, 246); stroke-opacity: 1;"/></g><g class="point"><path d="M59,137.78V14.45H74.23V137.78Z" style="vector-effect: non-scaling-stroke; opacity: 1; stroke-width: 0.5px; fill: rgb(239, 85, 59); fill-opacity: 1; stroke: rgb(229, 236, 246); stroke-opacity: 1;"/></g><g class="point"><path d="M78.03,137.78V17.14H93.26V137.78Z" style="vector-effect: non-scaling-stroke; opacity: 1; stroke-width: 0.5px; fill: rgb(239, 85, 59); fill-opacity: 1; stroke: rgb(229, 236, 246); stroke-opacity: 1;"/></g><g class="point"><path d="M97.06,137.78V19.81H112.29V137.78Z" style="vector-effect: non-scaling-stroke; opacity: 1; stroke-width: 0.5px; fill: rgb(239, 85, 59); fill-opacity: 1; stroke: rgb(229, 236, 246); stroke-opacity: 1;"/></g><g class="point"><path d="M116.1,137.78V22.49H131.32V137.78Z" style="vector-effect: non-scaling-stroke; opacity: 1; stroke-width: 0.5px; fill: rgb(239, 85, 59); fill-opacity: 1; stroke: rgb(229, 236, 246); stroke-opacity: 1;"/></g><g class="point"><path d="M135.13,137.78V25.09H150.35V137.78Z" style="vector-effect: non-scaling-stroke; opacity: 1; stroke-width: 0.5px; fill: rgb(239, 85, 59); fill-opacity: 1; stroke: rgb(229, 236, 246); stroke-opacity: 1;"/></g><g class="point"><path d="M154.16,137.78V28.25H169.39V137.78Z" style="vector-effect: non-scaling-stroke; opacity: 1; stroke-width: 0.5px; fill: rgb(239, 85, 59); fill-opacity: 1; stroke: rgb(229, 236, 246); stroke-opacity: 1;"/></g><g class="point"><path d="M173.19,137.78V30.66H188.42V137.78Z" style="vector-effect: non-scaling-stroke; opacity: 1; stroke-width: 0.5px; fill: rgb(239, 85, 59); fill-opacity: 1; stroke: rgb(229, 236, 246); stroke-opacity: 1;"/></g><g class="point"><path d="M192.23,137.78V33.95H207.45V137.78Z" style="vector-effect: non-scaling-stroke; opacity: 1; stroke-width: 0.5px; fill: rgb(239, 85, 59); fill-opacity: 1; stroke: rgb(229, 236, 246); stroke-opacity: 1;"/></g><g class="point"><path d="M211.26,137.78V36.63H226.48V137.78Z" style="vector-effect: non-scaling-stroke; opacity: 1; stroke-width: 0.5px; fill: rgb(239, 85, 59); fill-opacity: 1; stroke: rgb(229, 236, 246); stroke-opacity: 1;"/></g><g class="point"><path d="M230.29,137.78V39.45H245.52V137.78Z" style="vector-effect: non-scaling-stroke; opacity: 1; stroke-width: 0.5px; fill: rgb(239, 85, 59); fill-opacity: 1; stroke: rgb(229, 236, 246); stroke-opacity: 1;"/></g><g class="point"><path d="M249.32,137.78V42.05H264.55V137.78Z" style="vector-effect: non-scaling-stroke; opacity: 1; stroke-width: 0.5px; fill: rgb(239, 85, 59); fill-opacity: 1; stroke: rgb(229, 236, 246); stroke-opacity: 1;"/></g><g class="point"><path d="M268.35,137.78V44.04H283.58V137.78Z" style="vector-effect: non-scaling-stroke; opacity: 1; stroke-width: 0.5px; fill: rgb(239, 85, 59); fill-opacity: 1; stroke: rgb(229, 236, 246); stroke-opacity: 1;"/></g><g class="point"><path d="M287.39,137.78V45.89H302.61V137.78Z" style="vector-effect: non-scaling-stroke; opacity: 1; stroke-width: 0.5px; fill: rgb(239, 85, 59); fill-opacity: 1; stroke: rgb(229, 236, 246); stroke-opacity: 1;"/></g><g class="point"><path d="M306.42,137.78V47.74H321.65V137.78Z" style="vector-effect: non-scaling-stroke; opacity: 1; stroke-width: 0.5px; fill: rgb(239, 85, 59); fill-opacity: 1; stroke: rgb(229, 236, 246); stroke-opacity: 1;"/></g><g class="point"><path d="M325.45,137.78V49.79H340.68V137.78Z" style="vector-effect: non-scaling-stroke; opacity: 1; stroke-width: 0.5px; fill: rgb(239, 85, 59); fill-opacity: 1; stroke: rgb(229, 236, 246); stroke-opacity: 1;"/></g><g class="point"><path d="M344.48,137.78V51.87H359.71V137.78Z" style="vector-effect: non-scaling-stroke; opacity: 1; stroke-width: 0.5px; fill: rgb(239, 85, 59); fill-opacity: 1; stroke: rgb(229, 236, 246); stroke-opacity: 1;"/></g><g class="point"><path d="M363.52,137.78V53.97H378.74V137.78Z" style="vector-effect: non-scaling-stroke; opacity: 1; stroke-width: 0.5px; fill: rgb(239, 85, 59); fill-opacity: 1; stroke: rgb(229, 236, 246); stroke-opacity: 1;"/></g><g class="point"><path d="M382.55,137.78V55.53H397.77V137.78Z" style="vector-effect: non-scaling-stroke; opacity: 1; stroke-width: 0.5px; fill: rgb(239, 85, 59); fill-opacity: 1; stroke: rgb(229, 236, 246); stroke-opacity: 1;"/></g><g class="point"><path d="M401.58,137.78V57.49H416.81V137.78Z" style="vector-effect: non-scaling-stroke; opacity: 1; stroke-width: 0.5px; fill: rgb(239, 85, 59); fill-opacity: 1; stroke: rgb(229, 236, 246); stroke-opacity: 1;"/></g><g class="point"><path d="M420.61,137.78V59.16H435.84V137.78Z" style="vector-effect: non-scaling-stroke; opacity: 1; stroke-width: 0.5px; fill: rgb(239, 85, 59); fill-opacity: 1; stroke: rgb(229, 236, 246); stroke-opacity: 1;"/></g><g class="point"><path d="M439.65,137.78V61.04H454.87V137.78Z" style="vector-effect: non-scaling-stroke; opacity: 1; stroke-width: 0.5px; fill: rgb(239, 85, 59); fill-opacity: 1; stroke: rgb(229, 236, 246); stroke-opacity: 1;"/></g><g class="point"><path d="M458.68,137.78V63.19H473.9V137.78Z" style="vector-effect: non-scaling-stroke; opacity: 1; stroke-width: 0.5px; fill: rgb(239, 85, 59); fill-opacity: 1; stroke: rgb(229, 236, 246); stroke-opacity: 1;"/></g><g class="point"><path d="M477.71,137.78V65.67H492.94V137.78Z" style="vector-effect: non-scaling-stroke; opacity: 1; stroke-width: 0.5px; fill: rgb(239, 85, 59); fill-opacity: 1; stroke: rgb(229, 236, 246); stroke-opacity: 1;"/></g><g class="point"><path d="M496.74,137.78V68.34H511.97V137.78Z" style="vector-effect: non-scaling-stroke; opacity: 1; stroke-width: 0.5px; fill: rgb(239, 85, 59); fill-opacity: 1; stroke: rgb(229, 236, 246); stroke-opacity: 1;"/></g><g class="point"><path d="M515.77,137.78V70.61H531V137.78Z" style="vector-effect: non-scaling-stroke; opacity: 1; stroke-width: 0.5px; fill: rgb(239, 85, 59); fill-opacity: 1; stroke: rgb(229, 236, 246); stroke-opacity: 1;"/></g><g class="point"><path d="M534.81,137.78V73.12H550.03V137.78Z" style="vector-effect: non-scaling-stroke; opacity: 1; stroke-width: 0.5px; fill: rgb(239, 85, 59); fill-opacity: 1; stroke: rgb(229, 236, 246); stroke-opacity: 1;"/></g><g class="point"><path d="M553.84,137.78V75.74H569.06V137.78Z" style="vector-effect: non-scaling-stroke; opacity: 1; stroke-width: 0.5px; fill: rgb(239, 85, 59); fill-opacity: 1; stroke: rgb(229, 236, 246); stroke-opacity: 1;"/></g><g class="point"><path d="M572.87,137.78V78.12H588.1V137.78Z" style="vector-effect: non-scaling-stroke; opacity: 1; stroke-width: 0.5px; fill: rgb(239, 85, 59); fill-opacity: 1; stroke: rgb(229, 236, 246); stroke-opacity: 1;"/></g></g></g></g></g><g class="overplot"/><path class="xlines-above crisp" style="fill: none; stroke-width: 1px; stroke: rgb(255, 255, 255); stroke-opacity: 1;" d="M79,479.3888888888889H670"/><path class="ylines-above crisp" style="fill: none; stroke-width: 1px; stroke: rgb(255, 255, 255); stroke-opacity: 1;" d="M79.5,341.1111111111111V478.8888888888889"/><g class="overlines-above"/><g class="xaxislayer-above"><g class="x2tick"><text text-anchor="middle" x="0" y="494.2888888888889" transform="translate(89.52,0)" style="font-family: 'Open Sans', verdana, arial, sans-serif; font-size: 12px; fill: rgb(42, 63, 95); fill-opacity: 1; white-space: pre;">0</text></g><g class="x2tick"><text text-anchor="middle" x="0" y="494.2888888888889" transform="translate(184.68,0)" style="font-family: 'Open Sans', verdana, arial, sans-serif; font-size: 12px; fill: rgb(42, 63, 95); fill-opacity: 1; white-space: pre;">5</text></g><g class="x2tick"><text text-anchor="middle" x="0" y="494.2888888888889" transform="translate(279.84000000000003,0)" style="font-family: 'Open Sans', verdana, arial, sans-serif; font-size: 12px; fill: rgb(42, 63, 95); fill-opacity: 1; white-space: pre;">10</text></g><g class="x2tick"><text text-anchor="middle" x="0" y="494.2888888888889" transform="translate(375,0)" style="font-family: 'Open Sans', verdana, arial, sans-serif; font-size: 12px; fill: rgb(42, 63, 95); fill-opacity: 1; white-space: pre;">15</text></g><g class="x2tick"><text text-anchor="middle" x="0" y="494.2888888888889" transform="translate(470.16,0)" style="font-family: 'Open Sans', verdana, arial, sans-serif; font-size: 12px; fill: rgb(42, 63, 95); fill-opacity: 1; white-space: pre;">20</text></g><g class="x2tick"><text text-anchor="middle" x="0" y="494.2888888888889" transform="translate(565.3199999999999,0)" style="font-family: 'Open Sans', verdana, arial, sans-serif; font-size: 12px; fill: rgb(42, 63, 95); fill-opacity: 1; white-space: pre;">25</text></g><g class="x2tick"><text text-anchor="middle" x="0" y="494.2888888888889" transform="translate(660.48,0)" style="font-family: 'Open Sans', verdana, arial, sans-serif; font-size: 12px; fill: rgb(42, 63, 95); fill-opacity: 1; white-space: pre;">30</text></g></g><g class="yaxislayer-above"><g class="y2tick"><text text-anchor="end" x="76.6" y="4.199999999999999" transform="translate(0,478.89111111111106)" style="font-family: 'Open Sans', verdana, arial, sans-serif; font-size: 12px; fill: rgb(42, 63, 95); fill-opacity: 1; white-space: pre;">0</text></g><g class="y2tick"><text text-anchor="end" x="76.6" y="4.199999999999999" transform="translate(0,413.44111111111107)" style="font-family: 'Open Sans', verdana, arial, sans-serif; font-size: 12px; fill: rgb(42, 63, 95); fill-opacity: 1; white-space: pre;">0.5</text></g><g class="y2tick"><text text-anchor="end" x="76.6" y="4.199999999999999" transform="translate(0,348.0011111111111)" style="font-family: 'Open Sans', verdana, arial, sans-serif; font-size: 12px; fill: rgb(42, 63, 95); fill-opacity: 1; white-space: pre;">1</text></g></g><g class="overaxes-above"/></g><g class="subplot x3y3"><g class="layer-subplot"><g class="shapelayer"/><g class="imagelayer"/></g><g class="gridlayer"><g class="x3"><path class="x3grid crisp" transform="translate(184.68,0)" d="M0,582.2222222222222v137.7777777777778" style="stroke: rgb(255, 255, 255); stroke-opacity: 1; stroke-width: 1px;"/><path class="x3grid crisp" transform="translate(279.84000000000003,0)" d="M0,582.2222222222222v137.7777777777778" style="stroke: rgb(255, 255, 255); stroke-opacity: 1; stroke-width: 1px;"/><path class="x3grid crisp" transform="translate(375,0)" d="M0,582.2222222222222v137.7777777777778" style="stroke: rgb(255, 255, 255); stroke-opacity: 1; stroke-width: 1px;"/><path class="x3grid crisp" transform="translate(470.16,0)" d="M0,582.2222222222222v137.7777777777778" style="stroke: rgb(255, 255, 255); stroke-opacity: 1; stroke-width: 1px;"/><path class="x3grid crisp" transform="translate(565.3199999999999,0)" d="M0,582.2222222222222v137.7777777777778" style="stroke: rgb(255, 255, 255); stroke-opacity: 1; stroke-width: 1px;"/><path class="x3grid crisp" transform="translate(660.48,0)" d="M0,582.2222222222222v137.7777777777778" style="stroke: rgb(255, 255, 255); stroke-opacity: 1; stroke-width: 1px;"/></g><g class="y3"><path class="y3grid crisp" transform="translate(0,643.4022222222221)" d="M80,0h590" style="stroke: rgb(255, 255, 255); stroke-opacity: 1; stroke-width: 1px;"/><path class="y3grid crisp" transform="translate(0,589.1122222222222)" d="M80,0h590" style="stroke: rgb(255, 255, 255); stroke-opacity: 1; stroke-width: 1px;"/></g></g><g class="zerolinelayer"><path class="x3zl zl crisp" transform="translate(89.52,0)" d="M0,582.2222222222222v137.7777777777778" style="stroke: rgb(255, 255, 255); stroke-opacity: 1; stroke-width: 2px;"/><path class="y3zl zl crisp" transform="translate(0,697.6922222222222)" d="M80,0h590" style="stroke: rgb(255, 255, 255); stroke-opacity: 1; stroke-width: 2px;"/></g><path class="xlines-below"/><path class="ylines-below"/><g class="overlines-below"/><g class="xaxislayer-below"/><g class="yaxislayer-below"/><g class="overaxes-below"/><g class="plot" transform="translate(80, 582.2222222222222)" clip-path="url('#clipc626c1x3y3plot')"><g class="barlayer mlayer"><g class="trace bars" style="opacity: 1;"><g class="points"><g class="point"><path d="M1.9,115.47V6.89H17.13V115.47Z" style="vector-effect: non-scaling-stroke; opacity: 1; stroke-width: 0.5px; fill: rgb(0, 204, 150); fill-opacity: 1; stroke: rgb(229, 236, 246); stroke-opacity: 1;"/></g><g class="point"><path d="M20.94,115.47V8.89H36.16V115.47Z" style="vector-effect: non-scaling-stroke; opacity: 1; stroke-width: 0.5px; fill: rgb(0, 204, 150); fill-opacity: 1; stroke: rgb(229, 236, 246); stroke-opacity: 1;"/></g><g class="point"><path d="M39.97,115.47V91.89H55.19V115.47Z" style="vector-effect: non-scaling-stroke; opacity: 1; stroke-width: 0.5px; fill: rgb(0, 204, 150); fill-opacity: 1; stroke: rgb(229, 236, 246); stroke-opacity: 1;"/></g><g class="point"><path d="M59,115.47V124.8H74.23V115.47Z" style="vector-effect: non-scaling-stroke; opacity: 1; stroke-width: 0.5px; fill: rgb(0, 204, 150); fill-opacity: 1; stroke: rgb(229, 236, 246); stroke-opacity: 1;"/></g><g class="point"><path d="M78.03,115.47V125.5H93.26V115.47Z" style="vector-effect: non-scaling-stroke; opacity: 1; stroke-width: 0.5px; fill: rgb(0, 204, 150); fill-opacity: 1; stroke: rgb(229, 236, 246); stroke-opacity: 1;"/></g><g class="point"><path d="M97.06,115.47V117.75H112.29V115.47Z" style="vector-effect: non-scaling-stroke; opacity: 1; stroke-width: 0.5px; fill: rgb(0, 204, 150); fill-opacity: 1; stroke: rgb(229, 236, 246); stroke-opacity: 1;"/></g><g class="point"><path d="M116.1,115.47V116.1H131.32V115.47Z" style="vector-effect: non-scaling-stroke; opacity: 1; stroke-width: 0.5px; fill: rgb(0, 204, 150); fill-opacity: 1; stroke: rgb(229, 236, 246); stroke-opacity: 1;"/></g><g class="point"><path d="M135.13,115.47V114.47H150.35V115.47Z" style="vector-effect: non-scaling-stroke; opacity: 1; stroke-width: 0.5px; fill: rgb(0, 204, 150); fill-opacity: 1; stroke: rgb(229, 236, 246); stroke-opacity: 1;"/></g><g class="point"><path d="M154.16,115.47V130.13H169.39V115.47Z" style="vector-effect: non-scaling-stroke; opacity: 1; stroke-width: 0.5px; fill: rgb(0, 204, 150); fill-opacity: 1; stroke: rgb(229, 236, 246); stroke-opacity: 1;"/></g><g class="point"><path d="M173.19,115.47V104.63H188.42V115.47Z" style="vector-effect: non-scaling-stroke; opacity: 1; stroke-width: 0.5px; fill: rgb(0, 204, 150); fill-opacity: 1; stroke: rgb(229, 236, 246); stroke-opacity: 1;"/></g><g class="point"><path d="M192.23,115.47V130.08H207.45V115.47Z" style="vector-effect: non-scaling-stroke; opacity: 1; stroke-width: 0.5px; fill: rgb(0, 204, 150); fill-opacity: 1; stroke: rgb(229, 236, 246); stroke-opacity: 1;"/></g><g class="point"><path d="M211.26,115.47V110.52H226.48V115.47Z" style="vector-effect: non-scaling-stroke; opacity: 1; stroke-width: 0.5px; fill: rgb(0, 204, 150); fill-opacity: 1; stroke: rgb(229, 236, 246); stroke-opacity: 1;"/></g><g class="point"><path d="M230.29,115.47V115.05H245.52V115.47Z" style="vector-effect: non-scaling-stroke; opacity: 1; stroke-width: 0.5px; fill: rgb(0, 204, 150); fill-opacity: 1; stroke: rgb(229, 236, 246); stroke-opacity: 1;"/></g><g class="point"><path d="M249.32,115.47V111.26H264.55V115.47Z" style="vector-effect: non-scaling-stroke; opacity: 1; stroke-width: 0.5px; fill: rgb(0, 204, 150); fill-opacity: 1; stroke: rgb(229, 236, 246); stroke-opacity: 1;"/></g><g class="point"><path d="M268.35,115.47V99.52H283.58V115.47Z" style="vector-effect: non-scaling-stroke; opacity: 1; stroke-width: 0.5px; fill: rgb(0, 204, 150); fill-opacity: 1; stroke: rgb(229, 236, 246); stroke-opacity: 1;"/></g><g class="point"><path d="M287.39,115.47V106.21H302.61V115.47Z" style="vector-effect: non-scaling-stroke; opacity: 1; stroke-width: 0.5px; fill: rgb(0, 204, 150); fill-opacity: 1; stroke: rgb(229, 236, 246); stroke-opacity: 1;"/></g><g class="point"><path d="M306.42,115.47V120.99H321.65V115.47Z" style="vector-effect: non-scaling-stroke; opacity: 1; stroke-width: 0.5px; fill: rgb(0, 204, 150); fill-opacity: 1; stroke: rgb(229, 236, 246); stroke-opacity: 1;"/></g><g class="point"><path d="M325.45,115.47V121.47H340.68V115.47Z" style="vector-effect: non-scaling-stroke; opacity: 1; stroke-width: 0.5px; fill: rgb(0, 204, 150); fill-opacity: 1; stroke: rgb(229, 236, 246); stroke-opacity: 1;"/></g><g class="point"><path d="M344.48,115.47V126.73H359.71V115.47Z" style="vector-effect: non-scaling-stroke; opacity: 1; stroke-width: 0.5px; fill: rgb(0, 204, 150); fill-opacity: 1; stroke: rgb(229, 236, 246); stroke-opacity: 1;"/></g><g class="point"><path d="M363.52,115.47V113.15H378.74V115.47Z" style="vector-effect: non-scaling-stroke; opacity: 1; stroke-width: 0.5px; fill: rgb(0, 204, 150); fill-opacity: 1; stroke: rgb(229, 236, 246); stroke-opacity: 1;"/></g><g class="point"><path d="M382.55,115.47V103.23H397.77V115.47Z" style="vector-effect: non-scaling-stroke; opacity: 1; stroke-width: 0.5px; fill: rgb(0, 204, 150); fill-opacity: 1; stroke: rgb(229, 236, 246); stroke-opacity: 1;"/></g><g class="point"><path d="M401.58,115.47V123.42H416.81V115.47Z" style="vector-effect: non-scaling-stroke; opacity: 1; stroke-width: 0.5px; fill: rgb(0, 204, 150); fill-opacity: 1; stroke: rgb(229, 236, 246); stroke-opacity: 1;"/></g><g class="point"><path d="M420.61,115.47V114.56H435.84V115.47Z" style="vector-effect: non-scaling-stroke; opacity: 1; stroke-width: 0.5px; fill: rgb(0, 204, 150); fill-opacity: 1; stroke: rgb(229, 236, 246); stroke-opacity: 1;"/></g><g class="point"><path d="M439.65,115.47V123.68H454.87V115.47Z" style="vector-effect: non-scaling-stroke; opacity: 1; stroke-width: 0.5px; fill: rgb(0, 204, 150); fill-opacity: 1; stroke: rgb(229, 236, 246); stroke-opacity: 1;"/></g><g class="point"><path d="M458.68,115.47V126.46H473.9V115.47Z" style="vector-effect: non-scaling-stroke; opacity: 1; stroke-width: 0.5px; fill: rgb(0, 204, 150); fill-opacity: 1; stroke: rgb(229, 236, 246); stroke-opacity: 1;"/></g><g class="point"><path d="M477.71,115.47V127.77H492.94V115.47Z" style="vector-effect: non-scaling-stroke; opacity: 1; stroke-width: 0.5px; fill: rgb(0, 204, 150); fill-opacity: 1; stroke: rgb(229, 236, 246); stroke-opacity: 1;"/></g><g class="point"><path d="M496.74,115.47V124.72H511.97V115.47Z" style="vector-effect: non-scaling-stroke; opacity: 1; stroke-width: 0.5px; fill: rgb(0, 204, 150); fill-opacity: 1; stroke: rgb(229, 236, 246); stroke-opacity: 1;"/></g><g class="point"><path d="M515.77,115.47V100.54H531V115.47Z" style="vector-effect: non-scaling-stroke; opacity: 1; stroke-width: 0.5px; fill: rgb(0, 204, 150); fill-opacity: 1; stroke: rgb(229, 236, 246); stroke-opacity: 1;"/></g><g class="point"><path d="M534.81,115.47V109.96H550.03V115.47Z" style="vector-effect: non-scaling-stroke; opacity: 1; stroke-width: 0.5px; fill: rgb(0, 204, 150); fill-opacity: 1; stroke: rgb(229, 236, 246); stroke-opacity: 1;"/></g><g class="point"><path d="M553.84,115.47V130.89H569.06V115.47Z" style="vector-effect: non-scaling-stroke; opacity: 1; stroke-width: 0.5px; fill: rgb(0, 204, 150); fill-opacity: 1; stroke: rgb(229, 236, 246); stroke-opacity: 1;"/></g><g class="point"><path d="M572.87,115.47V112.21H588.1V115.47Z" style="vector-effect: non-scaling-stroke; opacity: 1; stroke-width: 0.5px; fill: rgb(0, 204, 150); fill-opacity: 1; stroke: rgb(229, 236, 246); stroke-opacity: 1;"/></g></g></g></g></g><g class="overplot"/><path class="xlines-above crisp" style="fill: none; stroke-width: 1px; stroke: rgb(255, 255, 255); stroke-opacity: 1;" d="M79,720.5H670"/><path class="ylines-above crisp" style="fill: none; stroke-width: 1px; stroke: rgb(255, 255, 255); stroke-opacity: 1;" d="M79.5,582.2222222222222V720"/><g class="overlines-above"/><g class="xaxislayer-above"><g class="x3tick"><text text-anchor="middle" x="0" y="735.4" transform="translate(89.52,0)" style="font-family: 'Open Sans', verdana, arial, sans-serif; font-size: 12px; fill: rgb(42, 63, 95); fill-opacity: 1; white-space: pre;">0</text></g><g class="x3tick"><text text-anchor="middle" x="0" y="735.4" transform="translate(184.68,0)" style="font-family: 'Open Sans', verdana, arial, sans-serif; font-size: 12px; fill: rgb(42, 63, 95); fill-opacity: 1; white-space: pre;">5</text></g><g class="x3tick"><text text-anchor="middle" x="0" y="735.4" transform="translate(279.84000000000003,0)" style="font-family: 'Open Sans', verdana, arial, sans-serif; font-size: 12px; fill: rgb(42, 63, 95); fill-opacity: 1; white-space: pre;">10</text></g><g class="x3tick"><text text-anchor="middle" x="0" y="735.4" transform="translate(375,0)" style="font-family: 'Open Sans', verdana, arial, sans-serif; font-size: 12px; fill: rgb(42, 63, 95); fill-opacity: 1; white-space: pre;">15</text></g><g class="x3tick"><text text-anchor="middle" x="0" y="735.4" transform="translate(470.16,0)" style="font-family: 'Open Sans', verdana, arial, sans-serif; font-size: 12px; fill: rgb(42, 63, 95); fill-opacity: 1; white-space: pre;">20</text></g><g class="x3tick"><text text-anchor="middle" x="0" y="735.4" transform="translate(565.3199999999999,0)" style="font-family: 'Open Sans', verdana, arial, sans-serif; font-size: 12px; fill: rgb(42, 63, 95); fill-opacity: 1; white-space: pre;">25</text></g><g class="x3tick"><text text-anchor="middle" x="0" y="735.4" transform="translate(660.48,0)" style="font-family: 'Open Sans', verdana, arial, sans-serif; font-size: 12px; fill: rgb(42, 63, 95); fill-opacity: 1; white-space: pre;">30</text></g></g><g class="yaxislayer-above"><g class="y3tick"><text text-anchor="end" x="76.6" y="4.199999999999999" transform="translate(0,697.6922222222222)" style="font-family: 'Open Sans', verdana, arial, sans-serif; font-size: 12px; fill: rgb(42, 63, 95); fill-opacity: 1; white-space: pre;">0</text></g><g class="y3tick"><text text-anchor="end" x="76.6" y="4.199999999999999" transform="translate(0,643.4022222222221)" style="font-family: 'Open Sans', verdana, arial, sans-serif; font-size: 12px; fill: rgb(42, 63, 95); fill-opacity: 1; white-space: pre;">0.5</text></g><g class="y3tick"><text text-anchor="end" x="76.6" y="4.199999999999999" transform="translate(0,589.1122222222222)" style="font-family: 'Open Sans', verdana, arial, sans-serif; font-size: 12px; fill: rgb(42, 63, 95); fill-opacity: 1; white-space: pre;">1</text></g></g><g class="overaxes-above"/></g></g><g class="polarlayer"/><g class="ternarylayer"/><g class="geolayer"/><g class="funnelarealayer"/><g class="pielayer"/><g class="treemaplayer"/><g class="sunburstlayer"/><g class="glimages"/><defs id="topdefs-c626c1"><g class="clips"/></defs><g class="layer-above"><g class="imagelayer"/><g class="shapelayer"/></g><g class="infolayer"><g class="g-gtitle"/><g class="g-xtitle"><text class="xtitle" x="375" y="280.3624990463257" text-anchor="middle" style="font-family: 'Open Sans', verdana, arial, sans-serif; font-size: 14px; fill: rgb(42, 63, 95); opacity: 1; font-weight: normal; white-space: pre;">Date</text></g><g class="g-x2title"><text class="x2title" x="375" y="521.4718740463256" text-anchor="middle" style="font-family: 'Open Sans', verdana, arial, sans-serif; font-size: 14px; fill: rgb(42, 63, 95); opacity: 1; font-weight: normal; white-space: pre;">nlags</text></g><g class="g-x3title"><text class="x3title" x="375" y="762.5802724838256" text-anchor="middle" style="font-family: 'Open Sans', verdana, arial, sans-serif; font-size: 14px; fill: rgb(42, 63, 95); opacity: 1; font-weight: normal; white-space: pre;">nlags</text></g><g class="g-ytitle"><text class="ytitle" transform="rotate(-90,28.903125000000003,168.88888888888889)" x="28.903125000000003" y="168.88888888888889" text-anchor="middle" style="font-family: 'Open Sans', verdana, arial, sans-serif; font-size: 14px; fill: rgb(42, 63, 95); opacity: 1; font-weight: normal; white-space: pre;">Adj. Closing</text></g><g class="g-y2title"><text class="y2title" transform="rotate(-90,32.16875,410)" x="32.16875" y="410" text-anchor="middle" style="font-family: 'Open Sans', verdana, arial, sans-serif; font-size: 14px; fill: rgb(42, 63, 95); opacity: 1; font-weight: normal; white-space: pre;">ACF</text></g><g class="g-y3title"><text class="y3title" transform="rotate(-90,32.16875,651.1111111111111)" x="32.16875" y="651.1111111111111" text-anchor="middle" style="font-family: 'Open Sans', verdana, arial, sans-serif; font-size: 14px; fill: rgb(42, 63, 95); opacity: 1; font-weight: normal; white-space: pre;">PACF</text></g><g class="annotation" data-index="0" style="opacity: 1;"><g class="annotation-text-g" transform="rotate(0,375,88)"><g class="cursor-pointer" transform="translate(302, 76)"><rect class="bg" x="0.5" y="0.5" width="145" height="23" style="stroke-width: 1px; stroke: rgb(0, 0, 0); stroke-opacity: 0; fill: rgb(0, 0, 0); fill-opacity: 0;"/><text class="annotation-text" text-anchor="middle" x="72.8916015625" y="18.2041015625" style="font-family: 'Open Sans', verdana, arial, sans-serif; font-size: 16px; fill: rgb(42, 63, 95); fill-opacity: 1; white-space: pre;">Daily Adj. Closing</text></g></g></g><g class="annotation" data-index="1" style="opacity: 1;"><g class="annotation-text-g" transform="rotate(0,375,329.1111111111111)"><g class="cursor-pointer" transform="translate(357, 317)"><rect class="bg" x="0.5" y="0.5" width="35" height="23" style="stroke-width: 1px; stroke: rgb(0, 0, 0); stroke-opacity: 0; fill: rgb(0, 0, 0); fill-opacity: 0;"/><text class="annotation-text" text-anchor="middle" x="17.6572265625" y="18.2041015625" style="font-family: 'Open Sans', verdana, arial, sans-serif; font-size: 16px; fill: rgb(42, 63, 95); fill-opacity: 1; white-space: pre;">ACF</text></g></g></g><g class="annotation" data-index="2" style="opacity: 1;"><g class="annotation-text-g" transform="rotate(0,375,570.2222222222222)"><g class="cursor-pointer" transform="translate(329, 558)"><rect class="bg" x="0.5" y="0.5" width="91" height="23" style="stroke-width: 1px; stroke: rgb(0, 0, 0); stroke-opacity: 0; fill: rgb(0, 0, 0); fill-opacity: 0;"/><text class="annotation-text" text-anchor="middle" x="45.671875" y="18.2041015625" style="font-family: 'Open Sans', verdana, arial, sans-serif; font-size: 16px; fill: rgb(42, 63, 95); fill-opacity: 1; white-space: pre;">Partial ACF</text></g></g></g></g></svg>