<svg class="main-svg" xmlns="http://www.w3.org/2000/svg" xmlns:xlink="http://www.w3.org/1999/xlink" width="1200" height="800" style="" viewBox="0 0 1200 800"><rect x="0" y="0" width="1200" height="800" style="fill: rgb(255, 255, 255); fill-opacity: 1;"/><defs id="defs-1678f4"><g class="clips"><clipPath id="clip1678f4xyplot" class="plotclip"><rect width="1019" height="601"/></clipPath><clipPath class="axesclip" id="clip1678f4x"><rect x="80" y="0" width="1019" height="800"/></clipPath><clipPath class="axesclip" id="clip1678f4y"><rect x="0" y="100" width="1200" height="601"/></clipPath><clipPath class="axesclip" id="clip1678f4xy"><rect x="80" y="100" width="1019" height="601"/></clipPath></g><g class="gradients"/></defs><g class="bglayer"><rect class="bg" x="80" y="100" width="1019" height="601" style="fill: rgb(229, 236, 246); fill-opacity: 1; stroke-width: 0;"/></g><g class="layer-below"><g class="imagelayer"/><g class="shapelayer"/></g><g class="cartesianlayer"><g class="subplot xy"><g class="layer-subplot"><g class="shapelayer"/><g class="imagelayer"/></g><g class="gridlayer"><g class="x"><path class="xgrid crisp" transform="translate(106.82,0)" d="M0,100v601" style="stroke: rgb(255, 255, 255); stroke-opacity: 1; stroke-width: 1px;"/><path class="xgrid crisp" transform="translate(214.08,0)" d="M0,100v601" style="stroke: rgb(255, 255, 255); stroke-opacity: 1; stroke-width: 1px;"/><path class="xgrid crisp" transform="translate(321.34000000000003,0)" d="M0,100v601" style="stroke: rgb(255, 255, 255); stroke-opacity: 1; stroke-width: 1px;"/><path class="xgrid crisp" transform="translate(428.61,0)" d="M0,100v601" style="stroke: rgb(255, 255, 255); stroke-opacity: 1; stroke-width: 1px;"/><path class="xgrid crisp" transform="translate(535.87,0)" d="M0,100v601" style="stroke: rgb(255, 255, 255); stroke-opacity: 1; stroke-width: 1px;"/><path class="xgrid crisp" transform="translate(643.13,0)" d="M0,100v601" style="stroke: rgb(255, 255, 255); stroke-opacity: 1; stroke-width: 1px;"/><path class="xgrid crisp" transform="translate(750.39,0)" d="M0,100v601" style="stroke: rgb(255, 255, 255); stroke-opacity: 1; stroke-width: 1px;"/><path class="xgrid crisp" transform="translate(857.66,0)" d="M0,100v601" style="stroke: rgb(255, 255, 255); stroke-opacity: 1; stroke-width: 1px;"/><path class="xgrid crisp" transform="translate(964.92,0)" d="M0,100v601" style="stroke: rgb(255, 255, 255); stroke-opacity: 1; stroke-width: 1px;"/><path class="xgrid crisp" transform="translate(1072.1799999999998,0)" d="M0,100v601" style="stroke: rgb(255, 255, 255); stroke-opacity: 1; stroke-width: 1px;"/></g><g class="y"><path class="ygrid crisp" transform="translate(0,668.25)" d="M80,0h1019" style="stroke: rgb(255, 255, 255); stroke-opacity: 1; stroke-width: 1px;"/><path class="ygrid crisp" transform="translate(0,600.5799999999999)" d="M80,0h1019" style="stroke: rgb(255, 255, 255); stroke-opacity: 1; stroke-width: 1px;"/><path class="ygrid crisp" transform="translate(0,532.9100000000001)" d="M80,0h1019" style="stroke: rgb(255, 255, 255); stroke-opacity: 1; stroke-width: 1px;"/><path class="ygrid crisp" transform="translate(0,465.24)" d="M80,0h1019" style="stroke: rgb(255, 255, 255); stroke-opacity: 1; stroke-width: 1px;"/><path class="ygrid crisp" transform="translate(0,397.57)" d="M80,0h1019" style="stroke: rgb(255, 255, 255); stroke-opacity: 1; stroke-width: 1px;"/><path class="ygrid crisp" transform="translate(0,262.22)" d="M80,0h1019" style="stroke: rgb(255, 255, 255); stroke-opacity: 1; stroke-width: 1px;"/><path class="ygrid crisp" transform="translate(0,194.55)" d="M80,0h1019" style="stroke: rgb(255, 255, 255); stroke-opacity: 1; stroke-width: 1px;"/><path class="ygrid crisp" transform="translate(0,126.88)" d="M80,0h1019" style="stroke: rgb(255, 255, 255); stroke-opacity: 1; stroke-width: 1px;"/></g></g><g class="zerolinelayer"><path class="yzl zl crisp" transform="translate(0,329.89)" d="M80,0h1019" style="stroke: rgb(255, 255, 255); stroke-opacity: 1; stroke-width: 2px;"/></g><path class="xlines-below"/><path class="ylines-below"/><g class="overlines-below"/><g class="xaxislayer-below"/><g class="yaxislayer-below"/><g class="overaxes-below"/><g class="plot" transform="translate(80, 100)" clip-path="url('#clip1678f4xyplot')"><g class="violinlayer mlayer"><g class="trace violins" style="opacity: 1;"><path class="violin" d="M26.82,295.35L27.35,295.35Q27.64,291.21 27.86,289.14C28.08,287.07 28.34,285 28.66,282.93C28.98,280.85 29.38,278.78 29.8,276.71C30.23,274.63 30.72,272.57 31.21,270.5C31.7,268.43 32.25,266.36 32.75,264.29C33.24,262.22 33.76,260.16 34.18,258.08C34.59,256.02 34.97,253.95 35.24,251.87C35.51,249.81 35.69,247.73 35.78,245.66C35.87,243.59 35.84,241.52 35.77,239.45C35.7,237.38 35.52,235.31 35.36,233.24C35.2,231.17 34.96,229.1 34.79,227.03C34.62,224.96 34.44,222.89 34.35,220.82C34.26,218.75 34.21,216.68 34.24,214.61C34.27,212.54 34.38,210.46 34.55,208.39C34.72,206.32 34.98,204.25 35.25,202.18C35.53,200.11 35.87,198.04 36.2,195.97C36.53,193.9 36.9,191.83 37.21,189.76C37.52,187.69 37.84,185.62 38.06,183.55C38.28,181.48 38.47,179.41 38.55,177.34C38.63,175.27 38.63,173.2 38.53,171.13C38.43,169.06 38.21,166.98 37.93,164.92C37.64,162.84 37.25,160.77 36.82,158.71C36.39,156.63 35.86,154.57 35.34,152.5C34.82,150.43 34.24,148.36 33.69,146.29C33.14,144.22 32.57,142.15 32.05,140.08C31.53,138.01 31.04,135.94 30.59,133.86C30.15,131.79 29.74,129.72 29.38,127.65C29.02,125.58 28.71,123.51 28.45,121.44C28.19,119.37 27.98,117.3 27.8,115.23C27.62,113.16 27.49,111.09 27.37,109.02C27.26,106.95 27.18,104.88 27.11,102.81Q27.04,100.74 26.96,96.6L26.82,96.6" style="vector-effect: non-scaling-stroke; stroke-width: 2px; stroke: rgb(255, 165, 0); stroke-opacity: 1; fill: rgb(255, 165, 0); fill-opacity: 0.5;"/><path class="violin" d="M134.08,194.07L134.25,194.07Q134.35,190.75 134.44,189.09C134.52,187.43 134.62,185.78 134.76,184.12C134.9,182.46 135.06,180.8 135.27,179.15C135.48,177.49 135.73,175.83 136.02,174.18C136.31,172.52 136.65,170.86 137.02,169.21C137.39,167.55 137.8,165.89 138.22,164.24C138.64,162.58 139.11,160.93 139.55,159.27C140,157.61 140.46,155.96 140.89,154.3C141.32,152.64 141.75,150.99 142.15,149.33C142.55,147.68 142.93,146.02 143.27,144.36C143.61,142.71 143.93,141.05 144.21,139.39C144.49,137.74 144.73,136.08 144.93,134.42C145.12,132.77 145.28,131.11 145.38,129.45C145.48,127.79 145.53,126.14 145.53,124.48C145.53,122.82 145.46,121.17 145.39,119.51C145.32,117.85 145.18,116.2 145.1,114.54C145.02,112.88 144.92,111.23 144.93,109.57C144.94,107.91 144.99,106.25 145.14,104.6C145.29,102.94 145.54,101.28 145.84,99.63C146.14,97.97 146.56,96.32 146.93,94.66C147.3,93 147.76,91.35 148.08,89.69C148.4,88.04 148.72,86.38 148.86,84.72C149,83.07 149.05,81.4 148.93,79.75C148.81,78.09 148.52,76.42 148.12,74.78C147.71,73.11 147.12,71.45 146.5,69.81C145.86,68.14 145.09,66.49 144.33,64.84C143.57,63.18 142.73,61.53 141.95,59.87C141.18,58.22 140.39,56.57 139.69,54.9C139,53.25 138.34,51.6 137.78,49.93C137.22,48.28 136.74,46.63 136.33,44.96C135.93,43.31 135.61,41.65 135.34,39.99C135.07,38.34 134.89,36.68 134.73,35.02Q134.57,33.37 134.38,30.05L134.08,30.05" style="vector-effect: non-scaling-stroke; stroke-width: 2px; stroke: rgb(255, 165, 0); stroke-opacity: 1; fill: rgb(255, 165, 0); fill-opacity: 0.5;"/><path class="violin" d="M241.34,293.98L241.6,293.98Q241.73,289.94 241.82,287.92C241.91,285.9 242.02,283.88 242.15,281.86C242.28,279.84 242.43,277.82 242.59,275.8C242.75,273.78 242.93,271.76 243.11,269.74C243.29,267.72 243.48,265.7 243.66,263.68C243.85,261.66 244.03,259.64 244.22,257.62C244.41,255.6 244.59,253.58 244.8,251.56C245.01,249.54 245.22,247.52 245.47,245.5C245.72,243.48 245.99,241.45 246.29,239.43C246.59,237.41 246.92,235.39 247.27,233.37C247.62,231.35 248.01,229.33 248.38,227.31C248.75,225.29 249.13,223.27 249.47,221.25C249.8,219.23 250.14,217.21 250.39,215.19C250.64,213.17 250.85,211.15 250.99,209.13C251.13,207.11 251.2,205.09 251.24,203.07C251.28,201.05 251.24,199.03 251.21,197.01C251.18,194.99 251.11,192.97 251.08,190.95C251.05,188.93 251.01,186.91 251.04,184.89C251.07,182.87 251.14,180.84 251.25,178.82C251.36,176.8 251.54,174.78 251.72,172.76C251.9,170.74 252.14,168.72 252.33,166.7C252.52,164.68 252.74,162.66 252.86,160.64C252.98,158.62 253.08,156.6 253.07,154.58C253.06,152.56 252.96,150.54 252.77,148.52C252.57,146.5 252.27,144.47 251.9,142.46C251.52,140.43 251.03,138.41 250.52,136.4C250,134.37 249.4,132.36 248.81,130.34C248.22,128.32 247.58,126.3 246.99,124.28C246.41,122.26 245.82,120.24 245.3,118.21C244.79,116.19 244.31,114.18 243.9,112.15C243.49,110.14 243.14,108.11 242.85,106.09C242.56,104.07 242.34,102.05 242.16,100.03Q241.98,98.01 241.75,93.97L241.34,93.97" style="vector-effect: non-scaling-stroke; stroke-width: 2px; stroke: rgb(255, 165, 0); stroke-opacity: 1; fill: rgb(255, 165, 0); fill-opacity: 0.5;"/><path class="violin" d="M348.61,525.77L348.92,525.77Q349.1,520.44 349.25,517.77C349.4,515.1 349.57,512.43 349.81,509.77C350.05,507.1 350.33,504.44 350.67,501.78C351.01,499.11 351.42,496.44 351.86,493.78C352.3,491.11 352.81,488.45 353.32,485.79C353.83,483.12 354.41,480.46 354.93,477.79C355.45,475.12 356,472.46 356.46,469.79C356.92,467.13 357.36,464.47 357.69,461.8C358.02,459.14 358.28,456.47 358.44,453.8C358.6,451.14 358.65,448.47 358.64,445.8C358.63,443.14 358.51,440.47 358.36,437.81C358.21,435.14 357.98,432.47 357.75,429.81C357.52,427.14 357.24,424.48 356.99,421.82C356.73,419.15 356.46,416.49 356.22,413.82C355.98,411.15 355.74,408.49 355.53,405.82C355.32,403.16 355.12,400.49 354.96,397.83C354.8,395.16 354.66,392.5 354.55,389.83C354.44,387.16 354.35,384.5 354.28,381.83C354.21,379.17 354.18,376.5 354.15,373.84C354.12,371.17 354.11,368.51 354.09,365.84C354.07,363.18 354.06,360.51 354.02,357.85C353.98,355.18 353.92,352.52 353.83,349.85C353.73,347.18 353.61,344.51 353.45,341.85C353.29,339.18 353.1,336.52 352.89,333.86C352.68,331.19 352.43,328.53 352.19,325.86C351.95,323.2 351.69,320.53 351.45,317.87C351.21,315.2 350.97,312.54 350.75,309.87C350.53,307.2 350.33,304.54 350.15,301.87C349.97,299.21 349.81,296.54 349.67,293.88C349.53,291.21 349.41,288.55 349.31,285.88C349.21,283.21 349.12,280.55 349.05,277.88C348.98,275.22 348.92,272.55 348.87,269.89C348.82,267.22 348.79,264.56 348.76,261.89Q348.73,259.23 348.68,253.9L348.61,253.9" style="vector-effect: non-scaling-stroke; stroke-width: 2px; stroke: rgb(255, 165, 0); stroke-opacity: 1; fill: rgb(255, 165, 0); fill-opacity: 0.5;"/><path class="violin" d="M455.87,261.48L456.15,261.48Q456.3,259.35 456.42,258.28C456.54,257.21 456.68,256.14 456.86,255.07C457.04,254 457.25,252.93 457.5,251.86C457.75,250.79 458.04,249.72 458.35,248.66C458.67,247.59 459.02,246.52 459.4,245.45C459.78,244.38 460.19,243.31 460.61,242.24C461.04,241.17 461.49,240.1 461.95,239.03C462.41,237.96 462.9,236.9 463.39,235.83C463.88,234.76 464.38,233.69 464.89,232.62C465.4,231.55 465.93,230.48 466.47,229.41C467.01,228.34 467.56,227.26 468.14,226.2C468.73,225.13 469.34,224.06 470,223C470.67,221.92 471.39,220.85 472.15,219.79C472.92,218.71 473.76,217.64 474.6,216.58C475.44,215.51 476.36,214.46 477.19,213.38C478,212.32 478.86,211.27 479.52,210.17C480.14,209.13 480.75,208.06 481.06,206.96C481.36,205.91 481.5,204.81 481.4,203.75C481.3,202.67 480.9,201.59 480.43,200.55C479.93,199.45 479.17,198.39 478.44,197.34C477.69,196.25 476.79,195.2 475.99,194.13C475.2,193.06 474.36,192.01 473.66,190.92C472.98,189.87 472.35,188.81 471.82,187.72C471.3,186.67 470.89,185.59 470.5,184.51C470.12,183.45 469.82,182.37 469.49,181.3C469.16,180.23 468.86,179.16 468.5,178.1C468.14,177.03 467.75,175.95 467.31,174.89C466.86,173.81 466.35,172.74 465.83,171.68C465.3,170.6 464.71,169.54 464.14,168.47C463.57,167.4 462.96,166.34 462.39,165.27C461.82,164.2 461.26,163.14 460.74,162.06C460.23,161 459.73,159.93 459.3,158.85C458.87,157.79 458.49,156.72 458.15,155.64C457.82,154.58 457.53,153.51 457.29,152.44C457.05,151.38 456.86,150.3 456.7,149.23C456.54,148.16 456.42,147.09 456.32,146.02Q456.22,144.95 456.09,142.82L455.87,142.82" style="vector-effect: non-scaling-stroke; stroke-width: 2px; stroke: rgb(255, 165, 0); stroke-opacity: 1; fill: rgb(255, 165, 0); fill-opacity: 0.5;"/><path class="violin" d="M563.13,399.57L563.5,399.57Q563.71,396.41 563.88,394.83C564.05,393.25 564.25,391.66 564.51,390.08C564.77,388.5 565.08,386.92 565.44,385.34C565.8,383.75 566.21,382.17 566.65,380.59C567.09,379 567.59,377.43 568.08,375.85C568.57,374.27 569.09,372.68 569.58,371.1C570.07,369.52 570.57,367.94 571.02,366.36C571.47,364.78 571.89,363.2 572.29,361.61C572.68,360.03 573.05,358.45 573.39,356.87C573.73,355.29 574.04,353.7 574.35,352.12C574.66,350.54 574.95,348.95 575.25,347.37C575.55,345.79 575.85,344.21 576.15,342.63C576.45,341.05 576.76,339.46 577.07,337.88C577.38,336.3 577.7,334.72 577.99,333.14C578.28,331.56 578.58,329.98 578.82,328.39C579.06,326.81 579.29,325.23 579.43,323.65C579.57,322.07 579.66,320.48 579.65,318.9C579.64,317.32 579.55,315.73 579.35,314.16C579.15,312.57 578.85,310.98 578.46,309.41C578.07,307.82 577.55,306.23 577.01,304.66C576.46,303.07 575.81,301.5 575.17,299.92C574.53,298.33 573.83,296.75 573.17,295.17C572.51,293.59 571.83,292.02 571.22,290.43C570.61,288.85 570.04,287.27 569.52,285.68C569,284.11 568.53,282.53 568.11,280.94C567.69,279.36 567.34,277.78 567,276.19C566.67,274.61 566.37,273.03 566.1,271.45C565.83,269.87 565.6,268.28 565.37,266.7C565.15,265.12 564.94,263.54 564.75,261.96C564.56,260.38 564.39,258.79 564.24,257.21C564.09,255.63 563.96,254.04 563.84,252.46C563.73,250.88 563.63,249.3 563.55,247.72C563.47,246.14 563.41,244.55 563.36,242.97C563.31,241.39 563.28,239.81 563.26,238.23C563.23,236.65 563.22,235.06 563.21,233.48C563.2,231.9 563.21,230.32 563.22,228.74C563.23,227.16 563.24,225.57 563.27,223.99C563.29,222.41 563.33,220.83 563.37,219.25C563.41,217.67 563.46,216.08 563.51,214.5C563.56,212.92 563.62,211.34 563.68,209.76C563.74,208.18 563.8,206.59 563.85,205.01C563.9,203.43 563.94,201.84 563.97,200.26C564,198.68 564.02,197.1 564.02,195.52C564.02,193.94 563.99,192.35 563.96,190.77C563.93,189.19 563.88,187.61 563.83,186.03C563.78,184.45 563.72,182.86 563.66,181.28C563.6,179.7 563.54,178.12 563.49,176.54C563.44,174.96 563.39,173.37 563.35,171.79Q563.31,170.21 563.25,167.05L563.13,167.05" style="vector-effect: non-scaling-stroke; stroke-width: 2px; stroke: rgb(255, 165, 0); stroke-opacity: 1; fill: rgb(255, 165, 0); fill-opacity: 0.5;"/><path class="violin" d="M670.39,286.43L671.11,286.43Q671.54,284.06 671.89,282.89C672.25,281.69 672.69,280.5 673.25,279.34C673.83,278.13 674.54,276.94 675.34,275.79C676.17,274.58 677.16,273.41 678.17,272.25C679.22,271.05 680.39,269.88 681.52,268.7C682.65,267.51 683.87,266.35 684.95,265.15C685.99,263.99 687.05,262.82 687.88,261.6C688.66,260.45 689.38,259.27 689.85,258.06C690.3,256.91 690.56,255.7 690.7,254.51C690.84,253.33 690.75,252.14 690.68,250.96C690.61,249.78 690.39,248.6 690.26,247.42C690.13,246.24 689.98,245.05 689.92,243.87C689.86,242.69 689.85,241.5 689.87,240.32C689.89,239.14 689.99,237.95 690.04,236.77C690.09,235.59 690.19,234.41 690.16,233.23C690.13,232.05 690.08,230.85 689.88,229.68C689.68,228.49 689.38,227.3 688.97,226.13C688.55,224.93 687.99,223.75 687.38,222.59C686.75,221.39 685.99,220.21 685.24,219.04C684.47,217.85 683.62,216.68 682.82,215.49C682.02,214.31 681.19,213.14 680.45,211.94C679.73,210.77 679.02,209.6 678.42,208.4C677.83,207.23 677.32,206.05 676.88,204.85C676.45,203.68 676.11,202.49 675.82,201.3C675.53,200.12 675.33,198.94 675.13,197.75C674.93,196.57 674.79,195.39 674.63,194.21C674.47,193.03 674.33,191.84 674.18,190.66C674.03,189.48 673.88,188.29 673.72,187.11C673.56,185.93 673.4,184.75 673.23,183.57C673.06,182.39 672.88,181.2 672.71,180.02C672.54,178.84 672.36,177.65 672.19,176.47C672.02,175.29 671.86,174.1 671.71,172.92C671.56,171.74 671.41,170.56 671.29,169.38C671.16,168.2 671.06,167.01 670.96,165.83C670.87,164.65 670.79,163.46 670.72,162.28Q670.66,161.1 670.57,158.74L670.39,158.74" style="vector-effect: non-scaling-stroke; stroke-width: 2px; stroke: rgb(255, 165, 0); stroke-opacity: 1; fill: rgb(255, 165, 0); fill-opacity: 0.5;"/><path class="violin" d="M777.66,344.69L777.9,344.69Q778.03,342.94 778.12,342.07C778.21,341.19 778.33,340.32 778.46,339.44C778.6,338.56 778.75,337.68 778.93,336.81C779.11,335.93 779.32,335.06 779.53,334.18C779.74,333.3 779.97,332.43 780.21,331.55C780.45,330.67 780.69,329.79 780.95,328.92C781.21,328.04 781.48,327.17 781.77,326.3C782.06,325.42 782.36,324.54 782.7,323.67C783.04,322.79 783.4,321.91 783.81,321.04C784.22,320.16 784.67,319.28 785.17,318.41C785.68,317.52 786.23,316.64 786.83,315.78C787.44,314.89 788.1,314.01 788.81,313.15C789.54,312.26 790.32,311.39 791.14,310.53C791.99,309.64 792.91,308.76 793.85,307.9C794.82,307.01 795.86,306.14 796.9,305.27C797.96,304.39 799.07,303.52 800.13,302.64C801.18,301.77 802.27,300.91 803.23,300.01C804.14,299.16 805.07,298.31 805.78,297.39C806.43,296.55 807.06,295.67 807.39,294.76C807.69,293.91 807.84,293 807.75,292.13C807.65,291.24 807.27,290.34 806.79,289.5C806.26,288.58 805.45,287.71 804.64,286.87C803.76,285.96 802.69,285.1 801.65,284.24C800.56,283.35 799.37,282.5 798.24,281.62C797.11,280.75 795.94,279.88 794.85,278.99C793.8,278.13 792.75,277.26 791.82,276.36C790.94,275.51 790.1,274.64 789.38,273.73C788.71,272.88 788.1,272 787.62,271.1C787.16,270.25 786.81,269.36 786.52,268.47C786.24,267.61 786.07,266.73 785.92,265.85C785.77,264.98 785.71,264.1 785.6,263.22C785.5,262.34 785.42,261.46 785.29,260.59C785.16,259.71 785.01,258.83 784.82,257.96C784.62,257.08 784.38,256.2 784.12,255.33C783.86,254.45 783.54,253.58 783.25,252.7C782.96,251.83 782.64,250.96 782.36,250.08C782.08,249.21 781.81,248.33 781.58,247.45C781.35,246.58 781.15,245.7 780.97,244.82C780.8,243.95 780.65,243.07 780.53,242.19C780.41,241.31 780.32,240.44 780.23,239.56C780.14,238.68 780.07,237.81 779.98,236.93C779.9,236.06 779.81,235.18 779.72,234.31C779.63,233.43 779.53,232.56 779.42,231.68C779.31,230.8 779.19,229.93 779.07,229.05C778.95,228.17 778.82,227.3 778.72,226.42C778.62,225.54 778.52,224.67 778.45,223.79C778.38,222.91 778.32,222.04 778.3,221.16C778.28,220.29 778.28,219.41 778.3,218.54C778.32,217.66 778.38,216.79 778.45,215.91C778.52,215.03 778.61,214.16 778.7,213.28C778.79,212.4 778.9,211.53 778.98,210.65C779.06,209.77 779.13,208.9 779.18,208.02C779.22,207.15 779.25,206.27 779.25,205.4C779.25,204.52 779.2,203.65 779.15,202.77C779.09,201.89 779.01,201.02 778.92,200.14C778.83,199.26 778.71,198.39 778.61,197.51C778.51,196.63 778.4,195.76 778.31,194.88C778.22,194 778.12,193.13 778.05,192.25Q777.98,191.38 777.87,189.63L777.66,189.63" style="vector-effect: non-scaling-stroke; stroke-width: 2px; stroke: rgb(255, 165, 0); stroke-opacity: 1; fill: rgb(255, 165, 0); fill-opacity: 0.5;"/><path class="violin" d="M884.92,288.04L885.65,288.04Q886.08,285.59 886.42,284.38C886.77,283.15 887.19,281.92 887.73,280.72C888.29,279.48 888.97,278.26 889.73,277.06C890.52,275.81 891.45,274.6 892.41,273.4C893.4,272.16 894.53,270.96 895.6,269.74C896.68,268.51 897.84,267.31 898.87,266.07C899.87,264.87 900.88,263.67 901.68,262.41C902.44,261.22 903.13,260 903.59,258.75C904.03,257.56 904.31,256.32 904.45,255.09C904.59,253.88 904.53,252.65 904.46,251.43C904.39,250.21 904.18,248.99 904.04,247.77C903.9,246.55 903.72,245.33 903.62,244.11C903.52,242.89 903.47,241.67 903.45,240.45C903.43,239.23 903.47,238.01 903.48,236.79C903.49,235.57 903.54,234.35 903.5,233.13C903.46,231.91 903.41,230.68 903.24,229.46C903.07,228.23 902.83,227.01 902.49,225.8C902.15,224.57 901.69,223.35 901.18,222.14C900.66,220.9 900.02,219.69 899.37,218.48C898.71,217.25 897.96,216.04 897.24,214.82C896.52,213.6 895.76,212.39 895.07,211.16C894.39,209.95 893.71,208.73 893.13,207.5C892.56,206.29 892.04,205.07 891.6,203.84C891.17,202.63 890.81,201.41 890.51,200.18C890.21,198.96 890,197.74 889.8,196.51C889.6,195.29 889.46,194.07 889.3,192.85C889.15,191.63 889.02,190.41 888.87,189.19C888.72,187.97 888.57,186.75 888.41,185.53C888.25,184.31 888.07,183.09 887.89,181.87C887.71,180.65 887.52,179.43 887.34,178.21C887.15,176.99 886.96,175.77 886.78,174.55C886.6,173.33 886.42,172.11 886.26,170.89C886.1,169.67 885.96,168.45 885.83,167.23C885.7,166.01 885.59,164.78 885.49,163.56C885.39,162.34 885.32,161.12 885.25,159.9Q885.18,158.68 885.09,156.24L884.92,156.24" style="vector-effect: non-scaling-stroke; stroke-width: 2px; stroke: rgb(255, 165, 0); stroke-opacity: 1; fill: rgb(255, 165, 0); fill-opacity: 0.5;"/><path class="violin" d="M992.18,341.26L992.46,341.26Q992.6,339.74 992.7,338.98C992.8,338.22 992.92,337.47 993.07,336.71C993.22,335.95 993.39,335.19 993.58,334.43C993.77,333.67 993.98,332.91 994.19,332.15C994.4,331.39 994.63,330.64 994.86,329.88C995.09,329.12 995.32,328.36 995.55,327.6C995.78,326.84 996.01,326.08 996.25,325.32C996.49,324.56 996.74,323.8 997.01,323.05C997.29,322.29 997.57,321.52 997.9,320.77C998.24,320 998.61,319.24 999.01,318.49C999.42,317.72 999.87,316.97 1000.34,316.22C1000.82,315.45 1001.34,314.69 1001.88,313.94C1002.43,313.17 1003,312.41 1003.61,311.66C1004.24,310.89 1004.89,310.12 1005.6,309.38C1006.35,308.6 1007.14,307.85 1008.01,307.11C1008.93,306.33 1009.94,305.57 1011,304.83C1012.12,304.05 1013.34,303.3 1014.55,302.55C1015.8,301.78 1017.13,301.05 1018.38,300.28C1019.6,299.53 1020.87,298.8 1021.95,298C1022.94,297.27 1023.95,296.54 1024.64,295.72C1025.24,295.01 1025.8,294.24 1025.97,293.45C1026.13,292.72 1026.01,291.89 1025.71,291.17C1025.38,290.36 1024.65,289.61 1023.92,288.89C1023.1,288.08 1022.01,287.35 1020.95,286.62C1019.8,285.83 1018.51,285.09 1017.26,284.34C1015.98,283.57 1014.64,282.83 1013.36,282.06C1012.11,281.31 1010.84,280.56 1009.66,279.78C1008.54,279.04 1007.44,278.29 1006.45,277.51C1005.52,276.77 1004.63,276.02 1003.85,275.23C1003.12,274.49 1002.45,273.73 1001.88,272.95C1001.35,272.22 1000.89,271.46 1000.53,270.68C1000.19,269.94 999.92,269.17 999.74,268.4C999.56,267.65 999.49,266.88 999.44,266.12C999.39,265.36 999.43,264.61 999.45,263.85C999.47,263.09 999.54,262.33 999.56,261.57C999.58,260.81 999.6,260.05 999.55,259.29C999.5,258.53 999.41,257.77 999.27,257.02C999.12,256.26 998.9,255.5 998.67,254.74C998.43,253.98 998.14,253.22 997.86,252.46C997.58,251.7 997.26,250.94 996.98,250.18C996.7,249.42 996.41,248.67 996.16,247.91C995.91,247.15 995.68,246.39 995.48,245.63C995.28,244.87 995.11,244.11 994.97,243.35C994.83,242.6 994.72,241.84 994.63,241.08C994.55,240.32 994.5,239.56 994.46,238.8C994.42,238.04 994.41,237.28 994.39,236.52C994.37,235.76 994.37,235.01 994.35,234.25C994.32,233.49 994.29,232.73 994.24,231.97C994.18,231.21 994.11,230.45 994.02,229.69C993.93,228.93 993.81,228.18 993.7,227.42C993.59,226.66 993.46,225.9 993.35,225.14C993.24,224.38 993.13,223.62 993.05,222.86C992.97,222.1 992.91,221.34 992.88,220.58C992.85,219.82 992.86,219.07 992.89,218.31C992.92,217.55 992.99,216.79 993.07,216.03C993.15,215.27 993.26,214.51 993.36,213.75C993.46,212.99 993.59,212.24 993.69,211.48C993.79,210.72 993.89,209.96 993.95,209.2C994.01,208.44 994.04,207.68 994.04,206.92C994.04,206.16 994,205.41 993.94,204.65C993.88,203.89 993.77,203.13 993.67,202.37C993.56,201.61 993.43,200.85 993.31,200.09C993.19,199.33 993.06,198.58 992.95,197.82C992.84,197.06 992.74,196.3 992.65,195.54Q992.57,194.78 992.44,193.26L992.18,193.26" style="vector-effect: non-scaling-stroke; stroke-width: 2px; stroke: rgb(255, 165, 0); stroke-opacity: 1; fill: rgb(255, 165, 0); fill-opacity: 0.5;"/><path class="meanline" d="M35.44788360595703,200.78H26.82" style="fill: none; vector-effect: non-scaling-stroke; stroke-width: 2px; stroke-dasharray: 4px, 2px; stroke: rgb(255, 165, 0); stroke-opacity: 1;"/><path class="meanline" d="M145.07498168945312,105.4H134.08" style="fill: none; vector-effect: non-scaling-stroke; stroke-width: 2px; stroke-dasharray: 4px, 2px; stroke: rgb(255, 165, 0); stroke-opacity: 1;"/><path class="meanline" d="M251.08721923828125,182.74H241.34" style="fill: none; vector-effect: non-scaling-stroke; stroke-width: 2px; stroke-dasharray: 4px, 2px; stroke: rgb(255, 165, 0); stroke-opacity: 1;"/><path class="meanline" d="M356.12213134765625,412.73H348.61" style="fill: none; vector-effect: non-scaling-stroke; stroke-width: 2px; stroke-dasharray: 4px, 2px; stroke: rgb(255, 165, 0); stroke-opacity: 1;"/><path class="meanline" d="M481.134521484375,202.4H455.87" style="fill: none; vector-effect: non-scaling-stroke; stroke-width: 2px; stroke-dasharray: 4px, 2px; stroke: rgb(255, 165, 0); stroke-opacity: 1;"/><path class="meanline" d="M579.5008544921875,322.79H563.13" style="fill: none; vector-effect: non-scaling-stroke; stroke-width: 2px; stroke-dasharray: 4px, 2px; stroke: rgb(255, 165, 0); stroke-opacity: 1;"/><path class="meanline" d="M690.0367431640625,236.84H670.39" style="fill: none; vector-effect: non-scaling-stroke; stroke-width: 2px; stroke-dasharray: 4px, 2px; stroke: rgb(255, 165, 0); stroke-opacity: 1;"/><path class="meanline" d="M804.5714111328125,286.8H777.66" style="fill: none; vector-effect: non-scaling-stroke; stroke-width: 2px; stroke-dasharray: 4px, 2px; stroke: rgb(255, 165, 0); stroke-opacity: 1;"/><path class="meanline" d="M903.4841918945312,236.43H884.92" style="fill: none; vector-effect: non-scaling-stroke; stroke-width: 2px; stroke-dasharray: 4px, 2px; stroke: rgb(255, 165, 0); stroke-opacity: 1;"/><path class="meanline" d="M1020.8329467773438,286.54H992.18" style="fill: none; vector-effect: non-scaling-stroke; stroke-width: 2px; stroke-dasharray: 4px, 2px; stroke: rgb(255, 165, 0); stroke-opacity: 1;"/><g class="points"/><g class="points"/><g class="points"/><g class="points"/><g class="points"/><g class="points"><path class="point" transform="translate(563.13,195.74)" d="M3,0A3,3 0 1,1 0,-3A3,3 0 0,1 3,0Z" style="opacity: 1; stroke-width: 0px; fill: rgb(255, 165, 0); fill-opacity: 1;"/></g><g class="points"/><g class="points"><path class="point" transform="translate(777.66,234.44)" d="M3,0A3,3 0 1,1 0,-3A3,3 0 0,1 3,0Z" style="opacity: 1; stroke-width: 0px; fill: rgb(255, 165, 0); fill-opacity: 1;"/><path class="point" transform="translate(777.66,205.57)" d="M3,0A3,3 0 1,1 0,-3A3,3 0 0,1 3,0Z" style="opacity: 1; stroke-width: 0px; fill: rgb(255, 165, 0); fill-opacity: 1;"/></g><g class="points"/><g class="points"><path class="point" transform="translate(992.18,327.58)" d="M3,0A3,3 0 1,1 0,-3A3,3 0 0,1 3,0Z" style="opacity: 1; stroke-width: 0px; fill: rgb(255, 165, 0); fill-opacity: 1;"/><path class="point" transform="translate(992.18,246.44)" d="M3,0A3,3 0 1,1 0,-3A3,3 0 0,1 3,0Z" style="opacity: 1; stroke-width: 0px; fill: rgb(255, 165, 0); fill-opacity: 1;"/><path class="point" transform="translate(992.18,232.15)" d="M3,0A3,3 0 1,1 0,-3A3,3 0 0,1 3,0Z" style="opacity: 1; stroke-width: 0px; fill: rgb(255, 165, 0); fill-opacity: 1;"/><path class="point" transform="translate(992.18,206.94)" d="M3,0A3,3 0 1,1 0,-3A3,3 0 0,1 3,0Z" style="opacity: 1; stroke-width: 0px; fill: rgb(255, 165, 0); fill-opacity: 1;"/></g></g><g class="trace violins" style="opacity: 1;"><path class="violin" d="M26.82,55.78L26.59,55.78Q26.46,58.38 26.35,59.68C26.24,60.98 26.12,62.28 25.95,63.57C25.78,64.87 25.57,66.18 25.31,67.47C25.05,68.77 24.75,70.07 24.4,71.36C24.04,72.67 23.63,73.97 23.17,75.26C22.71,76.57 22.19,77.86 21.65,79.15C21.1,80.46 20.51,81.76 19.91,83.05C19.3,84.35 18.65,85.64 18.01,86.94C17.37,88.24 16.73,89.54 16.08,90.84C15.44,92.14 14.78,93.43 14.14,94.73C13.49,96.03 12.86,97.33 12.21,98.63C11.56,99.93 10.9,101.23 10.23,102.52C9.55,103.82 8.86,105.12 8.17,106.42C7.48,107.72 6.75,109 6.1,110.31C5.46,111.6 4.79,112.89 4.28,114.21C3.78,115.49 3.3,116.79 3.05,118.1C2.8,119.38 2.68,120.71 2.76,122C2.84,123.3 3.14,124.62 3.56,125.89C3.99,127.21 4.65,128.51 5.34,129.79C6.05,131.11 6.93,132.39 7.78,133.68C8.64,134.99 9.58,136.28 10.46,137.58C11.33,138.87 12.22,140.16 13.02,141.47C13.81,142.76 14.56,144.06 15.23,145.37C15.89,146.66 16.49,147.96 17.02,149.27C17.54,150.56 17.99,151.85 18.39,153.16C18.79,154.45 19.13,155.76 19.43,157.06C19.73,158.35 19.97,159.65 20.2,160.95C20.43,162.25 20.63,163.55 20.82,164.85C21.01,166.15 21.18,167.44 21.34,168.74C21.51,170.04 21.66,171.34 21.81,172.64C21.96,173.94 22.1,175.23 22.24,176.53C22.38,177.83 22.51,179.13 22.65,180.43C22.79,181.73 22.91,183.02 23.06,184.32C23.21,185.62 23.37,186.92 23.54,188.22C23.71,189.52 23.9,190.81 24.09,192.11C24.28,193.41 24.5,194.71 24.7,196.01C24.9,197.31 25.12,198.6 25.31,199.9C25.5,201.2 25.68,202.5 25.84,203.8C25.99,205.1 26.13,206.39 26.24,207.69Q26.35,208.99 26.51,211.59L26.82,211.59" style="vector-effect: non-scaling-stroke; stroke-width: 2px; stroke: rgb(0, 0, 255); stroke-opacity: 1; fill: rgb(0, 0, 255); fill-opacity: 0.5;"/><path class="violin" d="M134.08,380.54L133.72,380.54Q133.52,383.97 133.38,385.69C133.24,387.41 133.06,389.13 132.86,390.84C132.66,392.56 132.41,394.27 132.16,395.98C131.91,397.7 131.61,399.41 131.34,401.13C131.07,402.84 130.78,404.55 130.54,406.27C130.3,407.98 130.07,409.7 129.9,411.42C129.73,413.13 129.59,414.85 129.51,416.57C129.43,418.28 129.4,420 129.39,421.71C129.38,423.43 129.42,425.14 129.45,426.86C129.48,428.57 129.55,430.29 129.57,432C129.59,433.72 129.6,435.43 129.56,437.15C129.52,438.87 129.45,440.59 129.3,442.3C129.15,444.02 128.94,445.73 128.66,447.44C128.38,449.16 128.03,450.88 127.64,452.59C127.25,454.31 126.77,456.03 126.3,457.74C125.83,459.46 125.31,461.16 124.83,462.88C124.36,464.59 123.87,466.31 123.45,468.03C123.03,469.74 122.66,471.45 122.32,473.17C121.99,474.88 121.72,476.6 121.44,478.32C121.16,480.04 120.94,481.76 120.66,483.47C120.38,485.19 120.1,486.9 119.78,488.61C119.45,490.33 119.07,492.04 118.71,493.76C118.35,495.47 117.94,497.18 117.63,498.9C117.33,500.61 117.01,502.33 116.88,504.05C116.75,505.76 116.7,507.49 116.83,509.2C116.96,510.92 117.26,512.64 117.66,514.34C118.07,516.07 118.66,517.79 119.27,519.49C119.89,521.22 120.64,522.92 121.36,524.63C122.08,526.35 122.87,528.06 123.6,529.78C124.33,531.49 125.07,533.21 125.76,534.93C126.44,536.64 127.09,538.35 127.7,540.07C128.3,541.78 128.88,543.5 129.4,545.22C129.92,546.93 130.4,548.65 130.83,550.37C131.26,552.08 131.64,553.79 131.97,555.51C132.3,557.22 132.57,558.94 132.81,560.66C133.04,562.37 133.23,564.08 133.38,565.8Q133.53,567.51 133.73,570.95L134.08,570.95" style="vector-effect: non-scaling-stroke; stroke-width: 2px; stroke: rgb(0, 0, 255); stroke-opacity: 1; fill: rgb(0, 0, 255); fill-opacity: 0.5;"/><path class="violin" d="M241.34,80.94L241.12,80.94Q241.01,82.86 240.93,83.82C240.85,84.78 240.76,85.73 240.66,86.69C240.56,87.65 240.45,88.6 240.33,89.56C240.21,90.52 240.07,91.47 239.95,92.43C239.83,93.39 239.71,94.34 239.59,95.3C239.47,96.26 239.36,97.21 239.25,98.17C239.14,99.13 239.05,100.08 238.94,101.04C238.83,102 238.73,102.95 238.6,103.91C238.47,104.87 238.34,105.83 238.18,106.78C238.02,107.74 237.83,108.7 237.62,109.65C237.41,110.61 237.17,111.57 236.9,112.52C236.62,113.48 236.33,114.44 235.97,115.39C235.61,116.36 235.21,117.32 234.74,118.26C234.25,119.23 233.71,120.19 233.08,121.13C232.42,122.11 231.67,123.06 230.86,124C230.02,124.98 229.06,125.93 228.11,126.87C227.13,127.84 226.06,128.79 225.04,129.75C224.03,130.71 222.97,131.65 222.01,132.62C221.08,133.56 220.17,134.51 219.36,135.49C218.59,136.43 217.89,137.39 217.25,138.36C216.63,139.3 216.11,140.27 215.58,141.23C215.06,142.18 214.6,143.14 214.12,144.1C213.64,145.06 213.16,146.01 212.71,146.97C212.27,147.92 211.79,148.87 211.46,149.84C211.14,150.78 210.83,151.75 210.74,152.71C210.66,153.66 210.7,154.64 210.94,155.58C211.19,156.56 211.69,157.53 212.27,158.45C212.89,159.45 213.75,160.39 214.6,161.32C215.5,162.3 216.55,163.24 217.55,164.19C218.56,165.15 219.64,166.09 220.64,167.06C221.63,168.01 222.6,168.96 223.52,169.93C224.41,170.87 225.26,171.83 226.08,172.8C226.88,173.75 227.64,174.71 228.39,175.67C229.13,176.62 229.85,177.59 230.57,178.55C231.29,179.51 232.01,180.46 232.72,181.42C233.42,182.37 234.14,183.33 234.81,184.29C235.47,185.24 236.13,186.19 236.72,187.16C237.29,188.11 237.84,189.06 238.31,190.03C238.77,190.97 239.18,191.93 239.52,192.9C239.85,193.85 240.12,194.81 240.34,195.77Q240.56,196.72 240.84,198.64L241.34,198.64" style="vector-effect: non-scaling-stroke; stroke-width: 2px; stroke: rgb(0, 0, 255); stroke-opacity: 1; fill: rgb(0, 0, 255); fill-opacity: 0.5;"/><path class="violin" d="M348.61,91.6L348.44,91.6Q348.35,94.63 348.28,96.15C348.21,97.67 348.13,99.19 348.03,100.71C347.93,102.23 347.81,103.74 347.67,105.26C347.53,106.78 347.37,108.29 347.2,109.81C347.03,111.33 346.84,112.85 346.65,114.37C346.46,115.89 346.26,117.4 346.07,118.92C345.89,120.44 345.7,121.95 345.54,123.47C345.38,124.99 345.23,126.51 345.11,128.03C344.99,129.55 344.9,131.06 344.83,132.58C344.76,134.1 344.73,135.62 344.71,137.14C344.69,138.66 344.69,140.17 344.69,141.69C344.69,143.21 344.72,144.72 344.73,146.24C344.74,147.76 344.75,149.28 344.74,150.8C344.73,152.32 344.71,153.83 344.65,155.35C344.59,156.87 344.52,158.39 344.37,159.91C344.22,161.43 344.04,162.95 343.76,164.46C343.47,165.98 343.12,167.51 342.66,169.01C342.19,170.54 341.61,172.07 340.94,173.57C340.26,175.11 339.43,176.62 338.59,178.12C337.73,179.65 336.74,181.16 335.82,182.68C334.9,184.2 333.9,185.69 333.06,187.23C332.25,188.73 331.43,190.23 330.86,191.78C330.31,193.27 329.87,194.81 329.66,196.34C329.45,197.85 329.46,199.38 329.59,200.89C329.72,202.42 330.09,203.94 330.44,205.45C330.8,206.98 331.31,208.48 331.73,210C332.15,211.51 332.6,213.03 332.94,214.55C333.28,216.06 333.56,217.59 333.79,219.11C334.02,220.62 334.15,222.14 334.31,223.66C334.47,225.18 334.57,226.7 334.77,228.22C334.97,229.74 335.18,231.26 335.5,232.77C335.82,234.29 336.22,235.81 336.68,237.32C337.15,238.85 337.72,240.37 338.29,241.88C338.87,243.4 339.52,244.91 340.13,246.43C340.74,247.95 341.38,249.46 341.95,250.99C342.51,252.5 343.05,254.02 343.52,255.54C343.98,257.05 344.39,258.57 344.75,260.09C345.1,261.6 345.39,263.13 345.65,264.65C345.91,266.16 346.1,267.68 346.29,269.2C346.48,270.72 346.64,272.24 346.79,273.76C346.94,275.28 347.07,276.79 347.2,278.31C347.33,279.83 347.45,281.34 347.56,282.86C347.67,284.38 347.78,285.9 347.88,287.42C347.98,288.94 348.07,290.45 348.14,291.97C348.22,293.49 348.28,295.01 348.33,296.53Q348.38,298.05 348.46,301.08L348.61,301.08" style="vector-effect: non-scaling-stroke; stroke-width: 2px; stroke: rgb(0, 0, 255); stroke-opacity: 1; fill: rgb(0, 0, 255); fill-opacity: 0.5;"/><path class="violin" d="M455.87,44.63L455.35,44.63Q455.05,50.11 454.81,52.85C454.57,55.59 454.28,58.33 453.9,61.06C453.52,63.8 453.07,66.54 452.54,69.27C452.01,72.02 451.38,74.76 450.73,77.49C450.08,80.23 449.33,82.96 448.63,85.7C447.93,88.44 447.16,91.17 446.51,93.91C445.86,96.64 445.22,99.38 444.74,102.13C444.26,104.86 443.86,107.6 443.63,110.34C443.4,113.07 443.31,115.81 443.35,118.55C443.39,121.29 443.6,124.04 443.87,126.77C444.14,129.51 444.55,132.25 444.96,134.98C445.37,137.72 445.87,140.45 446.32,143.19C446.77,145.93 447.25,148.67 447.66,151.41C448.07,154.14 448.46,156.88 448.78,159.62C449.1,162.35 449.37,165.09 449.58,167.83C449.79,170.56 449.93,173.3 450.03,176.04C450.13,178.78 450.18,181.52 450.2,184.26C450.22,187 450.19,189.73 450.18,192.47C450.17,195.21 450.13,197.94 450.12,200.68C450.11,203.42 450.09,206.16 450.12,208.9C450.15,211.64 450.21,214.37 450.3,217.11C450.4,219.85 450.53,222.58 450.69,225.32C450.85,228.06 451.06,230.8 451.28,233.54C451.5,236.28 451.75,239.01 452,241.75C452.25,244.49 452.51,247.22 452.76,249.96C453.01,252.7 453.27,255.44 453.5,258.18C453.73,260.92 453.95,263.65 454.15,266.39C454.35,269.13 454.54,271.86 454.7,274.6C454.86,277.34 455,280.08 455.12,282.82C455.24,285.56 455.34,288.29 455.42,291.03C455.5,293.77 455.57,296.5 455.62,299.24Q455.68,301.98 455.75,307.46L455.87,307.46" style="vector-effect: non-scaling-stroke; stroke-width: 2px; stroke: rgb(0, 0, 255); stroke-opacity: 1; fill: rgb(0, 0, 255); fill-opacity: 0.5;"/><path class="violin" d="M563.13,106.67L563.02,106.67Q562.96,111.72 562.91,114.25C562.86,116.77 562.8,119.3 562.72,121.82C562.64,124.35 562.56,126.87 562.45,129.4C562.34,131.92 562.21,134.45 562.07,136.97C561.92,139.49 561.76,142.02 561.58,144.54C561.4,147.07 561.21,149.59 561,152.12C560.79,154.64 560.57,157.17 560.34,159.69C560.11,162.22 559.87,164.74 559.63,167.27C559.39,169.79 559.14,172.32 558.91,174.84C558.68,177.37 558.45,179.89 558.24,182.42C558.03,184.94 557.83,187.47 557.66,189.99C557.49,192.51 557.34,195.04 557.2,197.56C557.06,200.09 556.94,202.61 556.83,205.14C556.72,207.66 556.62,210.19 556.52,212.71C556.41,215.24 556.32,217.76 556.2,220.29C556.08,222.81 555.96,225.34 555.81,227.86C555.66,230.39 555.51,232.91 555.32,235.44C555.14,237.96 554.93,240.49 554.7,243.01C554.47,245.53 554.21,248.06 553.93,250.58C553.65,253.11 553.33,255.63 553.02,258.16C552.71,260.68 552.37,263.2 552.07,265.73C551.78,268.25 551.47,270.78 551.25,273.31C551.03,275.83 550.83,278.35 550.76,280.88C550.69,283.4 550.7,285.94 550.83,288.46C550.96,290.99 551.21,293.51 551.55,296.03C551.89,298.56 552.36,301.08 552.88,303.6C553.4,306.13 554.04,308.66 554.66,311.18C555.28,313.71 555.97,316.22 556.61,318.75C557.25,321.27 557.9,323.8 558.48,326.33C559.06,328.85 559.6,331.37 560.07,333.9C560.54,336.42 560.94,338.94 561.28,341.47C561.62,343.99 561.88,346.52 562.1,349.05C562.32,351.57 562.48,354.09 562.61,356.62Q562.74,359.14 562.89,364.2L563.13,364.2" style="vector-effect: non-scaling-stroke; stroke-width: 2px; stroke: rgb(0, 0, 255); stroke-opacity: 1; fill: rgb(0, 0, 255); fill-opacity: 0.5;"/><path class="violin" d="M670.39,133.53L669.91,133.53Q669.62,135.87 669.38,137.03C669.14,138.2 668.85,139.38 668.47,140.53C668.08,141.71 667.62,142.88 667.07,144.03C666.51,145.21 665.84,146.38 665.13,147.53C664.41,148.71 663.58,149.86 662.77,151.02C661.95,152.19 661.05,153.35 660.22,154.52C659.39,155.68 658.55,156.84 657.79,158.02C657.04,159.17 656.33,160.34 655.69,161.52C655.06,162.67 654.5,163.84 653.96,165.01C653.42,166.17 652.95,167.34 652.44,168.51C651.93,169.68 651.44,170.85 650.9,172.01C650.36,173.18 649.77,174.35 649.19,175.51C648.61,176.68 647.98,177.83 647.43,179C646.89,180.16 646.32,181.32 645.92,182.5C645.53,183.65 645.18,184.82 645.04,186C644.9,187.16 644.91,188.34 645.08,189.5C645.25,190.68 645.62,191.85 646.06,192.99C646.51,194.18 647.14,195.34 647.77,196.49C648.42,197.67 649.18,198.83 649.92,199.99C650.67,201.16 651.46,202.32 652.23,203.49C653,204.66 653.78,205.82 654.55,206.99C655.32,208.15 656.08,209.31 656.83,210.48C657.58,211.64 658.33,212.81 659.05,213.98C659.77,215.14 660.49,216.3 661.16,217.48C661.82,218.64 662.46,219.8 663.02,220.98C663.57,222.13 664.09,223.29 664.52,224.47C664.94,225.62 665.29,226.8 665.57,227.97C665.84,229.13 666.03,230.3 666.18,231.47C666.33,232.63 666.4,233.8 666.47,234.97C666.54,236.13 666.56,237.3 666.6,238.46C666.64,239.63 666.67,240.79 666.72,241.96C666.78,243.13 666.84,244.29 666.93,245.46C667.02,246.63 667.14,247.8 667.28,248.96C667.42,250.13 667.59,251.29 667.76,252.45C667.93,253.62 668.12,254.78 668.3,255.95C668.48,257.12 668.67,258.28 668.84,259.45C669.01,260.62 669.18,261.78 669.33,262.95C669.48,264.12 669.61,265.28 669.72,266.45C669.83,267.61 669.93,268.78 670.01,269.94Q670.09,271.11 670.19,273.44L670.39,273.44" style="vector-effect: non-scaling-stroke; stroke-width: 2px; stroke: rgb(0, 0, 255); stroke-opacity: 1; fill: rgb(0, 0, 255); fill-opacity: 0.5;"/><path class="violin" d="M777.66,163.91L777.17,163.91Q776.89,165.68 776.67,166.55C776.45,167.44 776.18,168.33 775.83,169.2C775.47,170.1 775.03,170.98 774.53,171.85C774.01,172.75 773.4,173.63 772.76,174.5C772.09,175.4 771.34,176.27 770.59,177.15C769.83,178.04 769.01,178.91 768.25,179.8C767.5,180.68 766.72,181.54 766.06,182.44C765.42,183.3 764.82,184.19 764.33,185.09C763.87,185.95 763.5,186.85 763.19,187.74C762.89,188.61 762.72,189.51 762.47,190.39C762.22,191.27 762.05,192.18 761.69,193.04C761.31,193.94 760.85,194.84 760.23,195.68C759.54,196.61 758.64,197.49 757.67,198.33C756.59,199.26 755.28,200.12 754,200.98C752.67,201.88 751.16,202.73 749.82,203.63C748.54,204.5 747.14,205.33 746.12,206.28C745.23,207.11 744.28,207.97 743.93,208.92C743.62,209.75 743.59,210.73 743.87,211.57C744.18,212.51 745.09,213.39 745.93,214.22C746.9,215.17 748.23,216.01 749.46,216.87C750.74,217.77 752.19,218.62 753.48,219.52C754.72,220.38 756,221.23 757.05,222.16C758,223 758.92,223.87 759.56,224.81C760.14,225.65 760.58,226.55 760.83,227.46C761.07,228.32 761.09,229.23 761.1,230.11C761.11,230.99 760.95,231.88 760.9,232.76C760.86,233.64 760.75,234.53 760.83,235.41C760.91,236.3 761.07,237.19 761.39,238.05C761.72,238.96 762.24,239.85 762.82,240.7C763.44,241.62 764.24,242.48 765.04,243.35C765.87,244.25 766.82,245.12 767.71,246C768.61,246.89 769.56,247.75 770.42,248.65C771.25,249.52 772.08,250.39 772.8,251.29C773.49,252.15 774.13,253.03 774.66,253.94C775.17,254.8 775.6,255.69 775.95,256.59C776.29,257.46 776.55,258.35 776.76,259.24Q776.97,260.12 777.23,261.89L777.66,261.89" style="vector-effect: non-scaling-stroke; stroke-width: 2px; stroke: rgb(0, 0, 255); stroke-opacity: 1; fill: rgb(0, 0, 255); fill-opacity: 0.5;"/><path class="violin" d="M884.92,137.69L884.37,137.69Q884.04,139.84 883.77,140.91C883.5,141.99 883.17,143.07 882.75,144.13C882.31,145.22 881.77,146.3 881.17,147.35C880.54,148.44 879.81,149.51 879.04,150.57C878.25,151.66 877.36,152.72 876.49,153.79C875.61,154.87 874.67,155.92 873.81,157C872.96,158.06 872.11,159.13 871.36,160.22C870.64,161.28 869.97,162.35 869.38,163.44C868.81,164.5 868.34,165.58 867.88,166.66C867.43,167.73 867.07,168.81 866.63,169.88C866.19,170.95 865.77,172.03 865.26,173.09C864.74,174.17 864.16,175.25 863.55,176.31C862.92,177.39 862.2,178.46 861.53,179.53C860.86,180.6 860.12,181.66 859.53,182.75C858.96,183.81 858.38,184.87 858.03,185.97C857.7,187.02 857.45,188.11 857.44,189.18C857.43,190.25 857.63,191.35 857.95,192.4C858.29,193.5 858.85,194.57 859.45,195.62C860.08,196.72 860.88,197.78 861.67,198.84C862.48,199.93 863.37,200.99 864.24,202.06C865.12,203.14 866.02,204.2 866.91,205.27C867.79,206.34 868.68,207.41 869.55,208.49C870.42,209.56 871.28,210.63 872.12,211.71C872.95,212.78 873.77,213.85 874.55,214.93C875.32,216 876.09,217.06 876.79,218.15C877.47,219.21 878.12,220.27 878.68,221.36C879.22,222.42 879.72,223.49 880.11,224.58C880.49,225.64 880.78,226.72 881,227.8C881.21,228.87 881.33,229.94 881.4,231.02C881.47,232.09 881.45,233.17 881.44,234.24C881.43,235.31 881.36,236.39 881.32,237.46C881.28,238.53 881.23,239.6 881.22,240.67C881.21,241.74 881.21,242.82 881.25,243.89C881.29,244.96 881.36,246.04 881.46,247.11C881.56,248.18 881.69,249.26 881.83,250.33C881.97,251.4 882.14,252.48 882.31,253.55C882.48,254.62 882.67,255.69 882.85,256.76C883.03,257.83 883.21,258.91 883.38,259.98C883.55,261.05 883.71,262.13 883.85,263.2C883.99,264.27 884.13,265.35 884.24,266.42C884.35,267.49 884.44,268.57 884.52,269.64Q884.6,270.71 884.71,272.85L884.92,272.85" style="vector-effect: non-scaling-stroke; stroke-width: 2px; stroke: rgb(0, 0, 255); stroke-opacity: 1; fill: rgb(0, 0, 255); fill-opacity: 0.5;"/><path class="violin" d="M992.18,166.86L991.47,166.86Q991.06,168.71 990.76,169.62C990.45,170.55 990.07,171.47 989.61,172.37C989.13,173.31 988.55,174.23 987.93,175.13C987.28,176.07 986.53,176.98 985.77,177.89C985,178.82 984.14,179.72 983.33,180.64C982.52,181.56 981.68,182.47 980.93,183.4C980.2,184.31 979.49,185.22 978.88,186.16C978.3,187.06 977.81,187.98 977.35,188.91C976.9,189.82 976.57,190.75 976.16,191.67C975.75,192.59 975.39,193.53 974.88,194.43C974.34,195.37 973.72,196.3 972.98,197.18C972.17,198.14 971.19,199.05 970.17,199.94C969.09,200.89 967.83,201.78 966.65,202.7C965.47,203.62 964.17,204.49 963.11,205.45C962.13,206.33 961.07,207.22 960.47,208.21C959.94,209.08 959.51,210.05 959.52,210.97C959.53,211.89 959.98,212.85 960.51,213.72C961.12,214.71 962.15,215.59 963.11,216.48C964.14,217.44 965.4,218.32 966.54,219.24C967.67,220.16 968.88,221.04 969.9,221.99C970.86,222.88 971.8,223.79 972.53,224.75C973.2,225.63 973.76,226.56 974.15,227.51C974.52,228.4 974.71,229.34 974.86,230.27C975.01,231.18 975,232.1 975.08,233.02C975.16,233.94 975.17,234.87 975.34,235.78C975.51,236.71 975.73,237.64 976.09,238.54C976.47,239.48 976.99,240.4 977.58,241.29C978.2,242.24 978.97,243.15 979.75,244.05C980.56,244.99 981.47,245.89 982.34,246.81C983.21,247.73 984.13,248.63 984.97,249.56C985.78,250.47 986.59,251.38 987.3,252.32C987.98,253.22 988.61,254.14 989.14,255.08C989.65,255.98 990.07,256.9 990.43,257.83C990.78,258.74 991.04,259.66 991.26,260.59Q991.48,261.5 991.74,263.35L992.18,263.35" style="vector-effect: non-scaling-stroke; stroke-width: 2px; stroke: rgb(0, 0, 255); stroke-opacity: 1; fill: rgb(0, 0, 255); fill-opacity: 0.5;"/><path class="meanline" d="M3.389843702316284,125.35H26.82" style="fill: none; vector-effect: non-scaling-stroke; stroke-width: 2px; stroke-dasharray: 4px, 2px; stroke: rgb(0, 0, 255); stroke-opacity: 1;"/><path class="meanline" d="M119.97866821289062,487.52H134.08" style="fill: none; vector-effect: non-scaling-stroke; stroke-width: 2px; stroke-dasharray: 4px, 2px; stroke: rgb(0, 0, 255); stroke-opacity: 1;"/><path class="meanline" d="M211.62405395507812,149.39H241.34" style="fill: none; vector-effect: non-scaling-stroke; stroke-width: 2px; stroke-dasharray: 4px, 2px; stroke: rgb(0, 0, 255); stroke-opacity: 1;"/><path class="meanline" d="M329.8280029296875,202.63H348.61" style="fill: none; vector-effect: non-scaling-stroke; stroke-width: 2px; stroke-dasharray: 4px, 2px; stroke: rgb(0, 0, 255); stroke-opacity: 1;"/><path class="meanline" d="M447.55828857421875,150.74H455.87" style="fill: none; vector-effect: non-scaling-stroke; stroke-width: 2px; stroke-dasharray: 4px, 2px; stroke: rgb(0, 0, 255); stroke-opacity: 1;"/><path class="meanline" d="M553.4824829101562,254.4H563.13" style="fill: none; vector-effect: non-scaling-stroke; stroke-width: 2px; stroke-dasharray: 4px, 2px; stroke: rgb(0, 0, 255); stroke-opacity: 1;"/><path class="meanline" d="M645.1638793945312,190H670.39" style="fill: none; vector-effect: non-scaling-stroke; stroke-width: 2px; stroke-dasharray: 4px, 2px; stroke: rgb(0, 0, 255); stroke-opacity: 1;"/><path class="meanline" d="M744.5340576171875,212.73H777.66" style="fill: none; vector-effect: non-scaling-stroke; stroke-width: 2px; stroke-dasharray: 4px, 2px; stroke: rgb(0, 0, 255); stroke-opacity: 1;"/><path class="meanline" d="M857.5526733398438,190.68H884.92" style="fill: none; vector-effect: non-scaling-stroke; stroke-width: 2px; stroke-dasharray: 4px, 2px; stroke: rgb(0, 0, 255); stroke-opacity: 1;"/><path class="meanline" d="M960.52294921875,213.74H992.18" style="fill: none; vector-effect: non-scaling-stroke; stroke-width: 2px; stroke-dasharray: 4px, 2px; stroke: rgb(0, 0, 255); stroke-opacity: 1;"/><g class="points"><path class="point" transform="translate(26.82,188.14)" d="M3,0A3,3 0 1,1 0,-3A3,3 0 0,1 3,0Z" style="opacity: 1; stroke-width: 0px; fill: rgb(0, 0, 255); fill-opacity: 1;"/><path class="point" transform="translate(26.82,186.88)" d="M3,0A3,3 0 1,1 0,-3A3,3 0 0,1 3,0Z" style="opacity: 1; stroke-width: 0px; fill: rgb(0, 0, 255); fill-opacity: 1;"/></g><g class="points"/><g class="points"><path class="point" transform="translate(241.34,98.55)" d="M3,0A3,3 0 1,1 0,-3A3,3 0 0,1 3,0Z" style="opacity: 1; stroke-width: 0px; fill: rgb(0, 0, 255); fill-opacity: 1;"/></g><g class="points"><path class="point" transform="translate(348.61,133.08)" d="M3,0A3,3 0 1,1 0,-3A3,3 0 0,1 3,0Z" style="opacity: 1; stroke-width: 0px; fill: rgb(0, 0, 255); fill-opacity: 1;"/><path class="point" transform="translate(348.61,132.43)" d="M3,0A3,3 0 1,1 0,-3A3,3 0 0,1 3,0Z" style="opacity: 1; stroke-width: 0px; fill: rgb(0, 0, 255); fill-opacity: 1;"/><path class="point" transform="translate(348.61,119.44)" d="M3,0A3,3 0 1,1 0,-3A3,3 0 0,1 3,0Z" style="opacity: 1; stroke-width: 0px; fill: rgb(0, 0, 255); fill-opacity: 1;"/></g><g class="points"/><g class="points"/><g class="points"><path class="point" transform="translate(670.39,251.98)" d="M3,0A3,3 0 1,1 0,-3A3,3 0 0,1 3,0Z" style="opacity: 1; stroke-width: 0px; fill: rgb(0, 0, 255); fill-opacity: 1;"/></g><g class="points"/><g class="points"><path class="point" transform="translate(884.92,253.24)" d="M3,0A3,3 0 1,1 0,-3A3,3 0 0,1 3,0Z" style="opacity: 1; stroke-width: 0px; fill: rgb(0, 0, 255); fill-opacity: 1;"/></g><g class="points"/></g></g></g><g class="overplot"/><path class="xlines-above crisp" style="fill: none; stroke-width: 1px; stroke: rgb(255, 255, 255); stroke-opacity: 1;" d="M79,701.5H1099"/><path class="ylines-above crisp" style="fill: none; stroke-width: 1px; stroke: rgb(255, 255, 255); stroke-opacity: 1;" d="M79.5,100V701"/><g class="overlines-above"/><g class="xaxislayer-above"><g class="xtick"><text text-anchor="start" x="0" y="718.8" transform="translate(106.82,0) rotate(30,0,711.8)" style="font-family: 'Open Sans', verdana, arial, sans-serif; font-size: 14px; fill: rgb(42, 63, 95); fill-opacity: 1; white-space: pre;">baseline_s</text></g><g class="xtick"><text text-anchor="start" x="0" y="718.8" transform="translate(214.08,0) rotate(30,0,711.8)" style="font-family: 'Open Sans', verdana, arial, sans-serif; font-size: 14px; fill: rgb(42, 63, 95); fill-opacity: 1; white-space: pre;">baseline_i</text></g><g class="xtick"><text text-anchor="start" x="0" y="718.8" transform="translate(321.34000000000003,0) rotate(30,0,711.8)" style="font-family: 'Open Sans', verdana, arial, sans-serif; font-size: 14px; fill: rgb(42, 63, 95); fill-opacity: 1; white-space: pre;">sign_s</text></g><g class="xtick"><text text-anchor="start" x="0" y="718.8" transform="translate(428.61,0) rotate(30,0,711.8)" style="font-family: 'Open Sans', verdana, arial, sans-serif; font-size: 14px; fill: rgb(42, 63, 95); fill-opacity: 1; white-space: pre;">sign_i</text></g><g class="xtick"><text text-anchor="start" x="0" y="718.8" transform="translate(535.87,0) rotate(30,0,711.8)" style="font-family: 'Open Sans', verdana, arial, sans-serif; font-size: 14px; fill: rgb(42, 63, 95); fill-opacity: 1; white-space: pre;">weighted_delta_s</text></g><g class="xtick"><text text-anchor="start" x="0" y="718.8" transform="translate(643.13,0) rotate(30,0,711.8)" style="font-family: 'Open Sans', verdana, arial, sans-serif; font-size: 14px; fill: rgb(42, 63, 95); fill-opacity: 1; white-space: pre;">weighted_delta_i</text></g><g class="xtick"><text text-anchor="start" x="0" y="718.8" transform="translate(750.39,0) rotate(30,0,711.8)" style="font-family: 'Open Sans', verdana, arial, sans-serif; font-size: 14px; fill: rgb(42, 63, 95); fill-opacity: 1; white-space: pre;">weighted_ask_er_s</text></g><g class="xtick"><text text-anchor="start" x="0" y="718.8" transform="translate(857.66,0) rotate(30,0,711.8)" style="font-family: 'Open Sans', verdana, arial, sans-serif; font-size: 14px; fill: rgb(42, 63, 95); fill-opacity: 1; white-space: pre;">weighted_ask_er_i</text></g><g class="xtick"><text text-anchor="start" x="0" y="718.8" transform="translate(964.92,0) rotate(30,0,711.8)" style="font-family: 'Open Sans', verdana, arial, sans-serif; font-size: 14px; fill: rgb(42, 63, 95); fill-opacity: 1; white-space: pre;">weighted_bid_er_s</text></g><g class="xtick"><text text-anchor="start" x="0" y="718.8" transform="translate(1072.1799999999998,0) rotate(30,0,711.8)" style="font-family: 'Open Sans', verdana, arial, sans-serif; font-size: 14px; fill: rgb(42, 63, 95); fill-opacity: 1; white-space: pre;">weighted_bid_er_i</text></g></g><g class="yaxislayer-above"><g class="ytick"><text text-anchor="end" x="76.2" y="4.8999999999999995" transform="translate(0,668.25)" style="font-family: 'Open Sans', verdana, arial, sans-serif; font-size: 14px; fill: rgb(42, 63, 95); fill-opacity: 1; white-space: pre;">0.5</text></g><g class="ytick"><text text-anchor="end" x="76.2" y="4.8999999999999995" transform="translate(0,600.5799999999999)" style="font-family: 'Open Sans', verdana, arial, sans-serif; font-size: 14px; fill: rgb(42, 63, 95); fill-opacity: 1; white-space: pre;">0.4</text></g><g class="ytick"><text text-anchor="end" x="76.2" y="4.8999999999999995" transform="translate(0,532.9100000000001)" style="font-family: 'Open Sans', verdana, arial, sans-serif; font-size: 14px; fill: rgb(42, 63, 95); fill-opacity: 1; white-space: pre;">0.3</text></g><g class="ytick"><text text-anchor="end" x="76.2" y="4.8999999999999995" transform="translate(0,465.24)" style="font-family: 'Open Sans', verdana, arial, sans-serif; font-size: 14px; fill: rgb(42, 63, 95); fill-opacity: 1; white-space: pre;">0.2</text></g><g class="ytick"><text text-anchor="end" x="76.2" y="4.8999999999999995" transform="translate(0,397.57)" style="font-family: 'Open Sans', verdana, arial, sans-serif; font-size: 14px; fill: rgb(42, 63, 95); fill-opacity: 1; white-space: pre;">0.1</text></g><g class="ytick"><text text-anchor="end" x="76.2" y="4.8999999999999995" transform="translate(0,329.89)" style="font-family: 'Open Sans', verdana, arial, sans-serif; font-size: 14px; fill: rgb(42, 63, 95); fill-opacity: 1; white-space: pre;">0</text></g><g class="ytick"><text text-anchor="end" x="76.2" y="4.8999999999999995" transform="translate(0,262.22)" style="font-family: 'Open Sans', verdana, arial, sans-serif; font-size: 14px; fill: rgb(42, 63, 95); fill-opacity: 1; white-space: pre;">0.1</text></g><g class="ytick"><text text-anchor="end" x="76.2" y="4.8999999999999995" transform="translate(0,194.55)" style="font-family: 'Open Sans', verdana, arial, sans-serif; font-size: 14px; fill: rgb(42, 63, 95); fill-opacity: 1; white-space: pre;">0.2</text></g><g class="ytick"><text text-anchor="end" x="76.2" y="4.8999999999999995" transform="translate(0,126.88)" style="font-family: 'Open Sans', verdana, arial, sans-serif; font-size: 14px; fill: rgb(42, 63, 95); fill-opacity: 1; white-space: pre;">0.3</text></g></g><g class="overaxes-above"/></g></g><g class="polarlayer"/><g class="ternarylayer"/><g class="geolayer"/><g class="funnelarealayer"/><g class="pielayer"/><g class="treemaplayer"/><g class="sunburstlayer"/><g class="glimages"/><defs id="topdefs-1678f4"><g class="clips"/><clipPath id="legend1678f4"><rect width="69" height="53" x="0" y="0"/></clipPath></defs><g class="layer-above"><g class="imagelayer"/><g class="shapelayer"/></g><g class="infolayer"><g class="legend" pointer-events="all" transform="translate(1119.38, 100)"><rect class="bg" shape-rendering="crispEdges" style="stroke: rgb(68, 68, 68); stroke-opacity: 1; fill: rgb(255, 255, 255); fill-opacity: 1; stroke-width: 0px;" width="69" height="53" x="0" y="0"/><g class="scrollbox" transform="translate(0, 0)" clip-path="url('#legend1678f4')"><g class="groups"><g class="traces" style="opacity: 1;" transform="translate(0, 15.6)"><text class="legendtext user-select-none" text-anchor="start" x="40" y="5.46" style="font-family: 'Open Sans', verdana, arial, sans-serif; font-size: 14px; fill: rgb(42, 63, 95); fill-opacity: 1; white-space: pre;">call</text><g class="layers" style="opacity: 1;"><g class="legendfill"/><g class="legendlines"/><g class="legendsymbols"><g class="legendpoints"><path class="legendbox" d="M6,6H-6V-6H6Z" transform="translate(20,0)" style="stroke-width: 2px; fill: rgb(255, 165, 0); fill-opacity: 0.5; stroke: rgb(255, 165, 0); stroke-opacity: 1;"/></g></g></g><rect class="legendtoggle" pointer-events="all" x="0" y="-10.6" width="63.390995025634766" height="21.2" style="cursor: pointer; fill: rgb(0, 0, 0); fill-opacity: 0;"/></g><g class="traces" style="opacity: 1;" transform="translate(0, 36.8)"><text class="legendtext user-select-none" text-anchor="start" x="40" y="5.46" style="font-family: 'Open Sans', verdana, arial, sans-serif; font-size: 14px; fill: rgb(42, 63, 95); fill-opacity: 1; white-space: pre;">put</text><g class="layers" style="opacity: 1;"><g class="legendfill"/><g class="legendlines"/><g class="legendsymbols"><g class="legendpoints"><path class="legendbox" d="M6,6H-6V-6H6Z" transform="translate(20,0)" style="stroke-width: 2px; fill: rgb(0, 0, 255); fill-opacity: 0.5; stroke: rgb(0, 0, 255); stroke-opacity: 1;"/></g></g></g><rect class="legendtoggle" pointer-events="all" x="0" y="-10.6" width="63.390995025634766" height="21.2" style="cursor: pointer; fill: rgb(0, 0, 0); fill-opacity: 0;"/></g></g></g><rect class="scrollbar" rx="20" ry="3" width="0" height="0" style="fill: rgb(128, 139, 164); fill-opacity: 1;" x="0" y="0"/></g><g class="g-gtitle"><text class="gtitle" x="60" y="50" text-anchor="start" dy="0em" style="font-family: 'Open Sans', verdana, arial, sans-serif; font-size: 20px; fill: rgb(42, 63, 95); opacity: 1; font-weight: normal; white-space: pre;">Kendall Tau Correlation Distributions of Various Metrics</text></g><g class="g-xtitle"/><g class="g-ytitle" transform="translate(2.2138671875,0)"><text class="ytitle" transform="rotate(-90,14.942773437499994,400.5)" x="14.942773437499994" y="400.5" text-anchor="middle" style="font-family: 'Open Sans', verdana, arial, sans-serif; font-size: 17px; fill: rgb(42, 63, 95); opacity: 1; font-weight: normal; white-space: pre;">Kendall Tau Correlation</text></g></g></svg>